<?xml version="1.0" encoding="utf-8"?>
<!-- Generator: Adobe Illustrator 16.0.3, SVG Export Plug-In . SVG Version: 6.00 Build 0)  -->
<!DOCTYPE svg PUBLIC "-//W3C//DTD SVG 1.1//EN" "http://www.w3.org/Graphics/SVG/1.1/DTD/svg11.dtd">
<svg version="1.1" id="Layer_1" xmlns="http://www.w3.org/2000/svg" xmlns:xlink="http://www.w3.org/1999/xlink" x="0px" y="0px"
	 width="184.034px" height="185.896px" viewBox="0 0 184.034 185.896" enable-background="new 0 0 184.034 185.896"
	 xml:space="preserve">
<g>
	<g>
		<path fill-rule="evenodd" clip-rule="evenodd" fill="#EB6748" d="M37.546,135.504c1.096,2.677-0.229,4.341-2.166,6.075
			c-6.686,5.984-6.668,6.078-0.322,12.264c4.56,4.444,9.291,8.712,13.811,13.194c1.448,1.436,2.205,1.289,3.58-0.094
			c7.903-7.959,7.941-7.924,18.194-3.291c2.503,1.131,5.045,2.111,7.722,2.809c5.566,1.451,6.678,3.098,6.363,8.779
			c-0.049,0.871-0.067,1.746-0.09,2.619c-0.059,2.285,0.913,3.443,3.346,3.438c7.749-0.02,15.498,0.039,23.246,0.119
			c2.756,0.027,3.893-1.383,3.703-3.967c-0.764-10.436,0.492-8.971,8.413-12.014c4.075-1.564,8.142-3.172,12.122-4.961
			c2.791-1.254,4.871-0.744,7.061,1.369c6.384,6.16,6.402,6.039,13.491,0.301c4.595-3.721,8.508-8.065,12.329-12.53
			c1.557-1.82,1.719-3.109-0.318-4.916c-7.084-6.283-7.035-6.383-2.847-14.988c1.53-3.145,3.108-6.246,3.966-9.671
			c0.887-3.546,3.23-4.96,6.902-4.946c8.236,0.03,8.617,1.652,8.521-8.465c-0.051-5.367-0.033-10.74,0.124-16.104
			c0.077-2.638-0.813-4.046-3.575-4.005c-0.744,0.011-1.527-0.314-2.229-0.172c-6.507,1.311-9.386-1.934-11.218-7.811
			c-1.545-4.954-4.277-9.539-6.484-14.287c-2.334,1.35-0.58,4.632-2.846,6.014c2.629,7.48,3.416,15.144,0.881,22.708
			c-4.709,14.044-14.746,21.683-29.435,23.291c0.909,1.232-0.138,1.777-0.878,2.373c-5.041,4.055-10.135,8.08-15.788,11.23
			c-8.067,4.494-16.529,8.059-25.798,9.307c-0.045,4.721-0.149,9.441-0.109,14.16c0.016,1.838-0.471,2.713-2.508,2.688
			c-6.965-0.086-13.932-0.082-20.896,0c-1.969,0.021-2.603-0.734-2.574-2.629c0.064-4.225-0.029-8.453-0.059-12.678
			c-1.957-0.086-3.889,0.031-5.869-0.383C49.289,139.07,43.446,137.195,37.546,135.504z"/>
		<path fill-rule="evenodd" clip-rule="evenodd" fill="#D82F17" d="M37.546,135.504c5.899,1.69,11.742,3.565,17.766,4.825
			c1.98,0.414,3.912,0.297,5.869,0.383c0.011-28.826,0.092-57.651-0.057-86.475c-0.018-3.566,1.084-4.265,4.397-4.239
			c19.724,0.149,39.456,0.379,59.173-0.023c15.749-0.322,26.729,6.406,33.65,20.288c2.266-1.382,0.512-4.664,2.846-6.014
			c0.025-0.492,0.051-0.983,0.076-1.476c-0.586-0.473-0.406-1.019-0.279-1.656c0.991-4.949,1.959-9.905,1.855-14.991
			c-0.482-0.658-0.965-1.317-1.445-1.976c-2.08-1.756-4.127-3.553-6.246-5.26c-6.463-5.207-6.473-5.193-12.199,0.366
			c-0.268,0.26-0.578,0.485-0.805,0.777c-1.963,2.528-4.15,2.603-6.844,1.019c-4.19-2.463-8.809-4.025-13.336-5.746
			c-6.293-2.392-6.648-2.819-6.713-9.418c-0.84-1.946,0.217-4.73-2.573-5.814c-7.727-0.008-15.453-0.04-23.18-0.014
			c-4.171,0.014-5.038,0.901-5.077,5.03c-0.086,8.89,1.115,7.563-7.406,10.775c-4.537,1.711-9.059,3.494-13.469,5.503
			c-2.619,1.194-4.372,0.607-6.229-1.409c-6.191-6.729-6.209-6.649-13.484-0.785c-4.969,4.004-9.035,8.896-13.514,13.383
			c-2.36,3.563,1.822,4.265,2.79,6.374c5.634,3.931,5.663,4.201,2.524,10.057c-2.111,3.939-4.215,7.94-5.241,12.299
			c-0.959,4.074-3.489,5.356-7.29,5.367c-7.635,0.023-7.709,0.06-7.979,7.499c-0.207,5.712-0.134,11.434-0.299,17.149
			c-0.085,2.907,1.145,4.456,4.051,4.657c1.148-0.199,2.299-0.4,3.447-0.6c-0.123,0.006-0.352,0.028-0.354,0.013
			c-0.085-0.492-0.563,0.028-0.159,0.28c0.348,0.218,0.991,0.384,1.27,0.206c0.524-0.335,0.119-0.496-0.289-0.505
			c1.287,0.206,2.572,0.412,3.859,0.619c1.918-0.096,2.477,1.387,3.049,2.737c1.591,3.748,3.112,7.524,4.661,11.29
			c0.335,0.845,0.67,1.689,1.005,2.534C36.095,133.524,36.822,134.514,37.546,135.504z"/>
		<path fill-rule="evenodd" clip-rule="evenodd" fill="#5B5A5A" d="M78.839,6.539c1.078,7.078-2.953,9.873-9.057,11.645
			c-5.121,1.486-10.01,3.813-14.939,5.915c-2.93,1.25-5.319,0.958-7.262-1.68c-0.223-0.301-0.466-0.587-0.715-0.867
			c-5.859-6.556-5.881-6.581-12.71-1.11c-6.159,4.934-11.681,10.498-16.604,16.682c-1.322,1.66-1.173,2.48,0.352,3.871
			c6.612,6.028,6.537,6.059,12.347-0.449c4.422-4.954,9.478-9.203,14.808-13.151c1.523-1.129,2.423-1.411,3.973,0.272
			c7.291,7.921,4.754,8.782,16.757,3.61c4.004-1.725,8.103-3.244,12.216-4.696c2.734-0.965,3.877-2.59,3.825-5.58
			c-0.157-9.106-1.364-9.375,9.392-9.234c2.615,0.034,5.232,0.018,7.848,0.024c2.649-1.592,5.548-0.398,8.313-0.729
			c1.75-0.209,3.679,0.834,5.223-0.777c0.034-0.371,0.104-0.742,0.098-1.112c-0.163-8.95-0.164-8.95-9.15-8.583
			c-0.994,1.1-2.316,0.682-3.509,0.693c-4.344,0.044-8.708,0.272-13.027-0.054C82.726,0.905,79.488,1.561,78.839,6.539z"/>
		<path fill-rule="evenodd" clip-rule="evenodd" fill="#5B5A5A" d="M33.114,58.931c-0.968-2.109-5.15-2.811-2.79-6.374
			c-0.131-0.209-0.231-0.451-0.402-0.624c-3.086-3.133-3.045-3.109-5.133,0.776c-2.948,5.49-5.838,10.995-7.426,17.078
			c-0.963,3.693-3.537,5.099-7.222,5.209C0.21,75.292,0.18,75.344,0.064,85.312c-0.066,5.861,0.113,11.727-0.06,17.584
			c-0.105,3.568,1.7,4.612,4.819,4.545c5.008-0.107,4.991-0.095,5.014-5.014c0.027-5.984,0.168-11.971,0.097-17.954
			c-0.033-2.778,0.861-4.479,3.848-4.043c7.515,1.098,11.98-1.509,13.561-9.411C28.206,66.703,30.85,62.809,33.114,58.931z"/>
		<path fill-rule="evenodd" clip-rule="evenodd" fill="#5F5E5E" d="M112.603,10.285c-1.544,1.611-3.473,0.567-5.223,0.777
			c-2.765,0.331-5.663-0.863-8.313,0.729c2.703,0.689,5.451,0.239,8.176,0.294c4.889,0.097,5.256,0.414,5.34,5.376
			c0.015,0.872,0.064,1.743,0.098,2.614c2.791,1.083,1.734,3.868,2.572,5.817c4.314,1.622,8.715,3.05,12.93,4.899
			c9.598,4.211,9.604,4.34,17.147-2.904c1.409-1.353,2.387-1.254,3.848-0.289c3.243,2.144,6.063,4.807,9.132,7.151
			c3.326,2.542,4.426,5.49,3.088,9.402c0.48,0.659,0.963,1.318,1.445,1.978c0.439,0.288,0.878,0.575,1.317,0.863
			c1.61-5.146,1.817-10.505,2.388-15.808c0.129-1.19-0.323-2.127-1.16-3.003c-3.97-4.159-8.369-7.778-13.146-10.982
			c-1.831-1.229-3.077-1.044-4.438,0.602c-1.344,1.626-2.953,3.035-4.3,4.659c-2.169,2.616-4.63,3.08-7.585,1.443
			c-5.35-2.961-11.067-5.08-16.808-7.102C115.808,15.638,113.48,13.75,112.603,10.285z"/>
		<path fill-rule="evenodd" clip-rule="evenodd" fill="#5F5E5E" d="M35.369,132.534c-0.335-0.845-0.67-1.689-1.004-2.534
			c-1.501,0.053-2.148-0.947-2.7-2.125c-1.829-3.901-3.729-7.771-5.011-11.902c-1.287-0.207-2.572-0.413-3.848-0.617
			c-0.152-0.009-0.315-0.008-0.479,0.004c-1.148,0.199-2.299,0.4-3.447,0.6c0.7,1.708,1.641,3.359,2.062,5.135
			C22.757,128.749,28.311,131.556,35.369,132.534z"/>
		<path fill-rule="evenodd" clip-rule="evenodd" fill="#EB6748" d="M164.161,46.991c-0.439-0.288-0.878-0.575-1.317-0.863
			c0.104,5.084-0.864,10.041-1.855,14.99c-0.127,0.637-0.307,1.183,0.279,1.656c1.889-1.598,3.617-3.456,5.701-4.737
			c3.383-2.08,3.211-4.138,0.707-6.73C166.392,49.977,165.326,48.437,164.161,46.991z"/>
		<path fill-rule="evenodd" clip-rule="evenodd" fill="#5F5E5E" d="M78.839,6.539c0.648-4.978,3.887-5.634,8.175-5.31
			c4.319,0.327,8.684,0.099,13.027,0.054c1.192-0.012,2.515,0.406,3.509-0.693C96.279-0.397,88.974,0.11,81.695,0.301
			C78.76,0.377,77.906,2.741,78.839,6.539z"/>
		<path fill-rule="evenodd" clip-rule="evenodd" fill="#D82F17" d="M95.296,116.048c-0.057-7.865-0.041-15.734-0.216-23.598
			c-0.052-2.351,1.048-2.587,2.953-2.574c9.624,0.065,19.248,0.001,28.872,0.048c3.063,0.015,5.301-1.233,6.697-3.918
			c1.291-2.484,0.828-4.863-0.767-7.033c-1.354-1.841-3.272-2.603-5.541-2.602c-12.499,0.008-24.997-0.006-37.496,0.02
			c-1.019,0.001-2.417-0.436-2.511,1.369c0.756,0.843,0.538,1.882,0.539,2.858c0.01,18.096,0.01,36.192,0,54.288
			c0,0.978,0.215,2.016-0.535,2.861c0.012,0.469,0.023,0.936,0.035,1.404c9.269-1.248,17.73-4.813,25.798-9.307
			c5.653-3.15,10.747-7.176,15.788-11.23c0.74-0.596,1.787-1.141,0.878-2.373c-11.237,0.036-22.474,0.073-33.711,0.11
			C95.601,116.793,95.376,116.599,95.296,116.048z"/>
		<path fill-rule="evenodd" clip-rule="evenodd" fill="#EB6748" d="M87.292,137.767c0.75-0.846,0.535-1.884,0.535-2.861
			c0.01-18.096,0.01-36.191,0-54.288c-0.001-0.977,0.217-2.015-0.539-2.858c-0.074,16.032-0.164,32.063-0.207,48.095
			C87.072,129.826,87.218,133.796,87.292,137.767z"/>
		<path fill-rule="evenodd" clip-rule="evenodd" fill="#EB6748" d="M95.296,116.048c0.08,0.551,0.305,0.745,0.784,0.323
			C95.82,116.263,95.558,116.157,95.296,116.048z"/>
	</g>
</g>
</svg>
