<?xml version="1.0" encoding="utf-8"?>
<!-- Generator: Adobe Illustrator 16.0.3, SVG Export Plug-In . SVG Version: 6.00 Build 0)  -->
<!DOCTYPE svg PUBLIC "-//W3C//DTD SVG 1.1//EN" "http://www.w3.org/Graphics/SVG/1.1/DTD/svg11.dtd">
<svg version="1.1" id="Layer_1" xmlns="http://www.w3.org/2000/svg" xmlns:xlink="http://www.w3.org/1999/xlink" x="0px" y="0px"
	 width="531.534px" height="185.809px" viewBox="0 0 531.534 185.809" enable-background="new 0 0 531.534 185.809"
	 xml:space="preserve">
<g>
	<g>
		<path fill-rule="evenodd" clip-rule="evenodd" fill="#EB6748" d="M37.473,135.504c1.096,2.677-0.229,4.341-2.166,6.075
			c-6.686,5.984-6.668,6.078-0.322,12.264c4.56,4.444,9.291,8.712,13.811,13.194c1.448,1.436,2.205,1.289,3.58-0.094
			c7.903-7.959,7.941-7.924,18.194-3.291c2.503,1.131,5.045,2.111,7.722,2.809c5.566,1.451,6.678,3.098,6.363,8.779
			c-0.049,0.871-0.067,1.746-0.09,2.619c-0.059,2.285,0.913,3.443,3.346,3.438c7.749-0.02,15.498,0.039,23.246,0.119
			c2.756,0.027,3.893-1.383,3.703-3.967c-0.764-10.436,0.492-8.971,8.413-12.014c4.075-1.564,8.142-3.172,12.122-4.961
			c2.791-1.254,4.871-0.744,7.061,1.369c6.384,6.16,6.402,6.039,13.491,0.301c4.595-3.721,8.508-8.065,12.329-12.53
			c1.557-1.82,1.719-3.109-0.318-4.916c-7.084-6.283-7.035-6.383-2.847-14.988c1.53-3.145,3.108-6.246,3.966-9.671
			c0.887-3.546,3.23-4.96,6.902-4.946c8.236,0.03,8.617,1.652,8.521-8.465c-0.051-5.367-0.033-10.74,0.124-16.104
			c0.077-2.638-0.813-4.046-3.575-4.005c-0.744,0.011-1.527-0.314-2.229-0.172c-6.507,1.311-9.386-1.934-11.218-7.811
			c-1.545-4.954-4.277-9.539-6.484-14.287c-2.334,1.35-0.58,4.632-2.846,6.014c2.629,7.48,3.416,15.144,0.881,22.708
			c-4.709,14.044-14.746,21.683-29.435,23.291c0.909,1.232-0.138,1.777-0.878,2.373c-5.041,4.055-10.135,8.08-15.788,11.23
			c-8.067,4.494-16.529,8.059-25.798,9.307c-0.045,4.721-0.149,9.441-0.109,14.16c0.016,1.838-0.471,2.713-2.508,2.688
			c-6.965-0.086-13.932-0.082-20.896,0c-1.969,0.021-2.603-0.734-2.574-2.629c0.064-4.225-0.029-8.453-0.059-12.678
			c-1.957-0.086-3.889,0.031-5.869-0.383C49.215,139.07,43.372,137.195,37.473,135.504z"/>
		<path fill-rule="evenodd" clip-rule="evenodd" fill="#D82F17" d="M37.473,135.504c5.899,1.69,11.742,3.565,17.766,4.825
			c1.98,0.414,3.912,0.297,5.869,0.383c0.011-28.826,0.092-57.651-0.057-86.475c-0.018-3.566,1.084-4.265,4.397-4.239
			c19.724,0.149,39.456,0.379,59.173-0.023c15.749-0.322,26.729,6.406,33.65,20.288c2.266-1.382,0.512-4.664,2.846-6.014
			c0.025-0.492,0.051-0.983,0.076-1.476c-0.586-0.473-0.406-1.019-0.279-1.656c0.991-4.949,1.959-9.905,1.855-14.991
			c-0.482-0.658-0.965-1.317-1.445-1.976c-2.08-1.756-4.127-3.553-6.246-5.26c-6.463-5.207-6.473-5.193-12.199,0.366
			c-0.268,0.26-0.578,0.485-0.805,0.777c-1.963,2.528-4.15,2.603-6.844,1.019c-4.19-2.463-8.809-4.025-13.336-5.746
			c-6.293-2.392-6.648-2.819-6.713-9.418c-0.84-1.946,0.217-4.73-2.573-5.814c-7.727-0.008-15.453-0.04-23.18-0.014
			c-4.171,0.014-5.038,0.901-5.077,5.03c-0.086,8.89,1.115,7.563-7.406,10.775c-4.537,1.711-9.059,3.494-13.469,5.503
			c-2.619,1.194-4.372,0.607-6.229-1.409c-6.191-6.729-6.209-6.649-13.484-0.785c-4.969,4.004-9.035,8.896-13.514,13.383
			c-2.36,3.563,1.822,4.265,2.79,6.374c5.634,3.931,5.663,4.201,2.524,10.057c-2.111,3.939-4.215,7.94-5.241,12.299
			c-0.959,4.074-3.489,5.356-7.29,5.367c-7.635,0.023-7.709,0.06-7.979,7.499c-0.207,5.712-0.134,11.434-0.299,17.149
			c-0.085,2.907,1.145,4.456,4.051,4.657c1.148-0.199,2.299-0.4,3.447-0.6c-0.123,0.006-0.352,0.028-0.354,0.013
			c-0.085-0.492-0.563,0.028-0.159,0.28c0.348,0.218,0.991,0.384,1.27,0.206c0.524-0.335,0.119-0.496-0.289-0.505
			c1.287,0.206,2.572,0.412,3.859,0.619c1.918-0.096,2.477,1.387,3.049,2.737c1.591,3.748,3.112,7.524,4.661,11.29
			c0.335,0.845,0.67,1.689,1.005,2.534C36.021,133.524,36.748,134.514,37.473,135.504z"/>
		<path fill-rule="evenodd" clip-rule="evenodd" fill="#030303" d="M431.258,101.013c0,15.115,0.068,30.232-0.063,45.348
			c-0.023,2.744,0.607,3.752,3.504,3.59c4.484-0.252,9.004-0.238,13.492-0.006c2.834,0.148,3.568-0.762,3.553-3.563
			c-0.115-21.611-0.002-43.224-0.133-64.834c-0.02-3.151,0.381-4.056,3.785-3.083c17.15,4.903,28.908,16.157,37.572,31.19
			c6.623,11.496,9.639,24.004,10.104,37.156c0.088,2.451,0.771,3.215,3.219,3.125c4.867-0.18,9.748-0.131,14.619-0.016
			c1.963,0.045,2.947-0.291,2.852-2.588c-1.559-37.514-15.791-67.945-49.373-87.218c-12.729-7.305-26.918-8.656-41.357-8.039
			c-2.652,0.113-1.736,1.967-1.74,3.215C431.24,70.532,431.258,85.773,431.258,101.013z"/>
		<path fill-rule="evenodd" clip-rule="evenodd" fill="#050505" d="M428.119,80.575c0-8.371-0.088-16.744,0.055-25.113
			c0.041-2.479-0.404-3.57-3.205-3.429c-4.738,0.239-9.5,0.178-14.246,0.018c-2.365-0.08-3.219,0.48-3.184,3.066
			c0.217,15.484,0.129,30.972,0.365,46.456c0.195,12.841-10.02,24.443-21.563,24.143c-9.127-0.236-17.781-8.498-19.672-18.688
			c-0.551-2.971-0.494-5.932-0.477-8.93c0.078-14.244-0.029-28.488,0.092-42.731c0.021-2.581-0.641-3.444-3.292-3.329
			c-4.866,0.21-9.748,0.071-14.622,0.052c-1.442-0.005-2.674-0.096-2.631,2.049c0.367,18.479-1.166,37.028,0.729,55.425
			c1.639,15.915,9.637,28.698,24.027,36.257c17.822,9.359,38.434,2.465,49.77-15.811c5.27-8.496,7.846-17.725,7.854-27.695
			C428.123,95.069,428.119,87.822,428.119,80.575z"/>
		<path fill-rule="evenodd" clip-rule="evenodd" fill="#030303" d="M239.512,131.212c0-5.244,0.043-10.488-0.026-15.731
			c-0.022-1.666,0.323-2.507,2.259-2.429c13.439,0.545,22.96-11.162,25.024-21.711c2.44-12.468,0.667-25.15,1.138-37.727
			c0.057-1.507-0.908-1.509-1.951-1.509c-5.621,0.003-11.244,0.068-16.863-0.031c-2.279-0.04-1.859,1.427-1.861,2.74
			c-0.006,8.615,0.004,17.229-0.004,25.845c-0.007,6.654-1.475,8.112-8.114,8.112c-6.87,0-13.74,0.007-20.61-0.001
			c-5.646-0.008-7.579-1.853-7.635-7.631c-0.082-8.489-0.175-16.984,0.06-25.468c0.085-3.073-0.915-3.761-3.761-3.627
			c-4.736,0.223-9.492,0.132-14.236,0.025c-1.906-0.043-2.586,0.483-2.565,2.509c0.102,9.987-0.19,19.984,0.118,29.962
			c0.285,9.254,3.91,17.173,11.082,23.273c4.053,3.447,8.762,5.348,14.068,5.195c2.758-0.079,3.273,0.909,3.24,3.422
			c-0.135,9.986,0.046,19.979-0.121,29.963c-0.048,2.832,0.789,3.678,3.59,3.551c4.861-0.219,9.742-0.127,14.611-0.027
			c1.954,0.039,2.629-0.645,2.594-2.598C239.449,141.951,239.513,136.582,239.512,131.212z"/>
		<path fill-rule="evenodd" clip-rule="evenodd" fill="#040404" d="M296.298,112.627c0,11.364,0.058,22.728-0.047,34.091
			c-0.022,2.373,0.517,3.34,3.104,3.227c4.738-0.209,9.504-0.26,14.236,0.012c2.998,0.174,3.452-0.994,3.441-3.641
			c-0.096-22.227,0.005-44.455-0.125-66.683c-0.018-3.038,0.646-4.091,3.856-3.95c6.235,0.272,12.495-0.061,18.734,0.146
			c2.71,0.09,3.349-0.812,3.27-3.369c-0.181-5.864-0.128-11.738-0.019-17.605c0.038-1.973-0.318-2.813-2.585-2.804
			c-22.362,0.085-44.726,0.068-67.089,0.019c-1.717-0.003-2.404,0.322-2.365,2.24c0.127,6.366,0.133,12.738,0,19.104
			c-0.045,2.155,0.902,2.402,2.681,2.382c6.62-0.077,13.245,0.069,19.863-0.083c2.498-0.058,3.131,0.753,3.103,3.201
			C296.225,90.149,296.299,101.388,296.298,112.627z"/>
		<path fill-rule="evenodd" clip-rule="evenodd" fill="#5B5A5A" d="M78.766,6.539c1.078,7.078-2.953,9.873-9.057,11.645
			c-5.121,1.486-10.01,3.813-14.939,5.915c-2.93,1.25-5.319,0.958-7.262-1.68c-0.223-0.301-0.466-0.587-0.715-0.867
			c-5.859-6.556-5.881-6.581-12.71-1.11c-6.159,4.934-11.681,10.498-16.604,16.682c-1.322,1.66-1.173,2.48,0.352,3.871
			c6.612,6.028,6.537,6.059,12.347-0.449c4.422-4.954,9.478-9.203,14.808-13.151c1.523-1.129,2.423-1.411,3.973,0.272
			c7.291,7.921,4.754,8.782,16.757,3.61c4.004-1.725,8.103-3.244,12.216-4.696c2.734-0.965,3.877-2.59,3.825-5.58
			c-0.157-9.106-1.364-9.375,9.392-9.234c2.615,0.034,5.232,0.018,7.848,0.024c2.649-1.592,5.548-0.398,8.313-0.729
			c1.75-0.209,3.679,0.834,5.223-0.777c0.034-0.371,0.104-0.742,0.098-1.112c-0.163-8.95-0.164-8.95-9.15-8.583
			c-0.994,1.1-2.316,0.682-3.509,0.693C95.624,1.328,91.26,1.556,86.94,1.229C82.652,0.905,79.414,1.561,78.766,6.539z"/>
		<path fill-rule="evenodd" clip-rule="evenodd" fill="#5B5A5A" d="M33.04,58.931c-0.968-2.109-5.15-2.811-2.79-6.374
			c-0.131-0.209-0.231-0.451-0.402-0.624c-3.086-3.133-3.045-3.109-5.133,0.776c-2.948,5.49-5.838,10.995-7.426,17.078
			c-0.963,3.693-3.537,5.099-7.222,5.209C0.137,75.292,0.106,75.344-0.01,85.312c-0.066,5.861,0.113,11.727-0.06,17.584
			c-0.105,3.568,1.7,4.612,4.819,4.545c5.008-0.107,4.991-0.095,5.014-5.014c0.027-5.984,0.168-11.971,0.097-17.954
			c-0.033-2.778,0.861-4.479,3.848-4.043c7.515,1.098,11.98-1.509,13.561-9.411C28.132,66.703,30.776,62.809,33.04,58.931z"/>
		<path fill-rule="evenodd" clip-rule="evenodd" fill="#5F5E5E" d="M112.529,10.285c-1.544,1.611-3.473,0.567-5.223,0.777
			c-2.765,0.331-5.663-0.863-8.313,0.729c2.703,0.689,5.451,0.239,8.176,0.294c4.889,0.097,5.256,0.414,5.34,5.376
			c0.015,0.872,0.064,1.743,0.098,2.614c2.791,1.083,1.734,3.868,2.572,5.817c4.314,1.622,8.715,3.05,12.93,4.899
			c9.598,4.211,9.604,4.34,17.147-2.904c1.409-1.353,2.387-1.254,3.848-0.289c3.243,2.144,6.063,4.807,9.132,7.151
			c3.326,2.542,4.426,5.49,3.088,9.402c0.48,0.659,0.963,1.318,1.445,1.978c0.439,0.288,0.878,0.575,1.317,0.863
			c1.61-5.146,1.817-10.505,2.388-15.808c0.129-1.19-0.323-2.127-1.16-3.003c-3.97-4.159-8.369-7.778-13.146-10.982
			c-1.831-1.229-3.077-1.044-4.438,0.602c-1.344,1.626-2.953,3.035-4.3,4.659c-2.169,2.616-4.63,3.08-7.585,1.443
			c-5.35-2.961-11.067-5.08-16.808-7.102C115.734,15.638,113.406,13.75,112.529,10.285z"/>
		<path fill-rule="evenodd" clip-rule="evenodd" fill="#666565" d="M222.771,172.903c-0.003,3.498,0.019,6.996-0.013,10.492
			c-0.012,1.346-0.009,2.414,1.889,2.404c1.826-0.01,1.969-0.965,1.962-2.369c-0.032-6.121-0.067-12.242,0.027-18.361
			c0.022-1.443-0.865-3.973,1.358-3.986c2.525-0.014,1.588,2.637,1.619,4.186c0.108,5.492-0.052,10.992,0.106,16.484
			c0.04,1.404-1.312,3.898,1.752,3.967c3.45,0.074,1.832-2.693,1.88-4.125c0.195-5.863,0.059-11.736,0.102-17.607
			c0.008-1.152-0.478-2.877,1.311-3c2.17-0.148,1.664,1.805,1.678,3.023c0.068,6.244,0.019,12.49,0.043,18.736
			c0.006,1.41-0.484,3.123,2.033,3.033c2.295-0.084,1.751-1.676,1.758-2.928c0.037-6.494,0.064-12.99,0.001-19.484
			c-0.052-5.319-2.739-7.392-7.651-5.739c-1.171,0.395-1.82-0.016-2.726-0.295c-4.031-1.238-6.929,0.779-7.099,5.079
			C222.663,165.905,222.773,169.407,222.771,172.903z"/>
		<path fill-rule="evenodd" clip-rule="evenodd" fill="#666565" d="M416.238,172.475c-0.002-3.371,0.098-6.746-0.027-10.113
			c-0.156-4.228-3.182-6.39-7.123-4.954c-1.326,0.484-2.223,0.301-3.422-0.111c-3.186-1.09-6.059,0.252-6.527,3.577
			c-1.1,7.807-0.307,15.695-0.422,23.551c-0.023,1.529,1.203,1.262,2.166,1.33c1.596,0.113,1.809-0.871,1.805-2.141
			c-0.02-5.871-0.008-11.74-0.006-17.609c0.002-0.998-0.033-2,0.027-2.996c0.059-0.998,0.098-2.154,1.537-2.064
			c1.342,0.084,1.441,1.166,1.443,2.199c0.012,4.246,0.01,8.492,0.01,12.738c0.002,2.498,0.016,4.996-0.004,7.492
			c-0.01,1.297-0.113,2.451,1.838,2.426c1.797-0.023,2.006-0.928,1.996-2.359c-0.035-5.994-0.086-11.99,0.037-17.982
			c0.033-1.547-0.998-4.336,1.336-4.336c2.66,0,1.555,2.906,1.596,4.551c0.141,5.74,0.039,11.486,0.066,17.23
			c0.008,1.279-0.461,2.848,1.811,2.875c2.275,0.029,1.846-1.512,1.855-2.813C416.256,179.469,416.24,175.973,416.238,172.475z"/>
		<path fill-rule="evenodd" clip-rule="evenodd" fill="#666565" d="M373.791,172.719c-0.002,3.611,0.041,7.223-0.023,10.832
			c-0.027,1.541,0.427,2.25,2.11,2.238c1.747-0.014,1.655-1.076,1.651-2.229c-0.003-1.619-0.055-3.24,0.022-4.855
			c0.054-1.137-0.478-2.82,1.419-2.869c2.209-0.057,1.535,1.82,1.609,3.041c0.1,1.611,0.066,3.236,0.018,4.854
			c-0.041,1.34,0.326,2.07,1.875,2.055c1.521-0.016,1.883-0.709,1.877-2.063c-0.037-7.348,0.1-14.697-0.086-22.039
			c-0.08-3.156-2.068-5.081-5.332-5.034c-3.293,0.047-4.994,2.058-5.109,5.237C373.692,165.493,373.793,169.108,373.791,172.719z
			 M377.424,166.592c0-1.246-0.014-2.494,0.004-3.742c0.016-1.043,0.195-2.199,1.406-2.297c1.415-0.115,1.874,1.074,1.904,2.258
			c0.066,2.617,0.029,5.238,0.021,7.859c-0.004,1.076-0.606,1.564-1.649,1.568c-1.029,0.004-1.668-0.428-1.676-1.529
			C377.422,169.338,377.43,167.965,377.424,166.592z"/>
		<path fill-rule="evenodd" clip-rule="evenodd" fill="#6B6A6A" d="M520.977,172.698c0.002,3.615,0.041,7.23-0.018,10.846
			c-0.025,1.496,0.322,2.318,2.063,2.256c1.584-0.059,1.811-0.908,1.795-2.176c-0.025-2.119-0.004-4.238,0.027-6.357
			c0.014-0.807,0.27-1.475,1.26-1.482c0.996-0.008,1.258,0.646,1.268,1.467c0.023,1.994,0.072,3.99,0.012,5.982
			c-0.049,1.553,0.125,2.629,2.148,2.574c1.775-0.049,2.002-0.941,1.994-2.373c-0.033-6.98,0.07-13.963-0.053-20.943
			c-0.066-3.678-2.254-5.872-5.398-5.901c-3.152-0.029-5.027,2.136-5.088,6.011C520.932,165.965,520.975,169.331,520.977,172.698z
			 M527.309,166.366c0.02,0,0.039,0,0.059,0c0,1.496,0.031,2.992-0.012,4.484c-0.025,0.873-0.504,1.342-1.439,1.271
			c-0.805-0.061-1.057-0.633-1.061-1.262c-0.012-2.988,0.014-5.977,0.068-8.963c0.012-0.711,0.549-1.201,1.193-1.213
			c0.658-0.012,1.162,0.488,1.18,1.201C527.336,163.379,527.309,164.874,527.309,166.366z"/>
		<path fill-rule="evenodd" clip-rule="evenodd" fill="#6B6A6A" d="M354.971,172.903c0,3.494,0.02,6.99-0.01,10.484
			c-0.012,1.373,0.08,2.41,1.938,2.416c2.026,0.006,1.743-1.297,1.745-2.514c0.008-6.367-0.018-12.732,0.021-19.1
			c0.008-1.281-0.441-3.215,1.582-3.156c2.053,0.061,1.357,2.047,1.372,3.256c0.073,6.115,0.007,12.232,0.054,18.35
			c0.011,1.348-0.633,3.105,1.917,3.17c2.403,0.061,2.162-1.434,2.16-2.951c-0.007-6.49,0.041-12.982-0.022-19.473
			c-0.04-4.168-2.166-6.603-5.535-6.583c-3.395,0.02-5.195,2.327-5.221,6.737C354.955,166.661,354.969,169.782,354.971,172.903z"/>
		<path fill-rule="evenodd" clip-rule="evenodd" fill="#5F5E5E" d="M508.148,171.288c0,3.871,0.139,7.748-0.051,11.609
			c-0.117,2.398,0.781,2.912,3.014,2.9c6.016-0.029,7.461-1.357,7.467-7.484c0.008-6.117,0.027-12.236-0.018-18.354
			c-0.01-1.25,0.514-2.919-1.746-2.983c-2.264-0.063-1.846,1.571-1.859,2.854c-0.064,5.867-0.076,11.736-0.109,17.604
			c-0.006,0.875,0.016,1.75-0.035,2.621c-0.061,1.096-0.449,2.053-1.754,1.9c-1.307-0.154-0.893-1.32-0.898-2.092
			c-0.037-6.119-0.02-12.236-0.02-18.355c0-0.873-0.037-1.75,0.006-2.621c0.066-1.431-0.607-2.021-2.01-2.028
			c-1.445-0.008-2.002,0.688-1.994,2.067C508.164,163.047,508.15,167.167,508.148,171.288z"/>
		<path fill-rule="evenodd" clip-rule="evenodd" fill="#636262" d="M386.188,171.506c0,3.984,0.076,7.971-0.033,11.953
			c-0.05,1.791,0.564,2.271,2.333,2.342c6.493,0.256,8.218-1.313,8.22-7.871c0.002-5.105,0.076-10.211-0.023-15.314
			c-0.082-4.354-5.764-7.622-9.641-5.679c-1.221,0.611-0.824,1.698-0.836,2.616C386.162,163.538,386.188,167.522,386.188,171.506z
			 M389.936,171.477c0-2.869-0.019-5.738,0.012-8.607c0.008-0.826-0.193-1.936,1.039-2.045c1.172-0.102,1.971,0.711,1.982,1.803
			c0.063,5.859,0.053,11.719-0.023,17.578c-0.012,0.881-0.658,1.674-1.699,1.676c-1.546,0.004-1.286-1.24-1.3-2.17
			C389.905,176.967,389.932,174.221,389.936,171.477z"/>
		<path fill-rule="evenodd" clip-rule="evenodd" fill="#666565" d="M489.129,172.627c0-3.49,0.092-6.984-0.025-10.471
			c-0.117-3.545-2.094-5.53-5.234-5.544c-3.072-0.014-5.176,2.06-5.225,5.56c-0.1,7.105-0.008,14.213-0.051,21.318
			c-0.01,1.477,0.26,2.344,2.031,2.287c1.688-0.053,1.693-1.059,1.684-2.248c-0.016-1.744-0.035-3.49,0.012-5.234
			c0.029-1.053-0.32-2.457,1.389-2.521c1.998-0.074,1.582,1.508,1.625,2.674c0.053,1.494-0.01,2.992,0.021,4.488
			c0.025,1.309-0.379,2.783,1.85,2.859c2.246,0.076,1.936-1.348,1.938-2.695c0.004-3.492,0.002-6.982,0.002-10.473
			C489.139,172.627,489.135,172.627,489.129,172.627z M485.336,166.471c0,1.496,0.043,2.994-0.016,4.49
			c-0.037,0.898-0.658,1.256-1.525,1.248c-0.873-0.01-1.477-0.393-1.479-1.293c-0.01-2.992-0.018-5.988,0.113-8.975
			c0.029-0.678,0.564-1.477,1.469-1.436c0.844,0.039,1.359,0.691,1.404,1.475C485.391,163.473,485.328,164.973,485.336,166.471z"/>
		<path fill-rule="evenodd" clip-rule="evenodd" fill="#6B6A6A" d="M293.844,171.176c0.002-2.744-0.018-5.488,0.012-8.23
			c0.01-0.887,0.146-1.896,1.246-1.996c1.384-0.125,1.557,1.023,1.605,2.025c0.08,1.617,0.053,3.242,0.047,4.863
			c-0.004,1.271,0.326,2.166,1.854,2.215c1.467,0.045,2.017-0.623,1.99-2.014c-0.039-2.119,0.141-4.256-0.072-6.355
			c-0.305-3.014-2.132-4.737-5.188-4.858c-2.987-0.117-5.151,1.942-5.207,5.136c-0.106,6.234-0.082,12.473-0.002,18.709
			c0.041,3.299,1.895,4.961,5.183,5.104c3.284,0.143,4.806-1.754,5.209-4.676c0.237-1.715,0.093-3.486,0.063-5.23
			c-0.018-1.061,0.355-2.482-1.317-2.592c-1.316-0.088-2.962-0.66-3.874,0.582c-0.732,0.996-0.65,2.305,0.723,3.201
			c0.978,0.639,0.662,1.814,0.584,2.777c-0.066,0.836-0.137,1.924-1.252,2.002c-1.356,0.094-1.565-1.055-1.585-2.057
			C293.807,176.915,293.842,174.045,293.844,171.176z"/>
		<path fill-rule="evenodd" clip-rule="evenodd" fill="#666565" d="M252.644,172.717c-0.001-3.363,0.067-6.729-0.019-10.09
			c-0.096-3.74-2.094-5.956-5.232-6.017c-3.135-0.061-5.197,2.169-5.23,5.909c-0.063,6.852-0.02,13.703-0.021,20.557
			c-0.001,1.371-0.242,2.73,1.954,2.723c2.259-0.006,1.862-1.459,1.878-2.773c0.022-1.867,0.012-3.736,0.017-5.605
			c0.003-0.943,0.147-1.738,1.396-1.689c1.122,0.043,1.53,0.688,1.544,1.686c0.023,1.744-0.029,3.49,0.043,5.232
			c0.057,1.359-0.604,3.188,1.938,3.117c2.283-0.064,1.692-1.721,1.714-2.957C252.682,179.446,252.645,176.083,252.644,172.717z
			 M245.951,166.59c0-1.373,0.004-2.744-0.002-4.119c-0.004-0.953,0.285-1.84,1.301-1.961c1.087-0.129,1.588,0.826,1.624,1.688
			c0.12,2.865,0.118,5.736,0.095,8.604c-0.01,1.094-0.773,1.447-1.785,1.422c-1.023-0.025-1.205-0.721-1.221-1.514
			C245.938,169.338,245.955,167.963,245.951,166.59z"/>
		<path fill-rule="evenodd" clip-rule="evenodd" fill="#5F5E5E" d="M271.264,171.342c0-2.994,0.115-5.994-0.027-8.98
			c-0.202-4.206-5.82-7.313-9.527-5.397c-1.016,0.525-0.859,1.427-0.861,2.265c-0.016,8.109,0.017,16.217-0.032,24.326
			c-0.01,1.537,0.407,2.121,2.079,2.238c6.311,0.441,8.15-1.086,8.306-7.342c0.059-2.369,0.009-4.74,0.009-7.109
			C271.228,171.342,271.246,171.342,271.264,171.342z M264.602,171.44c0-2.871-0.035-5.742,0.022-8.611
			c0.016-0.775-0.429-1.955,0.808-2.158c1.121-0.186,2.073,0.557,2.089,1.658c0.086,5.98,0.082,11.965,0.011,17.947
			c-0.01,0.879-0.705,1.631-1.739,1.652c-1.358,0.025-1.161-1.064-1.173-1.879C264.583,177.18,264.605,174.309,264.602,171.44z"/>
		<path fill-rule="evenodd" clip-rule="evenodd" fill="#666565" d="M352.973,171.37c0-2.984,0.146-5.979-0.038-8.951
			c-0.229-3.682-2.493-5.78-5.644-5.585c-3.114,0.193-4.729,2.136-4.755,5.909c-0.042,5.844-0.003,11.689-0.017,17.535
			c-0.008,3.215,1.353,5.236,4.74,5.469c3.197,0.221,5.389-1.594,5.647-5.055c0.229-3.092,0.048-6.213,0.048-9.322
			C352.961,171.37,352.967,171.37,352.973,171.37z M348.979,171.276c0,2.854,0.029,5.707-0.016,8.559
			c-0.016,0.971-0.038,2.148-1.478,2.076c-1.086-0.055-1.414-0.99-1.42-1.873c-0.036-5.828-0.04-11.656,0.009-17.484
			c0.008-0.902,0.466-1.732,1.576-1.693c1.182,0.041,1.303,0.969,1.311,1.859C348.983,165.571,348.969,168.424,348.979,171.276z"/>
		<path fill-rule="evenodd" clip-rule="evenodd" fill="#666565" d="M199.056,178.702c0.254-3.297-1.001-6.133-3.449-8.559
			c-2.094-2.072-3.643-4.447-3.197-7.617c0.108-0.768,0.335-1.543,1.237-1.615c1.129-0.094,1.313,0.736,1.541,1.662
			c0.412,1.678-1.359,5.143,2.484,4.266c2.884-0.66,1.287-3.588,1.197-5.414c-0.152-3.084-2.262-4.647-5.301-4.556
			c-2.902,0.09-4.59,1.849-4.973,4.653c-0.53,3.9,0.389,7.385,3.267,10.273c2.058,2.064,3.747,4.354,3.327,7.561
			c-0.143,1.09,0.078,2.525-1.503,2.484c-1.278-0.033-1.237-1.336-1.315-2.316c-0.049-0.619-0.049-1.244-0.027-1.867
			c0.042-1.309-0.667-1.713-1.865-1.709c-1.143,0.004-1.949,0.256-1.947,1.621c0.005,2.605-0.383,5.33,2.066,7.209
			c1.751,1.344,3.777,1.428,5.643,0.5C198.844,183.983,199.203,181.479,199.056,178.702z"/>
		<path fill-rule="evenodd" clip-rule="evenodd" fill="#666565" d="M452.885,178.418c0.527-3.215-1.291-5.838-3.514-8.334
			c-1.656-1.861-3.428-3.707-3.184-6.512c0.092-1.066-0.256-2.52,1.344-2.625c1.537-0.1,1.66,1.186,1.668,2.371
			c0.006,0.748,0.023,1.496,0.021,2.244c-0.004,1.164,0.678,1.455,1.701,1.436c0.93-0.02,1.871-0.063,1.895-1.254
			c0.055-2.697,0.719-5.58-1.793-7.665c-1.828-1.518-3.941-1.73-5.947-0.602c-2.611,1.47-3.121,4.042-2.885,6.808
			c0.266,3.117,1.674,5.678,3.832,7.908c1.943,2.01,3.502,4.223,3.193,7.271c-0.119,1.18-0.18,2.441-1.689,2.387
			c-1.328-0.049-1.266-1.307-1.326-2.289c-0.047-0.746-0.012-1.498-0.045-2.246c-0.053-1.172-0.852-1.4-1.811-1.35
			c-0.828,0.043-1.953-0.234-2.074,1.006c-0.258,2.625-0.393,5.281,1.654,7.4c1.699,1.76,3.877,1.842,5.893,1.018
			c2.488-1.018,3.279-3.25,3.07-5.854C452.867,179.29,452.885,179.04,452.885,178.418z"/>
		<path fill-rule="evenodd" clip-rule="evenodd" fill="#5F5E5E" d="M466.275,171.809c0,3.863,0.021,7.727-0.014,11.59
			c-0.012,1.398,0.146,2.43,1.969,2.355c1.787-0.072,1.506-1.293,1.518-2.363c0.027-2.742,0.002-5.484,0.02-8.227
			c0.006-1.01-0.014-2.162,1.445-2.086c1.133,0.059,1.805,0.781,1.814,1.967c0.021,2.865,0.045,5.732,0.018,8.598
			c-0.012,1.256,0.129,2.146,1.771,2.127c1.566-0.018,1.973-0.797,1.826-2.104c-0.438-3.896,1.133-8-1.105-11.691
			c-0.547-0.902,0.043-1.303,0.342-1.926c1.371-2.848,0.957-5.91,0.598-8.818c-0.426-3.448-6.604-5.948-9.408-4.093
			c-1.053,0.697-0.756,1.763-0.764,2.706c-0.037,3.988-0.016,7.977-0.016,11.965C466.285,171.809,466.279,171.809,466.275,171.809z
			 M469.701,165.442c0-0.893-0.074-1.527,0.018-2.135c0.148-0.982-0.615-2.586,1.098-2.66c1.629-0.07,2.359,1.143,2.293,2.766
			c-0.02,0.498,0.063,1.004-0.01,1.492c-0.26,1.777,0.963,4.75-2.1,4.6C468.51,169.379,470.309,166.618,469.701,165.442z"/>
		<path fill-rule="evenodd" clip-rule="evenodd" fill="#666565" d="M170.205,164.213c-0.451,3.174,1.446,5.643,3.608,7.965
			c2.132,2.291,3.542,4.811,2.948,8.08c-0.141,0.768-0.381,1.518-1.271,1.609c-1.171,0.121-1.302-0.793-1.569-1.664
			c-0.479-1.555,1.292-4.857-2.294-4.1c-2.89,0.611-1.341,3.564-1.282,5.355c0.089,2.676,1.965,4.135,4.727,4.305
			c2.773,0.17,4.623-1.064,5.262-3.717c1.096-4.549,0.15-8.623-3.217-12.043c-1.863-1.893-3.5-3.93-3.217-6.852
			c0.096-0.979-0.055-2.18,1.342-2.252c1.354-0.07,1.531,1.008,1.567,2.064c0.03,0.873,0.015,1.746,0.061,2.617
			s0.521,1.375,1.417,1.383c0.729,0.006,1.502,0.17,2.075-0.51c1.271-1.504,0.071-7.168-1.829-8.61
			c-2.236-1.699-5.631-1.209-7.351,1.06C170.262,160.12,170.177,160.551,170.205,164.213z"/>
		<path fill-rule="evenodd" clip-rule="evenodd" fill="#666565" d="M312.77,181.981c1.287,3.068,3.592,4.514,6.822,3.623
			c3.203-0.885,3.605-3.508,3.713-6.494c0.131-3.639-1.045-6.516-3.514-9.057c-1.842-1.896-3.445-3.963-3.236-6.854
			c0.072-1.008,0.095-2.15,1.422-2.23c1.371-0.084,1.503,1.02,1.541,2.057c0.031,0.869,0.016,1.74,0.036,2.609
			c0.028,1.188,0.828,1.379,1.784,1.357c0.746-0.016,1.419-0.021,1.807-0.91c1.025-2.357-0.23-7.232-2.261-8.483
			c-2.737-1.689-5.702-0.713-8.06,2.653c-0.527,4.826,0.487,9.084,4.199,12.551c1.048,0.977,2.045,2.389,2.299,3.744
			c0.334,1.787,1.307,4.754-1.055,5.203c-2.582,0.492-1.607-2.428-1.74-3.936c-0.134-1.516-0.829-1.848-2.159-1.834
			c-1.361,0.016-1.685,0.744-1.655,1.898C312.75,179.247,312.752,180.614,312.77,181.981z"/>
		<path fill-rule="evenodd" clip-rule="evenodd" fill="#636262" d="M424.229,172.446c0.002,3.367-0.068,6.738,0.037,10.104
			c0.039,1.264-0.865,3.295,1.787,3.182c2.57-0.111,1.613-2.111,1.633-3.359c0.094-6.111,0.016-12.225,0.066-18.336
			c0.01-1.256-0.467-3.182,1.645-3.061c1.803,0.102,1.227,1.893,1.236,3.014c0.059,6.361,0.035,12.723,0.025,19.086
			c-0.002,1.4-0.201,2.77,1.988,2.703c2.039-0.063,1.68-1.414,1.682-2.6c0.018-6.986,0.049-13.973-0.01-20.959
			c-0.027-3.25-1.99-5.278-4.945-5.366c-3.18-0.094-5.064,1.866-5.133,5.487C424.18,165.708,424.229,169.077,424.229,172.446z"/>
		<path fill-rule="evenodd" clip-rule="evenodd" fill="#5F5E5E" d="M212.033,171.432c0,3.984,0.066,7.971-0.029,11.955
			c-0.042,1.729,0.441,2.523,2.299,2.385c1.733-0.131,3.486-0.072,5.229-0.016c1.342,0.041,2.142-0.314,2.055-1.865
			c-0.069-1.227-0.599-1.672-1.821-1.838c-1.313-0.178-3.478,0.986-3.777-1.045c-0.393-2.662-0.204-5.465,0.156-8.152
			c0.139-1.031,1.74-0.492,2.682-0.57c1.205-0.1,2.625,0.27,2.729-1.646c0.108-1.986-1.333-1.639-2.541-1.795
			c-1.102-0.141-2.856,0.713-3.064-1.111c-0.249-2.191-0.66-4.551,0.282-6.613c0.468-1.023,2.052-0.453,3.132-0.506
			c1.283-0.064,2.172-0.426,2.217-1.904c0.047-1.544-0.882-1.89-2.163-1.86c-0.249,0.006-0.499-0.006-0.747-0.002
			c-8.076,0.129-6.402-0.953-6.625,6.366C211.963,165.952,212.031,168.692,212.033,171.432z"/>
		<path fill-rule="evenodd" clip-rule="evenodd" fill="#5F5E5E" d="M273.189,171.866c-0.004,3.734,0.105,7.473-0.045,11.201
			c-0.088,2.166,0.707,2.889,2.791,2.705c1.607-0.141,3.236-0.068,4.854-0.023c1.282,0.037,1.788-0.537,1.749-1.785
			c-0.037-1.17-0.439-1.76-1.734-1.906c-1.334-0.15-3.521,0.943-3.83-1.012c-0.42-2.646-0.252-5.467,0.176-8.131
			c0.186-1.16,1.966-0.574,3.028-0.621c1.194-0.053,2.261-0.059,2.342-1.666c0.083-1.658-1.015-1.918-2.19-1.727
			c-3.637,0.59-3.596-1.592-3.592-4.213c0.004-2.615-0.055-4.824,3.592-4.215c1.266,0.211,2.209-0.242,2.186-1.781
			c-0.024-1.556-1.031-1.655-2.266-1.759c-7.063-0.596-7.061-0.621-7.059,6.345C273.193,166.141,273.191,169.002,273.189,171.866z"
			/>
		<path fill-rule="evenodd" clip-rule="evenodd" fill="#666565" d="M311.033,182.067c-1.119,0.016-2.241-0.018-3.355,0.061
			c-1.556,0.107-2.334-0.451-2.221-2.117c0.086-1.236,0.137-2.5-0.011-3.725c-0.35-2.904,0.448-4.568,3.769-4.07
			c1.274,0.191,2.188-0.26,2.133-1.811c-0.055-1.527-1.193-1.492-2.128-1.367c-5.065,0.68-3.455-3.02-3.767-5.545
			c-0.423-3.436,1.896-3.066,4.029-3.061c0.619,0,1.236-0.113,1.854-0.176c0.581-2.706-0.647-3.438-3.22-3.364
			c-7.582,0.219-6.291-0.883-6.369,6.237c-0.07,6.455,0.105,12.916-0.078,19.365c-0.074,2.619,0.713,3.639,3.323,3.289
			c1.099-0.146,2.243-0.123,3.349-0.006C311.465,186.11,312.058,184.696,311.033,182.067z"/>
		<path fill-rule="evenodd" clip-rule="evenodd" fill="#6B6A6A" d="M497.752,173.428c0-2.867-0.029-5.734,0.012-8.6
			c0.025-1.863-0.697-4.092,2.428-4.424c0.998-0.107,0.785-1.4,0.729-2.255c-0.08-1.156-0.912-1.352-1.854-1.354
			c-2.246-0.004-4.49-0.006-6.734-0.002c-0.945,0-1.764,0.23-1.914,1.338c-0.139,1.024-0.154,2.317,1.105,2.384
			c2.73,0.143,2.346,1.973,2.344,3.693c-0.004,6.23-0.018,12.463,0.012,18.693c0.008,1.275-0.461,2.822,1.807,2.891
			c2.479,0.074,2.049-1.584,2.061-3.018C497.768,179.659,497.752,176.543,497.752,173.428z"/>
		<path fill-rule="evenodd" clip-rule="evenodd" fill="#6B6A6A" d="M328.209,173.37c0.001,3.361,0.024,6.723-0.01,10.082
			c-0.014,1.371,0.066,2.393,1.935,2.352c1.878-0.041,1.882-1.135,1.879-2.465c-0.015-6.348-0.019-12.697,0.003-19.045
			c0.006-1.65-0.561-3.598,2.209-3.807c1.061-0.078,0.979-1.271,0.945-2.145c-0.042-1.077-0.686-1.534-1.705-1.536
			c-2.365-0.006-4.731-0.008-7.098,0c-1.025,0.004-1.652,0.475-1.671,1.554c-0.017,1.008-0.083,2.182,1.314,2.236
			c2.483,0.1,2.205,1.816,2.2,3.438C328.203,167.145,328.209,170.258,328.209,173.37z"/>
		<path fill-rule="evenodd" clip-rule="evenodd" fill="#636262" d="M207.76,173.237c0-2.871-0.024-5.742,0.009-8.613
			c0.022-1.859-0.741-4.15,2.503-4.254c1-0.031,1.248-1.102,1.094-2.055c-0.169-1.044-0.91-1.44-1.876-1.452
			c-2.372-0.025-4.745-0.008-7.118-0.031c-1.012-0.01-1.715,0.338-1.785,1.437c-0.063,1.008-0.146,2.248,1.239,2.279
			c2.636,0.061,2.114,1.895,2.119,3.436c0.019,6.365,0.013,12.732,0.005,19.1c-0.002,1.398-0.193,2.725,1.989,2.711
			c2.322-0.014,1.792-1.561,1.808-2.818C207.786,179.729,207.76,176.483,207.76,173.237z"/>
		<path fill-rule="evenodd" clip-rule="evenodd" fill="#5F5E5E" d="M461.451,172.991c0-2.488-0.1-4.984,0.029-7.467
			c0.109-2.094-1.162-4.936,2.645-5.35c0.775-0.084,0.691-1.201,0.611-1.947c-0.094-0.878-0.646-1.327-1.494-1.337
			c-2.365-0.025-4.732-0.021-7.098-0.012c-0.977,0.006-1.695,0.357-1.74,1.481c-0.043,1.045-0.029,2.084,1.398,2.119
			c2.264,0.057,2.076,1.662,2.076,3.176c-0.002,6.473-0.02,12.945,0.018,19.418c0.008,1.127-0.479,2.58,1.576,2.689
			c2.191,0.115,1.98-1.303,1.979-2.688C461.445,179.713,461.449,176.352,461.451,172.991z"/>
		<path fill-rule="evenodd" clip-rule="evenodd" fill="#5F5E5E" d="M35.295,132.534c-0.335-0.845-0.67-1.689-1.004-2.534
			c-1.501,0.053-2.148-0.947-2.7-2.125c-1.829-3.901-3.729-7.771-5.011-11.902c-1.287-0.207-2.572-0.413-3.848-0.617
			c-0.152-0.009-0.315-0.008-0.479,0.004c-1.148,0.199-2.299,0.4-3.447,0.6c0.7,1.708,1.641,3.359,2.062,5.135
			C22.684,128.749,28.237,131.556,35.295,132.534z"/>
		<path fill-rule="evenodd" clip-rule="evenodd" fill="#636262" d="M502.471,171.452c0.002,3.984,0.016,7.969-0.006,11.953
			c-0.008,1.311-0.078,2.434,1.855,2.385c1.906-0.047,1.834-1.188,1.83-2.486c-0.008-7.844,0-15.689-0.006-23.533
			c0-1.232,0.209-2.519-1.73-2.614c-2.232-0.109-1.938,1.368-1.941,2.716C502.465,163.731,502.471,167.59,502.471,171.452z"/>
		<path fill-rule="evenodd" clip-rule="evenodd" fill="#5F5E5E" d="M436.555,171.487c0.002,3.867,0.012,7.736-0.004,11.604
			c-0.006,1.422-0.15,2.719,2.016,2.697c2.012-0.021,1.762-1.254,1.762-2.486c0.002-7.859,0.006-15.721-0.006-23.584
			c0-1.211,0.273-2.522-1.732-2.554c-2.129-0.033-2.049,1.276-2.043,2.718C436.564,163.749,436.553,167.618,436.555,171.487z"/>
		<path fill-rule="evenodd" clip-rule="evenodd" fill="#666565" d="M186.54,171.35c0.001-3.98-0.023-7.959,0.013-11.939
			c0.014-1.481-0.383-2.327-2.107-2.257c-1.775,0.072-1.541,1.274-1.543,2.351c-0.017,7.959-0.005,15.92-0.016,23.879
			c-0.002,1.291-0.111,2.455,1.834,2.41c1.916-0.045,1.824-1.219,1.822-2.504C186.535,179.309,186.54,175.331,186.54,171.35z"/>
		<path fill-rule="evenodd" clip-rule="evenodd" fill="#5F5E5E" d="M340.137,171.282c0-3.865,0.004-7.73-0.002-11.596
			c-0.002-1.277,0.082-2.579-1.857-2.481c-1.68,0.084-1.6,1.239-1.601,2.37c-0.013,7.979-0.013,15.959-0.023,23.938
			c-0.002,1.182-0.001,2.209,1.687,2.244c1.987,0.039,1.791-1.262,1.793-2.506C340.141,179.26,340.136,175.27,340.137,171.282z"/>
		<path fill-rule="evenodd" clip-rule="evenodd" fill="#5B5A5A" d="M418.344,171.481c0,3.861-0.023,7.723,0.016,11.584
			c0.012,1.15-0.418,2.58,1.605,2.68c1.971,0.096,1.834-1.158,1.832-2.439c-0.004-7.848,0.008-15.695-0.008-23.543
			c-0.002-1.217,0.227-2.62-1.768-2.542c-1.947,0.074-1.662,1.476-1.67,2.675C418.328,163.756,418.344,167.62,418.344,171.481z"/>
		<path fill-rule="evenodd" clip-rule="evenodd" fill="#EB6748" d="M164.087,46.991c-0.439-0.288-0.878-0.575-1.317-0.863
			c0.104,5.084-0.864,10.041-1.855,14.99c-0.127,0.637-0.307,1.183,0.279,1.656c1.889-1.598,3.617-3.456,5.701-4.737
			c3.383-2.08,3.211-4.138,0.707-6.73C166.318,49.977,165.252,48.437,164.087,46.991z"/>
		<path fill-rule="evenodd" clip-rule="evenodd" fill="#5F5E5E" d="M78.766,6.539c0.648-4.978,3.887-5.634,8.175-5.31
			c4.319,0.327,8.684,0.099,13.027,0.054c1.192-0.012,2.515,0.406,3.509-0.693C96.205-0.397,88.9,0.11,81.621,0.301
			C78.687,0.377,77.832,2.741,78.766,6.539z"/>
		<path fill-rule="evenodd" clip-rule="evenodd" fill="#D82F17" d="M95.223,116.048c-0.057-7.865-0.041-15.734-0.216-23.598
			c-0.052-2.351,1.048-2.587,2.953-2.574c9.624,0.065,19.248,0.001,28.872,0.048c3.063,0.015,5.301-1.233,6.697-3.918
			c1.291-2.484,0.828-4.863-0.767-7.033c-1.354-1.841-3.272-2.603-5.541-2.602c-12.499,0.008-24.997-0.006-37.496,0.02
			c-1.019,0.001-2.417-0.436-2.511,1.369c0.756,0.843,0.538,1.882,0.539,2.858c0.01,18.096,0.01,36.192,0,54.288
			c0,0.978,0.215,2.016-0.535,2.861c0.012,0.469,0.023,0.936,0.035,1.404c9.269-1.248,17.73-4.813,25.798-9.307
			c5.653-3.15,10.747-7.176,15.788-11.23c0.74-0.596,1.787-1.141,0.878-2.373c-11.237,0.036-22.474,0.073-33.711,0.11
			C95.527,116.793,95.303,116.599,95.223,116.048z"/>
		<path fill-rule="evenodd" clip-rule="evenodd" fill="#EB6748" d="M87.219,137.767c0.75-0.846,0.535-1.884,0.535-2.861
			c0.01-18.096,0.01-36.191,0-54.288c-0.001-0.977,0.217-2.015-0.539-2.858c-0.074,16.032-0.164,32.063-0.207,48.095
			C86.998,129.826,87.145,133.796,87.219,137.767z"/>
		<path fill-rule="evenodd" clip-rule="evenodd" fill="#EB6748" d="M95.223,116.048c0.08,0.551,0.305,0.745,0.784,0.323
			C95.746,116.263,95.484,116.157,95.223,116.048z"/>
	</g>
</g>
</svg>
