<?xml version="1.0" encoding="utf-8"?>
<!-- Generator: Adobe Illustrator 16.0.3, SVG Export Plug-In . SVG Version: 6.00 Build 0)  -->
<!DOCTYPE svg PUBLIC "-//W3C//DTD SVG 1.1//EN" "http://www.w3.org/Graphics/SVG/1.1/DTD/svg11.dtd">
<svg version="1.1" id="Layer_1" xmlns="http://www.w3.org/2000/svg" xmlns:xlink="http://www.w3.org/1999/xlink" x="0px" y="0px"
	 width="326.97px" height="139px" viewBox="232.03 0 326.97 139" enable-background="new 232.03 0 326.97 139" xml:space="preserve"
	>
<path fill="#16AEDD" d="M238.993,80.469c-0.11-0.712-0.404-1.143-0.798-1.428c0.02,1.064,0.17,2.107,0.439,3.123
	C238.949,81.75,239.111,81.225,238.993,80.469z"/>
<path fill="#16AEDD" d="M276.246,75.24c-0.864-8.73-9.14-15.511-17.924-14.682c-8.926,0.845-15.689,9.176-14.699,18.111
	c0.989,8.917,9.03,15.364,17.959,14.397C270.515,92.104,277.117,84.077,276.246,75.24z M260.721,84.143
	c-3.805,0.448-7.199-2.336-7.618-6.259c-0.43-4.036,2.126-7.171,6.171-7.563c3.829-0.371,7.082,2.209,7.521,5.971
	C267.241,80.1,264.458,83.699,260.721,84.143z"/>
<path fill="#16AEDD" d="M310.764,32.407c-10.718,1.012-18.836,11.014-17.647,21.743c1.187,10.707,10.84,18.448,21.562,17.288
	c4.004-0.434,7.615-2.046,10.518-4.451l1.892-1.892l0.048,0.05c3.674-3.977,5.711-9.402,5.147-15.111
	c-0.423-4.264-2.317-8.14-5.126-11.173l-0.069,0.071l-2.077-2.077C321.088,33.673,316.001,31.912,310.764,32.407z M320.936,51.293
	c0.535,4.575-2.809,8.897-7.293,9.426c-4.567,0.54-8.645-2.807-9.146-7.512c-0.519-4.849,2.551-8.61,7.407-9.083
	C316.501,43.678,320.406,46.777,320.936,51.293z"/>
<path fill="#16AEDD" d="M241.354,87.641c0.215,0.291,0.439,0.578,0.673,0.862c-0.04-0.077-0.083-0.153-0.136-0.237
	C241.72,87.999,241.541,87.794,241.354,87.641z"/>
<path fill="#16AEDD" d="M309.395,80.693c-0.067-0.346-0.248-0.672-0.33-1.021c-0.303-1.25-0.459-2.387-2.181-2.758
	c-1.821-0.394-2.269,0.896-3.103,1.802c-0.911,0.987-1.403,2.479-3.383,1.491c-1.604-0.806-2.055-1.687-1.566-3.354
	c0.441-1.511,0.581-2.955-1.075-4.102c-1.591-1.102-2.725-0.16-3.875,0.545c-1.419,0.87-2.462,0.973-3.72-0.387
	c-1.237-1.337-0.66-2.247,0.102-3.417c0.731-1.124,1.865-2.104,0.772-3.822c-1.05-1.647-2.372-1.297-3.754-1.118
	c-1.386,0.183-2.53,0.205-3.208-1.411c-0.74-1.767,0.124-2.673,1.432-3.5c1.221-0.773,2.34-1.476,2.053-3.332
	c-0.295-1.905-1.684-2.141-3.047-2.467c-1.492-0.356-2.584-0.762-2.57-2.716c0.017-2.042,1.203-2.287,2.718-2.5
	c1.475-0.206,2.704-0.713,3.084-2.458c0.377-1.741-0.953-2.273-1.896-3.103c-1.019-0.897-2.273-1.388-1.41-3.381
	c0.904-2.092,2.207-1.744,3.707-1.41c1.459,0.323,2.625,0.462,3.672-1.11c0.955-1.44,0.457-2.418-0.256-3.551
	c-0.873-1.385-1.383-2.54,0.176-4.048c1.566-1.511,2.533-0.571,3.664,0.246c1.121,0.808,2.121,1.347,3.576,0.554
	c1.508-0.822,1.408-1.97,1.241-3.321c-0.183-1.467-0.706-2.89,1.505-3.692c2.295-0.833,2.726,0.826,3.518,1.99
	c0.847,1.246,1.766,1.566,3.275,1.385c1.609-0.192,1.771-1.25,2.195-2.346c0.18-0.457,0.238-0.982,0.361-1.465l-11.432-11.43
	c-0.979,0.181-1.967,0.436-2.967,0.766c-0.755,0.249-1.24,0.007-1.688-0.359c-3.047-2.502-6.627-3.349-10.065-3.518
	c-4.726,0.021-8.688,1.139-12.202,3.787c-0.788,0.593-1.497,1.47-2.684,1.416c-2.849-0.127-5.488,0.586-8.139,1.662
	c-5.107,2.074-8.781,5.529-10.899,10.56c-0.38,0.906-0.882,1.15-1.611,1.348c-3.617,0.992-6.458,2.936-8.458,6.216
	c-0.766,1.257-0.916,2.817-2.111,3.846c-3.49,3.007-5.397,6.917-6,11.407c-0.457,3.403-0.124,6.87-0.656,10.29
	c-0.745,4.776,1.715,10.945,6.504,13.24c0.156,0.074,0.28,0.144,0.387,0.215c0.036-0.108,0.068-0.221,0.094-0.342
	c0.314-1.447-0.793-1.891-1.577-2.583c-0.85-0.746-1.894-1.154-1.176-2.816c0.755-1.743,1.838-1.452,3.089-1.173
	c1.213,0.269,2.185,0.384,3.057-0.926c0.797-1.201,0.382-2.013-0.212-2.958c-0.727-1.153-1.151-2.114,0.149-3.371
	c1.303-1.258,2.107-0.477,3.05,0.204c0.932,0.672,1.767,1.122,2.979,0.461c1.253-0.684,1.171-1.641,1.032-2.767
	c-0.15-1.221-0.587-2.407,1.255-3.075c1.91-0.693,2.269,0.689,2.93,1.658c0.704,1.038,1.47,1.304,2.728,1.154
	c1.34-0.159,1.475-1.042,1.829-1.955c0.414-1.063,0.068-2.577,2.167-2.513c2.038,0.062,2.002,1.428,2.418,2.673
	c0.87,2.598,2.353,2.863,4.214,0.756c0.828-0.935,1.328-2.069,3.114-1.334c1.835,0.754,1.294,1.87,1.13,3.122
	c-0.132,1.015-0.576,2.035,0.772,2.831c1.248,0.736,2.193,0.614,3.253-0.16c1.164-0.85,2.131-0.938,3.309,0.26
	c1.318,1.337,0.191,2.103-0.317,3.061c-0.5,0.94-1.201,1.686-0.418,2.961c0.814,1.318,1.837,0.953,2.841,0.786
	c1.4-0.238,2.383-0.154,3,1.448c0.629,1.629-0.384,2.161-1.373,2.799c-1.063,0.687-1.761,1.383-1.51,2.875
	c0.248,1.477,1.286,1.554,2.305,1.888c1.07,0.347,2.407,0.321,2.266,2.136c-0.128,1.645-1.02,2.227-2.451,2.421
	c-0.977,0.136-1.964,0.191-2.293,1.468c-0.378,1.467,0.462,2.207,1.465,2.938c1,0.725,1.924,1.436,1.111,2.921
	c-0.473,0.864-0.875,1.599-2.026,1.315c-0.291-0.063-0.583-0.114-0.871-0.187c-1.215-0.288-2.256-0.334-3.142,0.901
	c-0.935,1.306-0.226,2.222,0.354,3.249c0.543,0.956,1.109,1.78-0.048,2.856c-1.106,1.03-1.947,0.973-3.106,0.207
	c-0.902-0.594-1.664-1.615-3.146-0.689c-1.572,0.984-1.007,2.197-0.86,3.398c0.136,1.092,0.077,1.938-1.164,2.357
	c-1.158,0.395-1.947,0.307-2.804-0.771c-2.119-2.668-3.311-2.975-4.441-0.783c0.159,0.035,0.323,0.065,0.494,0.088
	c0.699,0.093,0.634,0.334,0.442,0.918c-0.89,2.703-1.701,5.434-2.53,8.156c-0.35,1.151-0.353,2.28,0.128,3.42
	c1.089,2.576,2.496,4.982,3.796,7.446c0.432,0.817,1.083,1.019,1.993,0.843c1.455-0.281,1.716-1.394,2.092-2.554
	c1.464-4.522,2.462-9.208,4.537-13.526c2.009-4.178,4.55-7.885,9.048-9.768c0.941-0.395,1.914-0.715,2.834-1.148
	c2.344-1.102,3.783-3.149,4.508-5.438c0.654-2.064,0.939-1.729,2.425-0.635c2.774,2.039,5.83,3.541,9.165,4.349l9.087-9.087
	C309.718,81.803,309.518,81.318,309.395,80.693z M280.305,34.422c-0.074,0.927-0.577,1.257-1.385,1.368
	c-0.551,0.076-1.109,0.106-1.295,0.826c-0.215,0.83,0.26,1.249,0.828,1.661c0.563,0.41,1.086,0.811,0.627,1.651
	c-0.266,0.487-0.494,0.902-1.146,0.743c-0.164-0.034-0.328-0.065-0.492-0.105c-0.686-0.164-1.274-0.188-1.775,0.509
	c-0.526,0.738-0.127,1.255,0.201,1.835c0.307,0.542,0.627,1.006-0.026,1.614c-0.625,0.582-1.1,0.549-1.755,0.118
	c-0.511-0.336-0.939-0.913-1.776-0.39c-0.888,0.556-0.571,1.24-0.487,1.92c0.077,0.618,0.043,1.094-0.658,1.331
	c-0.653,0.223-1.099,0.173-1.583-0.435c-1.448-1.821-2.129-1.698-2.911,0.521c-0.226,0.641-0.537,0.864-1.186,0.913
	c-0.73,0.056-1.026-0.272-1.151-0.91c-0.031-0.164-0.116-0.316-0.155-0.48c-0.143-0.588-0.217-1.124-1.026-1.298
	c-0.856-0.184-1.068,0.421-1.459,0.848c-0.429,0.466-0.661,1.167-1.592,0.701c-0.755-0.378-0.966-0.792-0.737-1.579
	c0.208-0.71,0.274-1.392-0.506-1.93c-0.749-0.517-1.283-0.074-1.823,0.257c-0.667,0.41-1.159,0.457-1.75-0.181
	c-0.582-0.63-0.311-1.059,0.046-1.608c0.345-0.529,0.879-0.991,0.364-1.8c-0.492-0.774-1.116-0.61-1.766-0.525
	c-0.653,0.085-1.19,0.096-1.509-0.665c-0.348-0.831,0.057-1.258,0.673-1.647c0.574-0.363,1.102-0.695,0.966-1.567
	c-0.14-0.896-0.792-1.006-1.433-1.161c-0.703-0.167-1.216-0.357-1.209-1.278c0.006-0.961,0.565-1.076,1.278-1.176
	c0.693-0.096,1.272-0.336,1.45-1.156c0.178-0.819-0.449-1.069-0.892-1.459c-0.479-0.422-1.069-0.653-0.664-1.591
	c0.425-0.986,1.038-0.822,1.744-0.666c0.687,0.153,1.235,0.218,1.727-0.521c0.452-0.678,0.216-1.138-0.119-1.671
	c-0.41-0.651-0.652-1.195,0.083-1.903c0.736-0.712,1.191-0.27,1.724,0.114c0.526,0.381,0.999,0.635,1.683,0.262
	c0.708-0.387,0.662-0.929,0.583-1.563c-0.085-0.69-0.331-1.36,0.709-1.738c1.079-0.392,1.281,0.388,1.656,0.936
	c0.398,0.586,0.83,0.738,1.542,0.653c0.757-0.092,0.833-0.59,1.032-1.105c0.233-0.601,0.039-1.457,1.224-1.421
	c1.151,0.036,1.131,0.808,1.366,1.51c0.491,1.469,1.33,1.617,2.382,0.427c0.466-0.528,0.749-1.168,1.758-0.753
	c1.037,0.427,0.73,1.057,0.639,1.764c-0.076,0.572-0.326,1.15,0.435,1.599c0.706,0.416,1.238,0.348,1.837-0.09
	c0.659-0.48,1.206-0.529,1.87,0.147c0.746,0.757,0.11,1.188-0.178,1.729c-0.282,0.531-0.679,0.953-0.235,1.673
	c0.458,0.746,1.037,0.54,1.604,0.444c0.792-0.133,1.346-0.087,1.696,0.818c0.354,0.919-0.217,1.221-0.775,1.582
	c-0.602,0.388-0.997,0.781-0.854,1.623c0.141,0.833,0.728,0.879,1.303,1.066C279.629,33.411,280.386,33.396,280.305,34.422z"/>
<path fill="#FFFFFF" d="M351.053,43.151c-0.718-0.778-1.572-1.396-1.966-2.519c-1.806-5.157-4.577-9.548-9.657-12.187
	c-1.01-0.523-2.252-0.642-3.053-1.642c-0.9-1.125-1.863-2.187-2.929-3.188c-3.937-3.709-8.597-5.939-13.746-7.354
	c-1.759-0.483-3.647-0.201-5.302-1.366c-2.158-1.521-4.399-2.578-6.713-3.173l13.668,13.668c0.944-1.103,1.572-2.369,3.658-1.51
	c2.203,0.907,1.555,2.246,1.356,3.748c-0.158,1.218-0.692,2.444,0.927,3.398c1.498,0.885,2.633,0.738,3.904-0.19
	c1.398-1.021,2.56-1.126,3.975,0.311c1.581,1.606,0.23,2.526-0.383,3.674c-0.598,1.128-1.439,2.027-0.5,3.556
	c0.977,1.584,2.206,1.146,3.409,0.944c1.683-0.285,2.862-0.186,3.606,1.738c0.752,1.955-0.466,2.595-1.65,3.361
	c-1.277,0.827-2.115,1.661-1.814,3.453c0.299,1.771,1.547,1.865,2.77,2.264c1.285,0.418,2.891,0.387,2.719,2.564
	c-0.152,1.973-1.225,2.671-2.943,2.908c-1.172,0.161-2.356,0.229-2.752,1.759c-0.455,1.76,0.555,2.653,1.76,3.527
	c1.199,0.87,2.309,1.724,1.332,3.511c-0.565,1.037-1.049,1.916-2.433,1.579c-0.348-0.074-0.698-0.143-1.046-0.226
	c-1.459-0.347-2.707-0.399-3.771,1.083c-1.121,1.565-0.271,2.668,0.429,3.899c0.651,1.15,1.329,2.139-0.06,3.433
	c-1.328,1.238-2.336,1.164-3.729,0.248c-1.057-0.696-1.953-1.873-3.646-0.901l-1.232,1.232c-0.414,0.916-0.055,1.922,0.07,2.922
	c0.162,1.313,0.09,2.324-1.397,2.828c-1.39,0.475-2.339,0.372-3.368-0.925c-0.02-0.025-0.038-0.048-0.057-0.071l-12.534,12.535
	c2.976,0.064,5.92-0.248,8.828-1.195c4.646-1.513,8.021-4.613,10.387-8.748c0.813-1.418,1.537-1.385,2.819-1.041
	c4.386,1.18,8.455,0.73,12.135-2.271c1.223-0.999,1.863-2.547,3.584-3.113c3.841-1.26,6.157-3.992,7.163-7.957
	c0.403-1.598,0.323-3.263,1.207-4.819C357.563,56.745,355.434,47.904,351.053,43.151z"/>
<path fill="#16AEDD" d="M264.978,24.872c-5.042,0.477-8.863,5.184-8.302,10.232c0.559,5.037,5.101,8.68,10.146,8.134
	c5.046-0.546,8.776-5.081,8.283-10.071C274.616,28.235,269.941,24.405,264.978,24.872z M266.334,38.195
	c-2.149,0.254-4.067-1.32-4.304-3.536c-0.243-2.28,1.201-4.05,3.486-4.273c2.162-0.21,4,1.249,4.248,3.374
	C270.017,35.912,268.445,37.946,266.334,38.195z"/>
<path fill="#16AEDD" d="M258.931,96.648c-0.545-1.008-1.939-0.545-2.9-0.684c-5.484-0.796-10.282-3.046-13.813-7.23
	c-0.065-0.076-0.127-0.154-0.19-0.231c0.667,1.285-0.204,2.063-0.778,2.946c-0.634,0.973-1.114,1.732-0.085,2.845
	c1.049,1.133,1.917,1.05,3.1,0.322c0.957-0.585,1.9-1.368,3.229-0.452c1.377,0.953,1.261,2.156,0.894,3.414
	c-0.405,1.393-0.032,2.126,1.305,2.795c1.65,0.826,2.06-0.418,2.818-1.241c0.693-0.755,1.068-1.825,2.584-1.501
	c1.433,0.311,1.563,1.256,1.815,2.301c0.068,0.286,0.218,0.56,0.274,0.848c0.223,1.127,0.746,1.707,2.038,1.609
	c1.15-0.088,1.698-0.482,2.097-1.615c0.24-0.683,0.473-1.248,0.712-1.707C260.668,98.77,259.666,98.012,258.931,96.648z"/>
<path fill="#16AEDD" d="M237.285,83.244c-1.088,0.688-1.809,1.441-1.192,2.916c0.563,1.344,1.517,1.328,2.673,1.176
	c0.925-0.12,1.82-0.331,2.587,0.305c-1.272-1.722-2.208-3.551-2.719-5.477C238.303,82.598,237.807,82.913,237.285,83.244z"/>
<path fill="#16AEDD" d="M239.246,73.529c0.249-0.629,0.192-0.907-0.192-1.168c-0.396,1.18-1.348,1.552-2.473,1.709
	c-1.263,0.177-2.251,0.381-2.264,2.082c-0.013,1.63,0.899,1.964,2.14,2.264c0.625,0.148,1.256,0.275,1.738,0.625
	C238.164,77.268,238.492,75.43,239.246,73.529z"/>
<path fill="#32B182" d="M325.193,66.986c0.689-0.569,1.336-1.188,1.939-1.842l-0.048-0.05L325.193,66.986z"/>
<path fill="#32B182" d="M325.239,74.752l1.233-1.232c-0.046,0.025-0.086,0.047-0.132,0.074
	C325.761,73.956,325.424,74.348,325.239,74.752z"/>
<g>
	<path fill="#16AEDD" d="M378.887,7.685h8.064v59.734h-8.064V7.685z"/>
	<path fill="#16AEDD" d="M400.173,7.685h14.49c11.471,0,20.005,3.032,25.6,9.096c5.597,6.065,8.395,12.987,8.395,20.771
		c0,7.846-2.894,14.785-8.674,20.817c-5.783,6.035-14.192,9.049-25.228,9.049h-14.583V7.685z M408.332,15.656v43.7h0.469
		c6.064,0,10.629-0.274,13.691-0.822c3.063-0.546,5.971-1.741,8.722-3.585c2.75-1.845,4.938-4.292,6.564-7.339
		c1.625-3.047,2.438-6.4,2.438-10.057c0-4.595-1.297-8.751-3.892-12.472c-2.595-3.721-5.697-6.221-9.309-7.502
		c-3.609-1.282-8.463-1.922-14.559-1.922L408.332,15.656L408.332,15.656z"/>
	<path fill="#16AEDD" d="M457.425,7.685h33.103v8.159H465.49v14.911h25.037v8.064H465.49v20.538h25.037v8.063h-33.103V7.685z"/>
	<path fill="#16AEDD" d="M522.436,5.387l28.202,62.032h-8.55l-6.932-15.284h-25.35l-6.854,15.284h-8.486L522.436,5.387z
		 M522.412,24.03l-9.555,21.305h19.215L522.412,24.03z"/>
</g>
<g>
	<path fill="#FFFFFF" d="M378.484,76.243h8.375c4.733,0,8.552,1.11,11.451,3.337c2.901,2.227,4.353,5.115,4.353,8.669
		c0,3.578-1.532,6.577-4.597,9.001c-3.065,2.42-7.717,3.598-13.955,3.531v17.146h-5.627V76.243L378.484,76.243z M384.111,81.218
		v14.591c4.274-0.043,7.443-0.646,9.505-1.813s3.092-3.04,3.092-5.611c0-1.94-0.778-3.622-2.338-5.038
		C392.811,81.926,389.391,81.218,384.111,81.218z"/>
	<path fill="#FFFFFF" d="M416.438,90.934v5.563c1.268-2.223,2.506-3.832,3.715-4.825c1.211-0.991,2.786-1.489,4.729-1.489
		c0.545,0,1.331,0.131,2.355,0.395l-1.733,5.691c-1.091-0.218-1.811-0.326-2.16-0.326c-1.919,0-3.528,0.67-4.825,2.013
		c-1.299,1.341-1.947,3.015-1.947,5.022v14.953h-5.692V90.934H416.438z"/>
	<path fill="#FFFFFF" d="M429.56,104.316c0-3.688,1.456-6.965,4.369-9.834c2.91-2.865,6.253-4.303,10.027-4.303
		c3.883,0,7.275,1.414,10.176,4.237c2.901,2.826,4.353,6.125,4.353,9.897c0,3.795-1.424,7.138-4.271,10.027
		c-2.847,2.893-6.135,4.338-9.864,4.338c-3.992,0-7.456-1.432-10.389-4.287C431.026,111.537,429.56,108.176,429.56,104.316z
		 M452.986,104.331c0-2.293-0.873-4.286-2.617-5.981c-1.745-1.693-3.817-2.541-6.216-2.541c-2.467,0-4.587,0.859-6.365,2.574
		s-2.667,3.764-2.667,6.146c0,2.271,0.901,4.262,2.701,5.968c1.798,1.702,3.909,2.558,6.331,2.558c2.354,0,4.416-0.877,6.184-2.625
		C452.103,108.68,452.986,106.648,452.986,104.331z"/>
	<path fill="#FFFFFF" d="M463.587,82.134c0-1.2,0.438-2.237,1.311-3.11s1.907-1.31,3.107-1.31s2.235,0.437,3.107,1.31
		c0.873,0.873,1.31,1.91,1.31,3.11c0,1.197-0.437,2.24-1.31,3.123c-0.872,0.886-1.907,1.324-3.107,1.324s-2.234-0.438-3.107-1.324
		C464.023,84.374,463.587,83.331,463.587,82.134z M465.19,90.934h5.692v39.656h-5.692V90.934z"/>
	<path fill="#FFFFFF" d="M506.221,105.525h-23.034c0.503,2.771,1.642,4.795,3.42,6.07c1.777,1.274,3.714,1.915,5.808,1.915
		c3.229,0,5.934-1.344,8.114-4.026l4.156,3.142c-3.12,4.036-7.298,6.056-12.532,6.056c-4.015,0-7.374-1.375-10.077-4.123
		c-2.705-2.748-4.059-6.162-4.059-10.242c0-3.815,1.369-7.129,4.106-9.93c2.736-2.804,6.081-4.205,10.028-4.205
		c3.883,0,7.209,1.424,9.979,4.271C504.9,97.296,506.264,100.988,506.221,105.525z M483.774,100.979h16.49
		c-1.832-3.707-4.538-5.562-8.113-5.562C488.247,95.418,485.455,97.271,483.774,100.979z"/>
	<path fill="#FFFFFF" d="M533.021,109.684v6.508c-2.902,1.66-5.717,2.49-8.442,2.49c-3.729,0-6.996-1.402-9.799-4.207
		c-2.804-2.802-4.205-6.045-4.205-9.733c0-4.188,1.396-7.66,4.188-10.423c2.791-2.756,6.293-4.137,10.503-4.137
		c2.51,0,5.094,0.655,7.756,1.961v6.35c-2.858-1.832-5.563-2.749-8.114-2.749c-2.356,0-4.418,0.83-6.185,2.489
		c-1.768,1.654-2.65,3.6-2.65,5.82c0,2.512,0.83,4.621,2.486,6.333c1.657,1.712,3.688,2.568,6.085,2.568
		C527.086,112.954,529.878,111.865,533.021,109.684z"/>
	<path fill="#FFFFFF" d="M540.381,83.08h5.691v7.854h5.629v5.202h-5.629v21.792h-5.691V96.136h-4.482v-5.268h4.482V83.08z"/>
</g>
</svg>
