<?xml version="1.0" encoding="utf-8"?>
<!-- Generator: Adobe Illustrator 16.0.3, SVG Export Plug-In . SVG Version: 6.00 Build 0)  -->
<!DOCTYPE svg PUBLIC "-//W3C//DTD SVG 1.1//EN" "http://www.w3.org/Graphics/SVG/1.1/DTD/svg11.dtd">
<svg version="1.1" id="Layer_1" xmlns="http://www.w3.org/2000/svg" xmlns:xlink="http://www.w3.org/1999/xlink" x="0px" y="0px"
	 width="124.858px" height="121.189px" viewBox="0 0 124.858 121.189" enable-background="new 0 0 124.858 121.189"
	 xml:space="preserve">
<g>
	<circle fill="#FFFFFF" cx="62.46" cy="13.812" r="13.812"/>
	<g>
		<path fill="#FFFFFF" d="M18.809,36.245c-0.161-0.628-0.68-1.006-1.359-1.233c-0.676-0.226-1.515-0.327-2.435-0.327
			c-2.075,0-2.994,0.378-2.994,1.034c0,2.716,16.526,1.031,16.526,7.625c0,4.203-5.548,6.241-13.451,6.241
			c-7.584,0-12.535-2.793-12.735-6.065h9.022c0.2,0.655,0.758,1.133,1.557,1.435c0.758,0.302,1.757,0.452,2.674,0.452
			c2.355,0,3.912-0.477,3.912-1.334c0-2.742-16.528-0.854-16.528-7.776c0-3.852,5.271-5.79,12.455-5.79
			c7.984,0,11.618,2.567,12.297,5.738H18.809z"/>
		<path fill="#FFFFFF" d="M32.899,49.108V30.985h23.433v4.229H42.321v2.592h11.855v4.229H42.321v2.843h14.572v4.229H32.899z"/>
		<path fill="#FFFFFF" d="M80.523,40.878l-0.359-4.129v-5.765h9.021v18.124h-8.823l-10.261-9.867l0.359,4.129v5.738h-9.019V30.985
			h8.821L80.523,40.878z"/>
		<path fill="#FFFFFF" d="M92.377,49.108l10.301-18.124h9.58l10.3,18.124h-9.382l-1.117-2.393h-9.381l-1.078,2.393H92.377z
			 M107.389,36.446l-2.916,6.495h5.949L107.389,36.446z"/>
	</g>
	<g>
		<polygon fill="#FFFFFF" points="124.652,53.055 67.053,53.055 100.58,112.598 107.974,106.158 81.152,61.368 124.92,61.26 		"/>
		<polygon fill="#FFFFFF" points="0.269,53.055 57.867,53.055 24.34,112.598 16.947,106.158 43.769,61.368 0,61.26 		"/>
		<polygon fill="#FFFFFF" points="30.756,117.375 62.194,63.132 94.523,116.843 85.986,120.698 62.909,79.443 38.347,121.189 		"/>
	</g>
</g>
</svg>
