<?xml version="1.0" encoding="utf-8"?>
<!-- Generator: Adobe Illustrator 16.0.3, SVG Export Plug-In . SVG Version: 6.00 Build 0)  -->
<!DOCTYPE svg PUBLIC "-//W3C//DTD SVG 1.1//EN" "http://www.w3.org/Graphics/SVG/1.1/DTD/svg11.dtd">
<svg version="1.1" id="Layer_1" xmlns="http://www.w3.org/2000/svg" xmlns:xlink="http://www.w3.org/1999/xlink" x="0px" y="0px"
	 width="542.064px" height="125.203px" viewBox="0 0 542.064 125.203" enable-background="new 0 0 542.064 125.203"
	 xml:space="preserve">
<path fill="#15ADDD" d="M229.356,75.082c-0.11-0.712-0.404-1.143-0.798-1.428c0.02,1.065,0.17,2.108,0.439,3.123
	C229.312,76.363,229.474,75.837,229.356,75.082z"/>
<path fill="#15ADDD" d="M266.609,69.854c-0.864-8.73-9.14-15.511-17.924-14.682c-8.926,0.845-15.689,9.176-14.699,18.111
	c0.989,8.917,9.03,15.364,17.959,14.398C260.878,86.716,267.48,78.69,266.609,69.854z M251.083,78.756
	c-3.805,0.448-7.199-2.337-7.618-6.259c-0.43-4.036,2.126-7.171,6.171-7.564c3.829-0.371,7.082,2.21,7.521,5.971
	C257.604,74.713,254.821,78.313,251.083,78.756z"/>
<path fill="#15ADDD" d="M301.125,27.021c-10.717,1.012-18.835,11.014-17.647,21.743c1.188,10.707,10.841,18.448,21.563,17.287
	c4.003-0.433,7.615-2.046,10.517-4.45l1.892-1.892l0.048,0.05c3.673-3.977,5.711-9.402,5.147-15.111
	c-0.423-4.264-2.317-8.14-5.126-11.173l-0.069,0.071l-2.077-2.077C311.451,28.286,306.364,26.525,301.125,27.021z M311.297,45.906
	c0.535,4.575-2.808,8.897-7.292,9.426c-4.568,0.54-8.645-2.807-9.146-7.512c-0.519-4.849,2.551-8.61,7.408-9.083
	C306.864,38.291,310.769,41.391,311.297,45.906z"/>
<path fill="#15ADDD" d="M231.716,82.253c0.215,0.291,0.439,0.579,0.673,0.863c-0.04-0.077-0.083-0.154-0.136-0.238
	C232.083,82.612,231.903,82.407,231.716,82.253z"/>
<path fill="#15ADDD" d="M299.757,75.308c-0.068-0.347-0.248-0.672-0.331-1.021c-0.302-1.25-0.458-2.387-2.18-2.758
	c-1.821-0.393-2.269,0.895-3.103,1.802c-0.911,0.987-1.403,2.479-3.383,1.491c-1.604-0.805-2.054-1.687-1.566-3.354
	c0.441-1.511,0.581-2.956-1.075-4.102c-1.591-1.102-2.726-0.16-3.875,0.545c-1.419,0.87-2.462,0.972-3.72-0.387
	c-1.237-1.337-0.66-2.247,0.1-3.417c0.732-1.124,1.867-2.104,0.773-3.822c-1.049-1.647-2.371-1.297-3.754-1.118
	c-1.387,0.183-2.53,0.205-3.208-1.411c-0.739-1.767,0.124-2.673,1.432-3.5c1.222-0.773,2.34-1.476,2.052-3.332
	c-0.294-1.905-1.682-2.141-3.045-2.467c-1.492-0.356-2.585-0.762-2.57-2.716c0.016-2.042,1.202-2.287,2.717-2.5
	c1.475-0.206,2.703-0.713,3.084-2.458c0.378-1.741-0.953-2.273-1.896-3.103c-1.019-0.897-2.272-1.388-1.409-3.381
	c0.904-2.092,2.208-1.744,3.706-1.41c1.459,0.323,2.624,0.462,3.673-1.11c0.955-1.44,0.457-2.418-0.256-3.551
	c-0.873-1.385-1.384-2.54,0.176-4.048c1.566-1.511,2.532-0.571,3.664,0.246c1.12,0.808,2.121,1.347,3.576,0.554
	c1.507-0.822,1.408-1.97,1.241-3.321c-0.183-1.467-0.706-2.89,1.505-3.692c2.294-0.833,2.725,0.826,3.517,1.99
	c0.847,1.246,1.766,1.566,3.276,1.385c1.609-0.192,1.771-1.25,2.195-2.346c0.179-0.457,0.238-0.982,0.361-1.465l-11.432-11.43
	c-0.979,0.181-1.966,0.436-2.966,0.766c-0.755,0.249-1.241,0.007-1.688-0.359c-3.045-2.502-6.627-3.349-10.064-3.518
	c-4.725,0.021-8.688,1.139-12.203,3.787c-0.788,0.593-1.497,1.47-2.684,1.416c-2.849-0.127-5.488,0.586-8.139,1.662
	c-5.107,2.074-8.781,5.529-10.899,10.56c-0.38,0.906-0.882,1.15-1.611,1.348c-3.617,0.992-6.458,2.936-8.458,6.216
	c-0.766,1.257-0.916,2.817-2.111,3.846c-3.49,3.007-5.397,6.917-6,11.407c-0.457,3.403-0.124,6.87-0.656,10.29
	c-0.745,4.776,1.715,10.945,6.504,13.241c0.156,0.074,0.28,0.143,0.387,0.214c0.036-0.108,0.068-0.22,0.094-0.341
	c0.314-1.448-0.793-1.891-1.577-2.584c-0.85-0.746-1.894-1.154-1.176-2.816c0.755-1.743,1.838-1.452,3.089-1.173
	c1.213,0.269,2.185,0.384,3.057-0.926c0.797-1.201,0.382-2.013-0.212-2.958c-0.727-1.153-1.151-2.114,0.149-3.371
	c1.303-1.258,2.107-0.477,3.05,0.204c0.932,0.672,1.767,1.122,2.979,0.461c1.253-0.684,1.171-1.641,1.032-2.767
	c-0.15-1.221-0.587-2.407,1.255-3.075c1.91-0.693,2.269,0.689,2.93,1.658c0.704,1.038,1.47,1.304,2.728,1.154
	c1.34-0.159,1.475-1.042,1.829-1.955c0.414-1.063,0.068-2.577,2.167-2.513c2.038,0.062,2.002,1.428,2.418,2.673
	c0.87,2.598,2.353,2.863,4.214,0.756c0.828-0.935,1.328-2.069,3.114-1.334c1.835,0.754,1.294,1.87,1.13,3.122
	c-0.132,1.015-0.576,2.035,0.772,2.831c1.248,0.736,2.193,0.614,3.253-0.16c1.164-0.85,2.131-0.938,3.309,0.26
	c1.318,1.337,0.191,2.103-0.317,3.061c-0.5,0.94-1.201,1.686-0.418,2.961c0.814,1.318,1.837,0.953,2.841,0.786
	c1.401-0.238,2.381-0.154,3,1.448c0.629,1.629-0.384,2.161-1.373,2.799c-1.063,0.687-1.761,1.383-1.51,2.875
	c0.248,1.477,1.286,1.554,2.305,1.888c1.07,0.347,2.408,0.322,2.266,2.136c-0.129,1.644-1.021,2.226-2.451,2.421
	c-0.977,0.136-1.965,0.191-2.294,1.467c-0.378,1.467,0.462,2.207,1.466,2.938c1,0.724,1.924,1.436,1.111,2.921
	c-0.473,0.864-0.875,1.598-2.026,1.315c-0.291-0.062-0.583-0.114-0.871-0.186c-1.215-0.288-2.256-0.334-3.142,0.901
	c-0.935,1.306-0.226,2.222,0.354,3.249c0.543,0.957,1.109,1.78-0.048,2.857c-1.106,1.03-1.947,0.972-3.106,0.207
	c-0.902-0.594-1.664-1.615-3.146-0.69c-1.572,0.984-1.007,2.198-0.86,3.398c0.136,1.093,0.077,1.938-1.164,2.358
	c-1.158,0.394-1.947,0.307-2.804-0.771c-2.119-2.668-3.311-2.975-4.441-0.783c0.159,0.034,0.323,0.065,0.494,0.087
	c0.699,0.093,0.634,0.334,0.442,0.919c-0.89,2.702-1.701,5.433-2.53,8.156c-0.35,1.151-0.353,2.28,0.128,3.42
	c1.089,2.575,2.496,4.982,3.796,7.446c0.432,0.817,1.083,1.019,1.993,0.842c1.455-0.281,1.716-1.393,2.092-2.553
	c1.464-4.522,2.462-9.208,4.537-13.526c2.009-4.178,4.55-7.886,9.049-9.768c0.94-0.394,1.914-0.715,2.833-1.148
	c2.345-1.102,3.784-3.15,4.508-5.438c0.655-2.064,0.939-1.728,2.425-0.635c2.775,2.039,5.83,3.541,9.165,4.349l9.087-9.087
	C300.081,76.416,299.879,75.933,299.757,75.308z M270.667,29.035c-0.073,0.927-0.576,1.257-1.384,1.368
	c-0.551,0.076-1.109,0.106-1.295,0.826c-0.215,0.83,0.26,1.249,0.828,1.661c0.563,0.41,1.086,0.811,0.627,1.651
	c-0.266,0.487-0.494,0.902-1.146,0.743c-0.164-0.034-0.328-0.065-0.492-0.105c-0.686-0.164-1.274-0.188-1.775,0.509
	c-0.526,0.738-0.127,1.255,0.201,1.835c0.307,0.542,0.627,1.006-0.026,1.614c-0.625,0.582-1.1,0.549-1.755,0.118
	c-0.511-0.336-0.939-0.913-1.776-0.39c-0.888,0.556-0.571,1.24-0.487,1.92c0.077,0.618,0.043,1.094-0.658,1.331
	c-0.653,0.223-1.099,0.173-1.583-0.435c-1.448-1.821-2.129-1.698-2.911,0.521c-0.226,0.641-0.537,0.864-1.186,0.913
	c-0.73,0.056-1.026-0.272-1.151-0.91c-0.031-0.164-0.116-0.316-0.155-0.48c-0.143-0.588-0.217-1.124-1.026-1.298
	c-0.856-0.184-1.068,0.421-1.459,0.848c-0.429,0.466-0.661,1.167-1.592,0.701c-0.755-0.378-0.966-0.792-0.737-1.579
	c0.208-0.71,0.274-1.392-0.506-1.93c-0.749-0.517-1.283-0.074-1.823,0.257c-0.667,0.41-1.159,0.457-1.75-0.181
	c-0.582-0.63-0.311-1.059,0.046-1.608c0.345-0.529,0.879-0.991,0.364-1.8c-0.492-0.774-1.116-0.61-1.766-0.525
	c-0.653,0.085-1.19,0.096-1.509-0.665c-0.348-0.831,0.057-1.258,0.673-1.647c0.574-0.363,1.102-0.695,0.966-1.567
	c-0.14-0.896-0.792-1.006-1.433-1.161c-0.703-0.167-1.216-0.357-1.209-1.278c0.006-0.961,0.565-1.076,1.278-1.176
	c0.693-0.096,1.272-0.336,1.45-1.156c0.178-0.819-0.449-1.069-0.892-1.459c-0.479-0.422-1.069-0.653-0.664-1.591
	c0.425-0.986,1.038-0.822,1.744-0.666c0.687,0.153,1.235,0.218,1.727-0.521c0.452-0.678,0.216-1.138-0.119-1.671
	c-0.41-0.651-0.652-1.195,0.083-1.903c0.736-0.712,1.191-0.27,1.724,0.114c0.526,0.381,0.999,0.635,1.683,0.262
	c0.708-0.387,0.662-0.929,0.583-1.563c-0.085-0.69-0.331-1.36,0.709-1.738c1.079-0.392,1.281,0.388,1.656,0.936
	c0.398,0.586,0.83,0.738,1.542,0.653c0.757-0.092,0.833-0.59,1.032-1.105c0.233-0.601,0.039-1.457,1.224-1.421
	c1.151,0.036,1.131,0.808,1.366,1.51c0.491,1.469,1.33,1.617,2.382,0.427c0.466-0.528,0.749-1.168,1.758-0.753
	c1.037,0.427,0.73,1.057,0.639,1.764c-0.076,0.572-0.326,1.15,0.435,1.599c0.706,0.416,1.238,0.348,1.837-0.09
	c0.659-0.48,1.206-0.529,1.87,0.147c0.746,0.757,0.11,1.188-0.178,1.729c-0.282,0.531-0.679,0.953-0.235,1.673
	c0.458,0.746,1.037,0.54,1.604,0.444c0.792-0.133,1.346-0.087,1.696,0.818c0.354,0.919-0.217,1.221-0.775,1.582
	c-0.602,0.388-0.997,0.781-0.854,1.623c0.141,0.833,0.728,0.879,1.303,1.066C269.992,28.024,270.749,28.009,270.667,29.035z"/>
<path fill="#6D6E70" d="M341.416,37.765c-0.718-0.778-1.572-1.396-1.966-2.519c-1.806-5.157-4.577-9.548-9.658-12.187
	c-1.009-0.523-2.251-0.642-3.052-1.642c-0.9-1.125-1.864-2.187-2.929-3.189c-3.936-3.709-8.596-5.939-13.746-7.354
	c-1.758-0.483-3.647-0.201-5.302-1.366c-2.158-1.521-4.399-2.578-6.713-3.173l13.668,13.668c0.945-1.103,1.573-2.369,3.658-1.51
	c2.204,0.907,1.556,2.246,1.357,3.748c-0.158,1.218-0.692,2.444,0.927,3.398c1.498,0.885,2.633,0.738,3.904-0.19
	c1.399-1.021,2.56-1.126,3.975,0.311c1.581,1.606,0.23,2.526-0.383,3.674c-0.597,1.128-1.44,2.027-0.5,3.556
	c0.976,1.584,2.206,1.146,3.409,0.944c1.683-0.285,2.862-0.186,3.606,1.738c0.752,1.955-0.465,2.595-1.65,3.361
	c-1.277,0.827-2.115,1.661-1.814,3.453c0.298,1.771,1.546,1.865,2.769,2.264c1.286,0.418,2.891,0.387,2.719,2.564
	c-0.153,1.973-1.225,2.671-2.943,2.908c-1.172,0.161-2.357,0.229-2.752,1.759c-0.455,1.76,0.555,2.653,1.76,3.527
	c1.198,0.87,2.308,1.724,1.332,3.511c-0.566,1.037-1.049,1.916-2.433,1.579c-0.348-0.074-0.699-0.143-1.046-0.226
	c-1.459-0.347-2.707-0.399-3.771,1.083c-1.122,1.565-0.271,2.668,0.428,3.899c0.651,1.151,1.33,2.139-0.06,3.433
	c-1.327,1.238-2.336,1.164-3.728,0.248c-1.057-0.696-1.953-1.873-3.646-0.901l-1.233,1.232c-0.414,0.916-0.054,1.922,0.07,2.922
	c0.162,1.312,0.091,2.324-1.397,2.828c-1.39,0.474-2.339,0.372-3.368-0.925c-0.02-0.025-0.038-0.047-0.057-0.071l-12.534,12.535
	c2.975,0.064,5.92-0.248,8.828-1.195c4.646-1.513,8.021-4.614,10.387-8.749c0.813-1.418,1.537-1.384,2.819-1.04
	c4.386,1.179,8.456,0.73,12.135-2.272c1.223-0.999,1.863-2.547,3.584-3.113c3.841-1.26,6.157-3.992,7.163-7.957
	c0.404-1.598,0.324-3.263,1.207-4.819C347.926,51.358,345.795,42.518,341.416,37.765z"/>
<path fill="#15ADDD" d="M255.341,19.485c-5.042,0.477-8.863,5.184-8.302,10.232c0.559,5.037,5.101,8.68,10.146,8.134
	c5.046-0.546,8.776-5.081,8.283-10.071C264.979,22.848,260.304,19.018,255.341,19.485z M256.697,32.808
	c-2.149,0.254-4.067-1.32-4.304-3.536c-0.243-2.28,1.201-4.05,3.486-4.273c2.162-0.21,4,1.249,4.248,3.374
	C260.38,30.525,258.808,32.559,256.697,32.808z"/>
<path fill="#15ADDD" d="M249.293,91.263c-0.545-1.009-1.939-0.545-2.9-0.684c-5.484-0.796-10.282-3.046-13.813-7.23
	c-0.065-0.077-0.127-0.155-0.19-0.232c0.667,1.285-0.204,2.064-0.778,2.946c-0.634,0.973-1.114,1.733-0.085,2.845
	c1.049,1.133,1.917,1.05,3.1,0.322c0.957-0.585,1.9-1.368,3.229-0.452c1.377,0.953,1.261,2.157,0.894,3.414
	c-0.405,1.393-0.032,2.126,1.305,2.795c1.65,0.826,2.06-0.418,2.818-1.241c0.693-0.755,1.068-1.826,2.584-1.501
	c1.433,0.31,1.563,1.256,1.815,2.3c0.068,0.287,0.218,0.56,0.274,0.848c0.223,1.127,0.746,1.708,2.038,1.609
	c1.15-0.087,1.698-0.482,2.097-1.615c0.24-0.682,0.473-1.248,0.712-1.706C251.031,93.383,250.028,92.625,249.293,91.263z"/>
<path fill="#15ADDD" d="M227.648,77.857c-1.088,0.688-1.809,1.442-1.192,2.916c0.563,1.344,1.517,1.328,2.673,1.176
	c0.925-0.12,1.82-0.331,2.587,0.304c-1.272-1.721-2.208-3.55-2.719-5.476C228.666,77.211,228.169,77.526,227.648,77.857z"/>
<path fill="#15ADDD" d="M229.608,68.143c0.249-0.629,0.192-0.907-0.192-1.167c-0.396,1.179-1.348,1.551-2.473,1.708
	c-1.263,0.177-2.251,0.381-2.264,2.083c-0.013,1.629,0.899,1.963,2.14,2.263c0.625,0.148,1.256,0.275,1.738,0.625
	C228.527,71.881,228.855,70.043,229.608,68.143z"/>
<path fill="#32B182" d="M81.928,33.474c-0.667-0.718-1.385-1.388-2.146-2.006l2.077,2.077L81.928,33.474z"/>
<path fill="#32B182" d="M315.557,61.6c0.689-0.569,1.336-1.188,1.939-1.842l-0.048-0.05L315.557,61.6z"/>
<path fill="#32B182" d="M315.602,69.365l1.233-1.232c-0.045,0.025-0.086,0.047-0.131,0.074
	C316.124,68.569,315.787,68.96,315.602,69.365z"/>
<g>
	<path fill="#15ADDD" d="M369.25,2.298h8.064v59.734h-8.064V2.298z"/>
	<path fill="#15ADDD" d="M390.536,2.298h14.49c11.471,0,20.005,3.032,25.6,9.096c5.596,6.065,8.394,12.987,8.394,20.771
		c0,7.846-2.893,14.785-8.674,20.817c-5.783,6.035-14.192,9.049-25.227,9.049h-14.583V2.298z M398.695,10.27v43.7h0.469
		c6.064,0,10.629-0.274,13.691-0.822c3.063-0.546,5.971-1.741,8.722-3.585c2.75-1.845,4.938-4.292,6.564-7.339
		c1.625-3.047,2.438-6.4,2.438-10.057c0-4.595-1.297-8.751-3.892-12.472c-2.594-3.721-5.697-6.221-9.308-7.502
		c-3.61-1.282-8.463-1.922-14.559-1.922H398.695z"/>
	<path fill="#15ADDD" d="M447.788,2.298h33.102v8.159h-25.037v14.911h25.037v8.064h-25.037v20.538h25.037v8.063h-33.102V2.298z"/>
	<path fill="#15ADDD" d="M512.798,0L541,62.032h-8.55l-6.932-15.284H500.17l-6.854,15.284h-8.486L512.798,0z M512.775,18.644
		l-9.555,21.305h19.215L512.775,18.644z"/>
</g>
<g>
	<path fill="#6D6E70" d="M368.847,70.856h8.375c4.734,0,8.552,1.111,11.452,3.337c2.901,2.226,4.352,5.116,4.352,8.669
		c0,3.578-1.532,6.577-4.596,9.001c-3.066,2.42-7.718,3.597-13.956,3.531v17.146h-5.627V70.856z M374.474,75.831v14.59
		c4.275-0.043,7.443-0.646,9.505-1.813s3.092-3.04,3.092-5.611c0-1.941-0.779-3.622-2.338-5.039
		C383.173,76.539,379.752,75.831,374.474,75.831z"/>
	<path fill="#6D6E70" d="M406.8,85.546v5.563c1.267-2.223,2.505-3.832,3.715-4.825c1.21-0.991,2.785-1.489,4.728-1.489
		c0.545,0,1.331,0.13,2.355,0.394l-1.733,5.691c-1.091-0.217-1.811-0.325-2.16-0.325c-1.919,0-3.528,0.669-4.825,2.012
		c-1.299,1.341-1.947,3.015-1.947,5.023v14.952h-5.693V85.546H406.8z"/>
	<path fill="#6D6E70" d="M419.922,98.93c0-3.687,1.456-6.965,4.369-9.834c2.91-2.865,6.253-4.302,10.027-4.302
		c3.883,0,7.275,1.414,10.176,4.237c2.901,2.826,4.352,6.125,4.352,9.898c0,3.794-1.423,7.137-4.27,10.027
		c-2.847,2.892-6.135,4.337-9.864,4.337c-3.993,0-7.456-1.431-10.389-4.287C421.389,106.15,419.922,102.789,419.922,98.93z
		 M443.349,98.944c0-2.293-0.873-4.286-2.617-5.982c-1.745-1.693-3.817-2.541-6.216-2.541c-2.466,0-4.587,0.86-6.365,2.575
		s-2.667,3.764-2.667,6.146c0,2.272,0.901,4.262,2.701,5.968c1.798,1.702,3.909,2.557,6.331,2.557c2.355,0,4.416-0.876,6.184-2.625
		C442.465,103.293,443.349,101.263,443.349,98.944z"/>
	<path fill="#6D6E70" d="M453.95,76.747c0-1.201,0.437-2.238,1.31-3.111c0.873-0.872,1.908-1.309,3.108-1.309
		s2.235,0.437,3.107,1.309c0.873,0.873,1.31,1.91,1.31,3.111c0,1.197-0.437,2.24-1.31,3.123c-0.872,0.885-1.907,1.324-3.107,1.324
		s-2.235-0.439-3.108-1.324C454.386,78.987,453.95,77.944,453.95,76.747z M455.553,85.546h5.693v39.657h-5.693V85.546z"/>
	<path fill="#6D6E70" d="M496.583,100.14h-23.034c0.502,2.77,1.641,4.794,3.419,6.069s3.714,1.916,5.808,1.916
		c3.229,0,5.934-1.344,8.114-4.027l4.156,3.142c-3.12,4.036-7.297,6.055-12.532,6.055c-4.014,0-7.374-1.375-10.077-4.123
		c-2.705-2.748-4.058-6.162-4.058-10.241c0-3.816,1.369-7.129,4.106-9.93c2.736-2.804,6.081-4.206,10.028-4.206
		c3.883,0,7.209,1.424,9.979,4.271C495.263,91.909,496.626,95.602,496.583,100.14z M474.137,95.593h16.491
		c-1.832-3.708-4.538-5.562-8.114-5.562C478.61,90.031,475.818,91.885,474.137,95.593z"/>
	<path fill="#6D6E70" d="M523.382,104.296v6.509c-2.902,1.659-5.716,2.489-8.442,2.489c-3.729,0-6.996-1.402-9.799-4.207
		c-2.803-2.801-4.205-6.044-4.205-9.733c0-4.188,1.396-7.66,4.188-10.422c2.791-2.757,6.293-4.138,10.503-4.138
		c2.509,0,5.093,0.656,7.755,1.962v6.349c-2.858-1.832-5.563-2.749-8.114-2.749c-2.356,0-4.418,0.83-6.184,2.489
		c-1.768,1.655-2.651,3.6-2.651,5.821c0,2.511,0.83,4.621,2.487,6.333c1.657,1.711,3.687,2.568,6.085,2.568
		C517.449,107.567,520.241,106.479,523.382,104.296z"/>
	<path fill="#6D6E70" d="M530.744,77.693h5.691v7.853h5.629v5.203h-5.629v21.792h-5.691V90.749h-4.483v-5.268h4.483V77.693z"/>
</g>
<g>
	<circle fill="#231F20" cx="62.46" cy="15.25" r="13.812"/>
	<g>
		<path fill="#231F20" d="M18.809,37.684c-0.161-0.628-0.68-1.006-1.359-1.233c-0.676-0.226-1.515-0.327-2.435-0.327
			c-2.075,0-2.994,0.378-2.994,1.034c0,2.716,16.526,1.031,16.526,7.625c0,4.203-5.548,6.241-13.451,6.241
			c-7.584,0-12.535-2.793-12.735-6.065h9.022c0.2,0.655,0.758,1.133,1.557,1.435c0.758,0.302,1.757,0.452,2.674,0.452
			c2.355,0,3.912-0.477,3.912-1.334c0-2.742-16.528-0.854-16.528-7.776c0-3.852,5.271-5.79,12.455-5.79
			c7.984,0,11.618,2.567,12.297,5.738H18.809z"/>
		<path fill="#231F20" d="M32.899,50.547V32.423h23.433v4.229H42.321v2.592h11.855v4.229H42.321v2.843h14.572v4.229H32.899z"/>
		<path fill="#231F20" d="M80.523,42.317l-0.359-4.129v-5.765h9.021v18.124h-8.823l-10.26-9.867l0.359,4.129v5.738h-9.019V32.423
			h8.821L80.523,42.317z"/>
		<path fill="#231F20" d="M92.377,50.547l10.301-18.124h9.579l10.3,18.124h-9.382l-1.116-2.393h-9.381l-1.079,2.393H92.377z
			 M107.389,37.885l-2.916,6.495h5.949L107.389,37.885z"/>
	</g>
	<g>
		<polygon fill="#231F20" points="124.652,54.493 67.052,54.493 100.58,114.036 107.974,107.597 81.152,62.807 124.919,62.698 		"/>
		<polygon fill="#231F20" points="0.269,54.493 57.867,54.493 24.34,114.036 16.947,107.597 43.769,62.807 0,62.698 		"/>
		<polygon fill="#231F20" points="30.756,118.813 62.194,64.57 94.524,118.281 85.986,122.137 62.909,80.882 38.347,122.628 		"/>
	</g>
</g>
<rect x="189.681" y="2.988" fill="#231F20" width="2.208" height="122.837"/>
</svg>
