<?xml version="1.0" encoding="utf-8"?>
<!-- Generator: Adobe Illustrator 16.0.3, SVG Export Plug-In . SVG Version: 6.00 Build 0)  -->
<!DOCTYPE svg PUBLIC "-//W3C//DTD SVG 1.1//EN" "http://www.w3.org/Graphics/SVG/1.1/DTD/svg11.dtd">
<svg version="1.1" id="Layer_1" xmlns="http://www.w3.org/2000/svg" xmlns:xlink="http://www.w3.org/1999/xlink" x="0px" y="0px"
	 width="201.053px" height="77.558px" viewBox="0 0 201.053 77.558" enable-background="new 0 0 201.053 77.558"
	 xml:space="preserve">
<path fill="#FFFFFF" d="M4.393,45.929c-0.069-0.449-0.255-0.721-0.504-0.9c0.013,0.672,0.107,1.33,0.277,1.971
	C4.365,46.738,4.467,46.406,4.393,45.929z"/>
<path fill="#FFFFFF" d="M27.901,42.63c-0.545-5.51-5.768-9.789-11.311-9.266c-5.633,0.533-9.9,5.791-9.275,11.43
	c0.624,5.627,5.698,9.695,11.333,9.086C24.285,53.271,28.451,48.207,27.901,42.63z M18.104,48.248
	c-2.401,0.283-4.543-1.475-4.808-3.949c-0.271-2.547,1.342-4.525,3.895-4.773c2.416-0.234,4.469,1.395,4.746,3.768
	C22.218,45.697,20.462,47.968,18.104,48.248z"/>
<path fill="#FFFFFF" d="M49.682,15.601c-6.763,0.639-11.886,6.949-11.136,13.721c0.749,6.756,6.841,11.641,13.606,10.908
	c2.526-0.273,4.806-1.291,6.637-2.809l1.193-1.193l0.03,0.031c2.317-2.51,3.604-5.934,3.248-9.535
	c-0.267-2.691-1.462-5.137-3.234-7.051l-0.044,0.045l-1.311-1.311C56.198,16.4,52.988,15.289,49.682,15.601z M56.101,27.519
	c0.338,2.887-1.771,5.613-4.602,5.947c-2.883,0.342-5.455-1.771-5.771-4.74c-0.327-3.059,1.609-5.434,4.675-5.73
	C53.303,22.712,55.768,24.669,56.101,27.519z"/>
<path fill="#FFFFFF" d="M5.882,50.455C6.018,50.638,6.16,50.82,6.307,51c-0.025-0.049-0.053-0.098-0.086-0.15
	C6.114,50.681,6,50.552,5.882,50.455z"/>
<path fill="#FFFFFF" d="M48.819,46.072c-0.043-0.219-0.156-0.424-0.209-0.645c-0.19-0.789-0.289-1.506-1.375-1.74
	c-1.149-0.248-1.432,0.564-1.958,1.137c-0.575,0.623-0.886,1.564-2.135,0.941c-1.013-0.508-1.296-1.064-0.988-2.117
	c0.278-0.953,0.366-1.865-0.679-2.588c-1.004-0.695-1.72-0.102-2.445,0.344c-0.896,0.549-1.554,0.613-2.348-0.244
	c-0.78-0.844-0.416-1.418,0.063-2.156c0.462-0.709,1.178-1.328,0.488-2.412c-0.662-1.039-1.497-0.818-2.369-0.705
	c-0.875,0.115-1.597,0.129-2.024-0.891c-0.467-1.115,0.078-1.688,0.903-2.209c0.771-0.488,1.477-0.932,1.295-2.102
	c-0.186-1.203-1.062-1.352-1.922-1.557c-0.941-0.225-1.631-0.48-1.622-1.715c0.01-1.289,0.759-1.443,1.715-1.578
	c0.931-0.129,1.706-0.449,1.946-1.551c0.238-1.098-0.602-1.434-1.196-1.957c-0.643-0.566-1.435-0.877-0.89-2.135
	c0.571-1.32,1.394-1.1,2.339-0.889c0.921,0.203,1.656,0.291,2.317-0.701c0.604-0.908,0.289-1.525-0.161-2.24
	c-0.551-0.875-0.873-1.604,0.111-2.555c0.988-0.953,1.598-0.361,2.312,0.154c0.707,0.51,1.339,0.85,2.257,0.35
	c0.951-0.518,0.889-1.242,0.783-2.096c-0.115-0.926-0.445-1.822,0.95-2.33c1.447-0.525,1.719,0.521,2.219,1.256
	c0.534,0.787,1.114,0.988,2.067,0.875c1.016-0.121,1.118-0.789,1.386-1.48c0.112-0.289,0.15-0.621,0.228-0.926l-7.214-7.213
	c-0.617,0.115-1.24,0.275-1.871,0.484c-0.477,0.156-0.783,0.004-1.065-0.227c-1.922-1.58-4.182-2.114-6.352-2.22
	c-2.981,0.013-5.482,0.719-7.7,2.39c-0.497,0.373-0.944,0.928-1.693,0.893c-1.798-0.08-3.463,0.371-5.136,1.049
	c-3.223,1.309-5.541,3.49-6.878,6.664c-0.24,0.572-0.557,0.727-1.017,0.852c-2.282,0.625-4.075,1.852-5.337,3.922
	c-0.483,0.793-0.578,1.777-1.332,2.428c-2.202,1.896-3.406,4.365-3.786,7.197c-0.288,2.148-0.078,4.336-0.414,6.494
	c-0.47,3.014,1.082,6.906,4.104,8.355c0.099,0.047,0.177,0.09,0.244,0.135c0.022-0.068,0.043-0.139,0.06-0.215
	c0.198-0.914-0.501-1.193-0.995-1.631C2.959,38.498,2.3,38.24,2.753,37.191c0.477-1.1,1.16-0.916,1.949-0.74
	c0.766,0.17,1.379,0.242,1.929-0.584c0.503-0.758,0.241-1.27-0.134-1.867c-0.459-0.727-0.727-1.334,0.094-2.127
	c0.822-0.793,1.33-0.301,1.925,0.129c0.588,0.424,1.115,0.709,1.88,0.291c0.791-0.432,0.739-1.035,0.651-1.746
	c-0.095-0.77-0.37-1.518,0.792-1.939c1.205-0.438,1.432,0.434,1.849,1.045c0.444,0.656,0.928,0.824,1.722,0.729
	c0.846-0.1,0.931-0.656,1.154-1.232c0.261-0.672,0.043-1.627,1.367-1.586c1.286,0.039,1.264,0.9,1.526,1.686
	c0.549,1.641,1.484,1.807,2.659,0.479c0.522-0.59,0.838-1.307,1.965-0.842c1.158,0.475,0.816,1.18,0.713,1.969
	c-0.083,0.641-0.363,1.285,0.487,1.787c0.787,0.465,1.384,0.387,2.053-0.102c0.734-0.535,1.345-0.592,2.088,0.164
	c0.832,0.844,0.121,1.328-0.2,1.932c-0.315,0.594-0.758,1.064-0.264,1.869c0.514,0.832,1.159,0.602,1.793,0.496
	c0.884-0.15,1.503-0.098,1.894,0.914c0.396,1.027-0.242,1.363-0.866,1.766c-0.671,0.434-1.111,0.873-0.953,1.814
	c0.156,0.932,0.812,0.98,1.454,1.191c0.676,0.219,1.52,0.203,1.43,1.348c-0.081,1.037-0.644,1.404-1.547,1.527
	c-0.616,0.086-1.239,0.121-1.447,0.926c-0.238,0.926,0.292,1.393,0.925,1.854c0.631,0.457,1.214,0.906,0.701,1.844
	c-0.298,0.545-0.552,1.008-1.278,0.83c-0.184-0.039-0.368-0.072-0.55-0.117c-0.767-0.182-1.424-0.211-1.982,0.568
	c-0.59,0.824-0.143,1.402,0.224,2.051c0.343,0.604,0.7,1.123-0.03,1.803c-0.698,0.65-1.229,0.613-1.96,0.131
	c-0.569-0.375-1.05-1.02-1.985-0.436c-0.992,0.621-0.636,1.387-0.543,2.145c0.086,0.689,0.049,1.223-0.734,1.488
	c-0.73,0.248-1.229,0.193-1.77-0.486c-1.337-1.684-2.089-1.877-2.803-0.494c0.101,0.021,0.204,0.041,0.312,0.055
	c0.441,0.059,0.4,0.211,0.279,0.58c-0.562,1.705-1.073,3.428-1.597,5.146c-0.221,0.727-0.223,1.439,0.081,2.158
	c0.688,1.625,1.575,3.145,2.396,4.699c0.272,0.516,0.684,0.643,1.258,0.531c0.918-0.178,1.083-0.879,1.32-1.611
	c0.924-2.854,1.554-5.811,2.863-8.535c1.268-2.637,2.871-4.977,5.71-6.164c0.594-0.248,1.208-0.451,1.788-0.725
	c1.479-0.695,2.388-1.988,2.845-3.432c0.413-1.303,0.593-1.09,1.53-0.4c1.751,1.287,3.679,2.234,5.783,2.744l5.734-5.734
	C49.023,46.771,48.896,46.466,48.819,46.072z M30.461,16.873c-0.046,0.584-0.363,0.793-0.873,0.863
	c-0.348,0.047-0.7,0.066-0.817,0.521c-0.136,0.523,0.164,0.787,0.522,1.047c0.355,0.26,0.686,0.512,0.396,1.043
	c-0.168,0.307-0.312,0.568-0.723,0.469c-0.104-0.021-0.207-0.041-0.311-0.066c-0.433-0.104-0.804-0.119-1.12,0.32
	c-0.332,0.467-0.08,0.793,0.127,1.158c0.193,0.342,0.396,0.635-0.017,1.02c-0.395,0.367-0.694,0.346-1.107,0.074
	c-0.322-0.213-0.593-0.576-1.121-0.246c-0.561,0.35-0.36,0.781-0.308,1.211c0.049,0.391,0.027,0.691-0.415,0.84
	c-0.412,0.141-0.693,0.109-0.999-0.273c-0.914-1.15-1.344-1.072-1.837,0.328c-0.143,0.404-0.339,0.545-0.748,0.576
	c-0.461,0.035-0.647-0.172-0.727-0.574c-0.02-0.104-0.073-0.199-0.098-0.303c-0.09-0.371-0.137-0.709-0.647-0.818
	c-0.54-0.117-0.674,0.266-0.921,0.535c-0.271,0.293-0.417,0.736-1.005,0.441c-0.477-0.238-0.609-0.5-0.465-0.996
	c0.131-0.447,0.173-0.877-0.319-1.217c-0.473-0.326-0.81-0.047-1.15,0.162c-0.421,0.258-0.731,0.287-1.104-0.115
	c-0.367-0.396-0.196-0.668,0.029-1.014c0.218-0.334,0.555-0.625,0.229-1.137c-0.311-0.488-0.704-0.385-1.114-0.33
	c-0.412,0.053-0.751,0.061-0.952-0.42c-0.22-0.525,0.036-0.795,0.425-1.039c0.362-0.23,0.695-0.439,0.609-0.99
	c-0.088-0.564-0.5-0.635-0.904-0.732c-0.443-0.105-0.768-0.225-0.763-0.807c0.004-0.605,0.356-0.678,0.807-0.742
	c0.438-0.061,0.803-0.211,0.915-0.729s-0.283-0.676-0.563-0.922c-0.303-0.266-0.675-0.412-0.419-1.004
	c0.269-0.621,0.655-0.518,1.101-0.42c0.434,0.098,0.779,0.139,1.09-0.328c0.285-0.428,0.137-0.719-0.075-1.055
	c-0.259-0.412-0.411-0.754,0.053-1.201c0.465-0.449,0.752-0.17,1.088,0.072c0.332,0.24,0.63,0.4,1.062,0.164
	c0.447-0.244,0.418-0.586,0.368-0.986c-0.054-0.436-0.209-0.857,0.447-1.096c0.681-0.248,0.809,0.244,1.045,0.59
	c0.251,0.371,0.523,0.467,0.973,0.412c0.478-0.057,0.525-0.371,0.651-0.697c0.147-0.379,0.024-0.918,0.772-0.896
	c0.727,0.023,0.714,0.51,0.862,0.953c0.31,0.928,0.839,1.021,1.503,0.27c0.294-0.332,0.473-0.736,1.109-0.475
	c0.654,0.27,0.461,0.666,0.403,1.113c-0.048,0.361-0.206,0.725,0.274,1.008c0.445,0.264,0.781,0.221,1.159-0.057
	c0.416-0.303,0.761-0.334,1.18,0.094c0.471,0.477,0.069,0.75-0.112,1.09c-0.178,0.336-0.429,0.602-0.148,1.057
	c0.289,0.471,0.654,0.34,1.012,0.279c0.5-0.084,0.85-0.055,1.07,0.518c0.224,0.58-0.137,0.77-0.489,0.998
	c-0.38,0.244-0.629,0.492-0.539,1.023c0.089,0.525,0.459,0.555,0.822,0.674C30.036,16.234,30.513,16.224,30.461,16.873z"/>
<path fill="#6D6E70" d="M75.107,22.38c-0.453-0.49-0.992-0.881-1.24-1.59c-1.14-3.254-2.889-6.025-6.095-7.689
	c-0.637-0.33-1.421-0.406-1.926-1.037c-0.568-0.709-1.177-1.379-1.849-2.012c-2.483-2.342-5.424-3.748-8.674-4.641
	c-1.109-0.305-2.302-0.127-3.346-0.863c-1.362-0.959-2.776-1.627-4.236-2.002l8.625,8.625c0.597-0.695,0.993-1.494,2.309-0.953
	c1.391,0.572,0.981,1.418,0.856,2.365c-0.1,0.77-0.437,1.543,0.585,2.145c0.945,0.559,1.661,0.467,2.464-0.119
	c0.883-0.645,1.615-0.711,2.508,0.195c0.998,1.014,0.146,1.594-0.241,2.318c-0.377,0.713-0.909,1.279-0.315,2.244
	c0.615,1,1.392,0.725,2.151,0.596c1.062-0.18,1.806-0.117,2.275,1.098c0.475,1.232-0.293,1.637-1.041,2.121
	c-0.807,0.521-1.335,1.047-1.146,2.178c0.188,1.117,0.976,1.178,1.747,1.43c0.812,0.264,1.824,0.244,1.716,1.617
	c-0.097,1.246-0.772,1.686-1.857,1.836c-0.739,0.102-1.487,0.145-1.736,1.109c-0.287,1.111,0.35,1.674,1.11,2.227
	c0.756,0.549,1.456,1.088,0.841,2.215c-0.357,0.654-0.662,1.209-1.535,0.996c-0.22-0.047-0.441-0.09-0.66-0.143
	c-0.921-0.219-1.708-0.252-2.38,0.684c-0.708,0.988-0.171,1.684,0.27,2.461c0.411,0.727,0.84,1.35-0.037,2.166
	c-0.838,0.781-1.475,0.734-2.353,0.156c-0.667-0.439-1.232-1.182-2.301-0.568l-0.778,0.777c-0.262,0.578-0.034,1.213,0.044,1.844
	c0.103,0.828,0.058,1.467-0.882,1.785c-0.877,0.299-1.476,0.234-2.125-0.584c-0.013-0.016-0.024-0.029-0.036-0.045l-7.909,7.91
	c1.877,0.041,3.735-0.156,5.57-0.754c2.932-0.955,5.063-2.912,6.555-5.521c0.513-0.895,0.97-0.873,1.779-0.656
	c2.768,0.744,5.336,0.461,7.657-1.434c0.771-0.631,1.176-1.607,2.262-1.965c2.424-0.795,3.886-2.52,4.521-5.021
	c0.255-1.008,0.204-2.059,0.762-3.041C79.215,30.958,77.871,25.38,75.107,22.38z"/>
<path fill="#FFFFFF" d="M20.791,10.845c-3.182,0.301-5.593,3.271-5.239,6.457c0.353,3.18,3.219,5.479,6.402,5.133
	c3.185-0.344,5.538-3.205,5.227-6.355C26.873,12.968,23.922,10.55,20.791,10.845z M21.646,19.253
	c-1.356,0.16-2.566-0.834-2.716-2.232c-0.153-1.438,0.758-2.555,2.2-2.695c1.364-0.133,2.524,0.787,2.681,2.129
	C23.97,17.812,22.978,19.095,21.646,19.253z"/>
<path fill="#FFFFFF" d="M16.974,56.14c-0.344-0.637-1.224-0.344-1.83-0.432c-3.461-0.502-6.488-1.922-8.717-4.563
	c-0.041-0.049-0.08-0.098-0.12-0.146c0.421,0.811-0.129,1.303-0.491,1.859c-0.4,0.613-0.703,1.094-0.054,1.795
	c0.662,0.715,1.21,0.662,1.956,0.203c0.604-0.369,1.199-0.863,2.037-0.285c0.869,0.602,0.796,1.361,0.564,2.154
	c-0.256,0.879-0.021,1.342,0.823,1.764c1.041,0.521,1.3-0.264,1.778-0.783c0.438-0.477,0.674-1.152,1.631-0.947
	c0.904,0.195,0.986,0.793,1.146,1.451c0.043,0.182,0.138,0.354,0.173,0.535c0.141,0.711,0.471,1.078,1.286,1.016
	c0.726-0.055,1.071-0.305,1.323-1.02c0.151-0.43,0.299-0.787,0.449-1.076C18.071,57.478,17.438,57,16.974,56.14z"/>
<path fill="#FFFFFF" d="M3.315,47.681c-0.687,0.434-1.142,0.91-0.752,1.84c0.355,0.848,0.957,0.838,1.687,0.742
	c0.584-0.076,1.148-0.209,1.633,0.191C5.08,49.369,4.489,48.214,4.167,47C3.958,47.273,3.644,47.472,3.315,47.681z"/>
<path fill="#FFFFFF" d="M4.552,41.55c0.157-0.396,0.121-0.572-0.121-0.736c-0.25,0.744-0.851,0.979-1.561,1.078
	c-0.797,0.111-1.421,0.24-1.429,1.314c-0.008,1.027,0.567,1.238,1.351,1.428c0.395,0.094,0.793,0.174,1.097,0.395
	C3.87,43.91,4.077,42.75,4.552,41.55z"/>
<path fill="#6D6E70" d="M58.818,42.322l0.778-0.777c-0.028,0.016-0.055,0.029-0.083,0.047C59.147,41.82,58.934,42.066,58.818,42.322
	z"/>
<g>
	<path fill="#FFFFFF" d="M92.671,0h5.089v37.695h-5.089V0z"/>
	<path fill="#FFFFFF" d="M106.104,0h9.144c7.238,0,12.624,1.913,16.154,5.74c3.531,3.827,5.297,8.195,5.297,13.107
		c0,4.951-1.825,9.33-5.474,13.137c-3.649,3.808-8.956,5.71-15.919,5.71h-9.202V0z M111.252,5.03v27.576h0.296
		c3.827,0,6.707-0.173,8.64-0.519c1.934-0.345,3.768-1.099,5.504-2.263c1.735-1.164,3.116-2.708,4.143-4.631
		c1.025-1.923,1.538-4.039,1.538-6.347c0-2.899-0.818-5.522-2.456-7.87c-1.637-2.348-3.595-3.926-5.873-4.734
		s-5.341-1.213-9.188-1.213H111.252z"/>
	<path fill="#FFFFFF" d="M142.232,0h20.889v5.148h-15.8v9.409h15.8v5.089h-15.8v12.96h15.8v5.088h-20.889V0z"/>
	<path fill="#FFFFFF" d="M183.256-1.45l17.797,39.145h-5.396l-4.374-9.645h-15.996l-4.325,9.645h-5.355L183.256-1.45z
		 M183.242,10.314l-6.029,13.444h12.125L183.242,10.314z"/>
</g>
<g>
	<path fill="#6D6E70" d="M92.417,43.263h5.285c2.987,0,5.396,0.701,7.227,2.105c1.831,1.404,2.746,3.229,2.746,5.471
		c0,2.258-0.967,4.15-2.9,5.68c-1.935,1.527-4.87,2.27-8.807,2.229v10.82h-3.551V43.263z M95.968,46.402v9.207
		c2.698-0.027,4.697-0.408,5.998-1.145s1.951-1.918,1.951-3.541c0-1.225-0.492-2.285-1.476-3.18
		C101.458,46.849,99.299,46.402,95.968,46.402z"/>
	<path fill="#6D6E70" d="M116.368,52.533v3.51c0.799-1.402,1.58-2.418,2.344-3.045c0.764-0.625,1.758-0.939,2.983-0.939
		c0.344,0,0.84,0.082,1.486,0.248l-1.094,3.592c-0.688-0.137-1.143-0.205-1.363-0.205c-1.211,0-2.227,0.422-3.045,1.27
		c-0.819,0.846-1.229,1.902-1.229,3.17v9.436h-3.593V52.533H116.368z"/>
	<path fill="#6D6E70" d="M124.648,60.978c0-2.326,0.919-4.395,2.757-6.205c1.837-1.809,3.946-2.715,6.328-2.715
		c2.45,0,4.591,0.893,6.421,2.674c1.831,1.783,2.746,3.865,2.746,6.246c0,2.395-0.897,4.504-2.694,6.328
		c-1.796,1.824-3.871,2.736-6.225,2.736c-2.52,0-4.705-0.902-6.556-2.705C125.574,65.535,124.648,63.414,124.648,60.978z
		 M139.431,60.988c0-1.447-0.551-2.705-1.651-3.775c-1.102-1.068-2.409-1.604-3.923-1.604c-1.556,0-2.895,0.543-4.017,1.625
		s-1.683,2.375-1.683,3.879c0,1.434,0.568,2.689,1.704,3.766c1.135,1.074,2.467,1.613,3.995,1.613c1.486,0,2.787-0.553,3.902-1.656
		C138.874,63.732,139.431,62.451,139.431,60.988z"/>
	<path fill="#6D6E70" d="M146.121,46.98c0-0.758,0.275-1.412,0.826-1.963s1.204-0.826,1.962-0.826c0.757,0,1.41,0.275,1.961,0.826
		s0.826,1.205,0.826,1.963c0,0.756-0.275,1.414-0.826,1.971c-0.551,0.559-1.204,0.836-1.961,0.836c-0.758,0-1.411-0.277-1.962-0.836
		C146.396,48.394,146.121,47.736,146.121,46.98z M147.132,52.533h3.593v25.025h-3.593V52.533z"/>
	<path fill="#6D6E70" d="M173.024,61.742h-14.535c0.316,1.748,1.035,3.025,2.157,3.83s2.344,1.209,3.665,1.209
		c2.037,0,3.744-0.848,5.12-2.541l2.623,1.982c-1.969,2.547-4.604,3.82-7.908,3.82c-2.533,0-4.653-0.867-6.359-2.602
		c-1.707-1.734-2.561-3.889-2.561-6.463c0-2.408,0.864-4.498,2.592-6.266c1.727-1.77,3.837-2.654,6.328-2.654
		c2.45,0,4.549,0.898,6.297,2.695C172.191,56.548,173.051,58.878,173.024,61.742z M158.86,58.873h10.406
		c-1.156-2.34-2.863-3.51-5.12-3.51C161.682,55.363,159.92,56.533,158.86,58.873z"/>
	<path fill="#6D6E70" d="M189.935,64.365v4.107c-1.831,1.047-3.606,1.57-5.327,1.57c-2.354,0-4.415-0.885-6.184-2.654
		c-1.769-1.768-2.653-3.814-2.653-6.143c0-2.643,0.881-4.834,2.643-6.576c1.762-1.74,3.972-2.611,6.628-2.611
		c1.583,0,3.214,0.414,4.894,1.238v4.006c-1.804-1.156-3.51-1.734-5.12-1.734c-1.487,0-2.788,0.523-3.902,1.57
		c-1.115,1.045-1.673,2.271-1.673,3.674c0,1.584,0.523,2.916,1.569,3.996s2.326,1.621,3.84,1.621
		C186.191,66.429,187.953,65.742,189.935,64.365z"/>
	<path fill="#6D6E70" d="M194.581,47.578h3.592v4.955h3.552v3.283h-3.552v13.752h-3.592V55.816h-2.829v-3.324h2.829V47.578z"/>
</g>
</svg>
