<?xml version="1.0" encoding="utf-8"?>
<!-- Generator: Adobe Illustrator 16.0.3, SVG Export Plug-In . SVG Version: 6.00 Build 0)  -->
<!DOCTYPE svg PUBLIC "-//W3C//DTD SVG 1.1//EN" "http://www.w3.org/Graphics/SVG/1.1/DTD/svg11.dtd">
<svg version="1.1" id="Layer_1" xmlns="http://www.w3.org/2000/svg" xmlns:xlink="http://www.w3.org/1999/xlink" x="0px" y="0px"
	 width="202.042px" height="80.67px" viewBox="0 -1.662 202.042 80.67" enable-background="new 0 -1.662 202.042 80.67"
	 xml:space="preserve">
<path fill="#15ADDD" d="M4.37,46.209c-0.069-0.449-0.255-0.723-0.504-0.901c0.013,0.673,0.107,1.33,0.277,1.971
	C4.342,47.016,4.444,46.684,4.37,46.209z"/>
<path fill="#15ADDD" d="M27.878,42.911c-0.545-5.511-5.768-9.79-11.311-9.267c-5.633,0.533-9.9,5.79-9.275,11.431
	c0.624,5.627,5.698,9.694,11.333,9.086C24.262,53.551,28.428,48.485,27.878,42.911z M18.081,48.526
	c-2.401,0.284-4.543-1.475-4.808-3.947c-0.271-2.549,1.342-4.525,3.895-4.773c2.416-0.235,4.469,1.395,4.746,3.768
	C22.195,45.976,20.439,48.249,18.081,48.526z"/>
<path fill="#15ADDD" d="M49.659,15.88c-6.763,0.639-11.886,6.95-11.136,13.721c0.749,6.756,6.841,11.642,13.606,10.909
	c2.526-0.273,4.806-1.292,6.637-2.81l1.193-1.192l0.03,0.03c2.317-2.509,3.604-5.933,3.248-9.535
	c-0.267-2.69-1.462-5.137-3.234-7.051l-0.044,0.045l-1.311-1.311C56.175,16.678,52.965,15.567,49.659,15.88z M56.078,27.798
	c0.338,2.887-1.771,5.614-4.602,5.948c-2.883,0.341-5.455-1.771-5.771-4.74c-0.327-3.06,1.609-5.434,4.675-5.731
	C53.28,22.992,55.745,24.948,56.078,27.798z"/>
<path fill="#15ADDD" d="M5.859,50.734c0.136,0.185,0.277,0.364,0.425,0.544c-0.025-0.049-0.053-0.098-0.086-0.148
	C6.091,50.959,5.978,50.833,5.859,50.734z"/>
<path fill="#15ADDD" d="M48.796,46.351c-0.043-0.22-0.156-0.425-0.209-0.646c-0.19-0.789-0.289-1.506-1.375-1.74
	c-1.149-0.248-1.432,0.563-1.958,1.137c-0.575,0.624-0.886,1.564-2.135,0.941c-1.013-0.508-1.296-1.063-0.988-2.117
	c0.278-0.953,0.366-1.865-0.679-2.588c-1.004-0.694-1.72-0.103-2.445,0.345c-0.896,0.549-1.554,0.612-2.348-0.244
	c-0.78-0.845-0.416-1.419,0.063-2.156c0.462-0.71,1.178-1.328,0.488-2.412c-0.662-1.04-1.497-0.819-2.369-0.705
	c-0.875,0.115-1.597,0.128-2.024-0.891c-0.467-1.115,0.078-1.688,0.903-2.209c0.771-0.488,1.477-0.932,1.295-2.103
	c-0.186-1.202-1.062-1.351-1.922-1.557c-0.941-0.225-1.631-0.48-1.622-1.714c0.01-1.289,0.759-1.443,1.715-1.578
	c0.931-0.13,1.706-0.45,1.946-1.551c0.238-1.099-0.602-1.435-1.196-1.958c-0.643-0.566-1.435-0.876-0.89-2.134
	c0.571-1.32,1.394-1.101,2.339-0.89c0.921,0.204,1.656,0.292,2.317-0.7c0.604-0.909,0.289-1.526-0.161-2.241
	c-0.551-0.874-0.873-1.603,0.111-2.555c0.988-0.953,1.598-0.36,2.312,0.155c0.707,0.51,1.339,0.85,2.257,0.35
	c0.951-0.519,0.889-1.243,0.783-2.096c-0.115-0.926-0.445-1.823,0.95-2.33c1.447-0.525,1.719,0.521,2.219,1.256
	c0.534,0.786,1.114,0.988,2.067,0.874c1.016-0.121,1.118-0.789,1.386-1.48c0.112-0.288,0.15-0.62,0.228-0.925L42.64,2.676
	c-0.617,0.114-1.24,0.275-1.871,0.483c-0.477,0.157-0.783,0.005-1.065-0.227c-1.922-1.579-4.182-2.113-6.352-2.22
	c-2.981,0.013-5.482,0.719-7.7,2.39c-0.497,0.374-0.944,0.928-1.693,0.894c-1.798-0.08-3.463,0.37-5.136,1.049
	c-3.223,1.309-5.541,3.489-6.878,6.664c-0.24,0.571-0.557,0.726-1.017,0.851c-2.282,0.626-4.075,1.853-5.337,3.923
	c-0.483,0.793-0.578,1.777-1.332,2.427c-2.202,1.897-3.406,4.365-3.786,7.198c-0.288,2.147-0.078,4.335-0.414,6.493
	c-0.47,3.015,1.082,6.906,4.104,8.354c0.099,0.047,0.177,0.092,0.244,0.137c0.022-0.068,0.043-0.139,0.06-0.215
	c0.198-0.916-0.501-1.194-0.995-1.631c-0.536-0.472-1.195-0.729-0.742-1.777c0.477-1.1,1.16-0.917,1.949-0.741
	c0.766,0.171,1.379,0.243,1.929-0.583c0.503-0.758,0.241-1.271-0.134-1.867c-0.459-0.728-0.727-1.334,0.094-2.127
	c0.822-0.794,1.33-0.301,1.925,0.129c0.588,0.424,1.115,0.708,1.88,0.291c0.791-0.432,0.739-1.035,0.651-1.746
	c-0.095-0.771-0.37-1.519,0.792-1.94c1.205-0.438,1.432,0.435,1.849,1.046c0.444,0.655,0.928,0.823,1.722,0.729
	c0.846-0.101,0.931-0.657,1.154-1.233c0.261-0.671,0.043-1.626,1.367-1.586c1.286,0.039,1.264,0.901,1.526,1.687
	c0.549,1.64,1.484,1.807,2.659,0.478c0.522-0.59,0.838-1.306,1.965-0.842c1.158,0.476,0.816,1.18,0.713,1.97
	c-0.083,0.641-0.363,1.284,0.487,1.786c0.787,0.465,1.384,0.388,2.053-0.101c0.734-0.536,1.345-0.592,2.088,0.164
	c0.832,0.844,0.121,1.327-0.2,1.932c-0.315,0.593-0.758,1.064-0.264,1.868c0.514,0.833,1.159,0.603,1.793,0.496
	c0.884-0.149,1.503-0.097,1.894,0.914c0.396,1.027-0.242,1.364-0.866,1.767c-0.671,0.434-1.111,0.873-0.953,1.814
	c0.156,0.932,0.812,0.98,1.454,1.189c0.676,0.221,1.52,0.203,1.43,1.349c-0.081,1.037-0.644,1.403-1.547,1.528
	c-0.616,0.084-1.239,0.119-1.447,0.925c-0.238,0.926,0.292,1.394,0.925,1.854c0.631,0.457,1.214,0.905,0.701,1.844
	c-0.298,0.545-0.552,1.009-1.278,0.83c-0.184-0.039-0.368-0.072-0.55-0.117c-0.767-0.182-1.424-0.211-1.982,0.568
	c-0.59,0.823-0.143,1.402,0.224,2.051c0.343,0.604,0.7,1.123-0.03,1.803c-0.698,0.65-1.229,0.613-1.96,0.131
	c-0.569-0.375-1.05-1.02-1.985-0.436c-0.992,0.621-0.636,1.387-0.543,2.146c0.086,0.688,0.049,1.222-0.734,1.487
	c-0.73,0.248-1.229,0.193-1.77-0.486c-1.337-1.684-2.089-1.877-2.803-0.494c0.101,0.021,0.204,0.041,0.312,0.057
	c0.441,0.059,0.4,0.211,0.279,0.578c-0.562,1.707-1.073,3.43-1.597,5.146c-0.221,0.727-0.223,1.439,0.081,2.158
	c0.688,1.625,1.575,3.146,2.396,4.699c0.272,0.515,0.684,0.644,1.258,0.531c0.918-0.178,1.083-0.88,1.32-1.611
	c0.924-2.854,1.554-5.812,2.863-8.535c1.268-2.637,2.871-4.977,5.71-6.164c0.594-0.248,1.208-0.45,1.788-0.725
	c1.479-0.695,2.388-1.988,2.845-3.433c0.413-1.302,0.593-1.09,1.53-0.399c1.751,1.287,3.679,2.234,5.783,2.744l5.734-5.734
	C49,47.049,48.873,46.745,48.796,46.351z M30.438,17.151c-0.046,0.585-0.363,0.793-0.873,0.863c-0.348,0.048-0.7,0.067-0.817,0.521
	c-0.136,0.523,0.164,0.788,0.522,1.048c0.355,0.259,0.686,0.512,0.396,1.042c-0.168,0.308-0.312,0.569-0.723,0.469
	c-0.104-0.021-0.207-0.041-0.311-0.066c-0.433-0.104-0.804-0.119-1.12,0.321c-0.332,0.466-0.08,0.792,0.127,1.158
	c0.193,0.342,0.396,0.635-0.017,1.019c-0.395,0.367-0.694,0.347-1.107,0.074c-0.322-0.212-0.593-0.576-1.121-0.246
	c-0.561,0.351-0.36,0.782-0.308,1.212c0.049,0.39,0.027,0.69-0.415,0.84c-0.412,0.141-0.693,0.109-0.999-0.274
	c-0.914-1.149-1.344-1.071-1.837,0.329c-0.143,0.404-0.339,0.545-0.748,0.576c-0.461,0.035-0.647-0.172-0.727-0.574
	c-0.02-0.104-0.073-0.199-0.098-0.303c-0.09-0.371-0.137-0.709-0.647-0.819c-0.54-0.116-0.674,0.266-0.921,0.535
	c-0.271,0.294-0.417,0.736-1.005,0.442c-0.477-0.238-0.609-0.5-0.465-0.996c0.131-0.448,0.173-0.878-0.319-1.218
	c-0.473-0.326-0.81-0.047-1.15,0.162c-0.421,0.259-0.731,0.288-1.104-0.114c-0.367-0.397-0.196-0.668,0.029-1.015
	c0.218-0.334,0.555-0.625,0.229-1.136c-0.311-0.488-0.704-0.385-1.114-0.331c-0.412,0.054-0.751,0.061-0.952-0.42
	c-0.22-0.524,0.036-0.794,0.425-1.039c0.362-0.229,0.695-0.438,0.609-0.989c-0.088-0.565-0.5-0.635-0.904-0.732
	c-0.443-0.105-0.768-0.226-0.763-0.807c0.004-0.606,0.356-0.679,0.807-0.742c0.438-0.061,0.803-0.212,0.915-0.729
	c0.112-0.517-0.283-0.675-0.563-0.921c-0.303-0.267-0.675-0.412-0.419-1.004c0.269-0.622,0.655-0.519,1.101-0.42
	c0.434,0.097,0.779,0.138,1.09-0.329c0.285-0.428,0.137-0.718-0.075-1.055c-0.259-0.411-0.411-0.754,0.053-1.201
	c0.465-0.449,0.752-0.17,1.088,0.072c0.332,0.24,0.63,0.4,1.062,0.165c0.447-0.244,0.418-0.586,0.368-0.986
	c-0.054-0.436-0.209-0.858,0.447-1.097c0.681-0.247,0.809,0.245,1.045,0.591c0.251,0.37,0.523,0.466,0.973,0.412
	c0.478-0.058,0.525-0.372,0.651-0.697c0.147-0.379,0.024-0.919,0.772-0.896c0.727,0.022,0.714,0.51,0.862,0.953
	c0.31,0.927,0.839,1.021,1.503,0.27c0.295-0.334,0.473-0.738,1.11-0.476c0.654,0.27,0.461,0.667,0.403,1.113
	c-0.048,0.361-0.206,0.726,0.274,1.009c0.445,0.263,0.781,0.22,1.159-0.057c0.416-0.303,0.761-0.334,1.18,0.093
	c0.471,0.478,0.069,0.75-0.112,1.091c-0.178,0.335-0.429,0.602-0.148,1.056c0.289,0.471,0.654,0.341,1.012,0.28
	c0.5-0.084,0.85-0.055,1.07,0.517c0.224,0.58-0.137,0.771-0.489,0.998c-0.38,0.245-0.629,0.493-0.539,1.024
	c0.089,0.525,0.459,0.555,0.822,0.673C30.013,16.513,30.49,16.504,30.438,17.151z"/>
<path fill="#FFFFFF" d="M75.084,22.66c-0.453-0.491-0.992-0.881-1.24-1.59c-1.14-3.254-2.889-6.025-6.095-7.69
	c-0.637-0.33-1.421-0.405-1.926-1.036c-0.568-0.71-1.177-1.38-1.849-2.013C61.491,7.99,58.55,6.583,55.3,5.69
	c-1.109-0.305-2.302-0.127-3.346-0.862c-1.362-0.96-2.776-1.627-4.236-2.002l8.625,8.625c0.597-0.696,0.993-1.495,2.309-0.953
	c1.391,0.572,0.981,1.417,0.856,2.365c-0.1,0.769-0.437,1.542,0.585,2.145c0.945,0.559,1.661,0.466,2.464-0.12
	c0.883-0.645,1.615-0.711,2.508,0.196c0.998,1.014,0.146,1.594-0.241,2.318c-0.377,0.712-0.909,1.279-0.315,2.244
	c0.615,1,1.392,0.724,2.151,0.596c1.062-0.18,1.806-0.117,2.275,1.097c0.475,1.233-0.293,1.638-1.041,2.121
	c-0.807,0.521-1.335,1.048-1.146,2.179c0.188,1.117,0.976,1.177,1.747,1.429c0.812,0.264,1.824,0.244,1.716,1.618
	c-0.097,1.245-0.772,1.686-1.857,1.835c-0.739,0.102-1.487,0.145-1.736,1.11c-0.287,1.11,0.35,1.674,1.11,2.226
	c0.756,0.549,1.456,1.088,0.841,2.215c-0.357,0.654-0.662,1.209-1.535,0.996c-0.22-0.047-0.441-0.089-0.66-0.142
	c-0.921-0.219-1.708-0.253-2.38,0.684c-0.708,0.988-0.171,1.684,0.27,2.461c0.411,0.727,0.84,1.35-0.037,2.165
	c-0.838,0.781-1.475,0.735-2.353,0.156c-0.667-0.438-1.232-1.181-2.301-0.567l-0.778,0.777c-0.262,0.578-0.034,1.213,0.044,1.844
	c0.103,0.828,0.058,1.467-0.882,1.785c-0.877,0.298-1.476,0.232-2.125-0.584c-0.013-0.016-0.024-0.029-0.036-0.045l-7.909,7.908
	c1.877,0.043,3.735-0.154,5.57-0.752c2.932-0.957,5.063-2.912,6.555-5.521c0.513-0.896,0.97-0.874,1.779-0.656
	c2.768,0.744,5.336,0.461,7.657-1.435c0.771-0.63,1.176-1.606,2.262-1.964c2.424-0.795,3.886-2.52,4.521-5.022
	c0.255-1.008,0.204-2.058,0.762-3.04C79.192,31.238,77.848,25.659,75.084,22.66z"/>
<path fill="#15ADDD" d="M20.768,11.125c-3.182,0.301-5.593,3.271-5.239,6.457c0.353,3.179,3.219,5.478,6.402,5.133
	c3.185-0.345,5.538-3.206,5.227-6.355C26.85,13.247,23.899,10.83,20.768,11.125z M21.623,19.532
	c-1.356,0.16-2.566-0.833-2.716-2.231c-0.153-1.438,0.758-2.556,2.2-2.696c1.364-0.133,2.524,0.788,2.681,2.129
	C23.947,18.092,22.955,19.375,21.623,19.532z"/>
<path fill="#15ADDD" d="M16.951,56.42c-0.344-0.639-1.224-0.344-1.83-0.433c-3.461-0.503-6.488-1.922-8.717-4.563
	c-0.041-0.049-0.08-0.098-0.12-0.146c0.421,0.812-0.129,1.304-0.491,1.859c-0.4,0.614-0.703,1.094-0.054,1.796
	c0.662,0.715,1.21,0.66,1.956,0.203c0.604-0.37,1.199-0.864,2.037-0.286c0.869,0.603,0.796,1.362,0.564,2.155
	c-0.256,0.877-0.021,1.342,0.823,1.764c1.041,0.521,1.3-0.264,1.778-0.784c0.438-0.476,0.674-1.151,1.631-0.946
	c0.904,0.195,0.986,0.793,1.146,1.451c0.043,0.182,0.138,0.354,0.173,0.535c0.141,0.711,0.471,1.078,1.286,1.016
	c0.726-0.056,1.071-0.305,1.323-1.021c0.151-0.429,0.299-0.786,0.449-1.076C18.048,57.756,17.415,57.279,16.951,56.42z"/>
<path fill="#15ADDD" d="M3.292,47.959c-0.687,0.435-1.142,0.912-0.752,1.84c0.355,0.85,0.957,0.839,1.687,0.742
	c0.584-0.076,1.148-0.209,1.633,0.192c-0.803-1.087-1.394-2.241-1.716-3.456C3.935,47.551,3.621,47.752,3.292,47.959z"/>
<path fill="#15ADDD" d="M4.529,41.831c0.157-0.397,0.121-0.574-0.121-0.736c-0.25,0.742-0.851,0.979-1.561,1.076
	c-0.797,0.113-1.421,0.24-1.429,1.314c-0.008,1.027,0.567,1.239,1.351,1.428c0.395,0.094,0.793,0.176,1.097,0.396
	C3.847,44.189,4.054,43.029,4.529,41.831z"/>
<path fill="#32B182" d="M58.767,37.7c0.435-0.359,0.843-0.749,1.224-1.162l-0.03-0.03L58.767,37.7z"/>
<path fill="#32B182" d="M58.795,42.601l0.778-0.778c-0.028,0.018-0.055,0.029-0.083,0.047
	C59.124,42.099,58.911,42.344,58.795,42.601z"/>
<text transform="matrix(1 0 0 1 88.8018 37.9741)" fill="#15ADDD" font-family="'TwCenMT-Regular'" font-size="60.5969">IDEA</text>
<text transform="matrix(1 0 0 1 88.8018 69.8462)" fill="#FFFFFF" font-family="'TwCenMT-Regular'" font-size="42.2859">Project</text>
</svg>
