<?xml version="1.0" encoding="utf-8"?>
<!-- Generator: Adobe Illustrator 16.0.3, SVG Export Plug-In . SVG Version: 6.00 Build 0)  -->
<!DOCTYPE svg PUBLIC "-//W3C//DTD SVG 1.1//EN" "http://www.w3.org/Graphics/SVG/1.1/DTD/svg11.dtd">
<svg version="1.1" id="Layer_1" xmlns="http://www.w3.org/2000/svg" xmlns:xlink="http://www.w3.org/1999/xlink" x="0px" y="0px"
	 width="157.426px" height="144.783px" viewBox="0 0 157.426 144.783" enable-background="new 0 0 157.426 144.783"
	 xml:space="preserve">
<g>
	<g>
		<g>
			<path fill-rule="evenodd" clip-rule="evenodd" fill="#9E332B" d="M78.02,99.58c24.755,3.183,49.511,6.357,74.264,9.559
				c3.717,0.48,5.958-2.063,4.864-5.559c-0.383-1.227-1.38-0.882-2.147-0.99c-3.707-0.527-7.418-1.049-11.143-1.427
				c-1.807-0.183-3.283-0.442-2.889-2.769c0.284-1.677-0.764-2.458-2.004-3.192c-5.897-3.493-11.815-6.954-17.646-10.556
				c-2.156-1.332-2.766-0.896-2.669,1.532c0.115,2.866-0.092,5.746,0.064,8.608c0.122,2.237-0.401,2.987-2.89,2.769
				c-8.498-0.749-8.507-0.635-8.507-9.025c0-22.836-0.039-45.673,0.054-68.509c0.01-2.528-0.653-4-2.972-5.276
				C95.79,10.008,87.322,5.013,78.8,0.115c-0.038,30.926-0.075,61.853-0.112,92.78C78.465,95.123,78.243,97.352,78.02,99.58z"/>
			<path fill-rule="evenodd" clip-rule="evenodd" fill="#E5453B" d="M78.02,99.58c0.223-2.229,0.445-4.457,0.668-6.686
				c-1.225-1.268-0.648-2.851-0.65-4.278C78,60.801,78.021,32.985,77.98,5.169c-0.002-1.535,0.652-3.282-0.868-4.563
				c-8.508,4.946-16.974,9.966-25.556,14.779c-1.945,1.09-2.024,2.488-2.022,4.296c0.028,24.325-0.037,48.649,0.092,72.973
				c0.016,2.945-0.63,3.96-3.722,4.311c-8.475,0.963-8.453,1.157-8.453-7.437c0-1.743,0-3.485,0-5.523
				c-3.239,0.875-5.611,2.915-8.244,4.414c-3.792,2.159-7.469,4.517-11.253,6.688c-1.702,0.977-3.185,1.879-2.841,4.237
				c0.229,1.57-0.995,1.69-2.189,1.83c-3.469,0.406-6.917,1.08-10.396,1.276c-2.603,0.146-2.801,1.392-2.323,3.396
				c0.427,1.791-0.066,4.007,3.266,3.537c11.977-1.689,23.994-3.088,35.989-4.656C52.318,103.047,65.167,101.299,78.02,99.58z"/>
			<path fill-rule="evenodd" clip-rule="evenodd" fill="#999490" d="M70.059,144.783c23.963,0.002,39.923-3.117,54.253-12.365
				c7.323-4.725,12.885-10.934,16.063-19.167c0.829-2.146,0.688-2.999-1.946-3.271c-6.439-0.666-12.841-1.695-19.255-2.598
				c-1.055-0.148-1.945-0.023-2.703,0.831c-7.175,8.087-16.952,10.677-27.01,12.247c-13.711,2.143-27.122,0.893-39.873-5.02
				c-2.611-1.211-5.494-2.41-7.11-4.703c-2.412-3.423-5.47-3.165-8.801-2.719c-4.939,0.661-9.857,1.647-14.817,1.945
				c-3.679,0.222-3.398,1.752-2.358,4.26c3.327,8.016,9.004,14.01,16.208,18.596C46.282,141.459,61.348,144.711,70.059,144.783z"/>
			<path fill-rule="evenodd" clip-rule="evenodd" fill="#E64940" d="M37.46,67.261c-7.405,4.431-14.213,8.518-21.039,12.575
				c-0.982,0.583-1.305,1.375-1.289,2.47c0.041,2.865,0.066,5.732-0.007,8.596c-0.046,1.777,0.449,2.325,2.107,1.324
				c6.289-3.8,12.578-7.6,18.904-11.337c1.167-0.69,1.353-1.606,1.338-2.797C37.433,74.731,37.46,71.37,37.46,67.261z"/>
			<path fill-rule="evenodd" clip-rule="evenodd" fill="#A03830" d="M140.974,92.343c0-3.451-0.072-6.908,0.033-10.36
				c0.046-1.521-0.754-2.198-1.891-2.872c-5.992-3.557-11.97-7.136-17.924-10.754c-1.65-1.003-2.48-1.321-2.579,1.271
				c-0.371,9.775-0.456,9.78,7.907,14.753c4.491,2.671,8.999,5.312,13.51,7.949C140.206,92.432,140.495,92.343,140.974,92.343z"/>
			<path fill-rule="evenodd" clip-rule="evenodd" fill="#E64A41" d="M37.457,54.514c-7.431,4.456-14.351,8.578-21.232,12.763
				c-0.968,0.589-1.661,8.163-0.892,8.871c0.69,0.636,1.371,0.174,2.021-0.217c6.195-3.716,12.39-7.433,18.596-11.13
				c0.912-0.543,1.549-1.151,1.523-2.334C37.419,60.027,37.457,57.585,37.457,54.514z"/>
			<path fill-rule="evenodd" clip-rule="evenodd" fill="#A13931" d="M140.974,76.808c0-2.974,0.003-5.291-0.001-7.608
				c-0.002-0.748-0.043-1.42-0.84-1.894c-6.999-4.158-13.977-8.352-21.467-12.838c0,2.984,0.006,5.301-0.003,7.617
				c-0.003,0.764,0.062,1.44,0.835,1.9C126.494,68.146,133.479,72.329,140.974,76.808z"/>
			<path fill-rule="evenodd" clip-rule="evenodd" fill="#A13931" d="M118.664,42.438c0,2.657,0.099,4.62-0.03,6.567
				c-0.107,1.612,0.621,2.463,1.932,3.233c6.004,3.526,11.977,7.106,17.922,10.73c1.721,1.05,2.323,1.178,2.584-1.288
				c0.443-4.198-0.788-6.798-4.729-8.806C130.498,49.896,125.004,46.229,118.664,42.438z"/>
			<path fill-rule="evenodd" clip-rule="evenodd" fill="#E64C43" d="M37.569,47.615c-0.414-1.426,0.661-3.223-0.651-3.929
				s-2.415,0.92-3.55,1.584c-5.267,3.079-10.476,6.255-15.715,9.382c-2.046,1.221-3.533,6.425-2.425,8.461
				c0.547,1.006,1.246,0.575,1.849,0.217c6.539-3.878,13.08-7.751,19.574-11.703C38.295,50.625,37,48.82,37.569,47.615z"/>
			<path fill-rule="evenodd" clip-rule="evenodd" fill="#A13A33" d="M140.596,42.755c1.414-4.96-0.299-7.703-4.531-9.792
				c-5.837-2.882-11.34-6.438-16.987-9.704c-1.503,4.673,0.223,7.123,4.114,9.149C129.101,35.484,134.678,39.194,140.596,42.755z"/>
			<path fill-rule="evenodd" clip-rule="evenodd" fill="#E64C43" d="M37.66,23.392c-7.695,4.506-14.606,8.413-21.355,12.58
				c-2.343,1.447-1.069,4.107-0.946,6.197c0.057,0.96,1.188,0.342,1.783-0.014c6.312-3.767,12.636-7.515,18.91-11.344
				C38.749,29.165,36.985,26.519,37.66,23.392z"/>
			<path fill-rule="evenodd" clip-rule="evenodd" fill="#E64D44" d="M14.951,52.878c7.679-4.582,14.557-8.566,21.297-12.771
				c2.362-1.474,0.897-3.987,1.202-6.748c-7.424,4.459-14.376,8.538-21.216,12.797C13.927,47.593,15.605,50.044,14.951,52.878z"/>
			<path fill-rule="evenodd" clip-rule="evenodd" fill="#A13A33" d="M140.55,52.121c1.385-4.406-0.263-6.529-3.624-8.286
				c-4.96-2.594-9.61-5.773-14.494-8.522c-1.043-0.587-2.537-2.802-3.519-0.895c-0.715,1.388-1.223,4.008,1.017,5.362
				C126.718,43.882,133.539,47.93,140.55,52.121z"/>
			<path fill-rule="evenodd" clip-rule="evenodd" fill="#D6766F" d="M77.112,0.606c1.521,1.281,0.866,3.028,0.868,4.563
				c0.041,27.816,0.02,55.632,0.058,83.447c0.001,1.428-0.575,3.011,0.65,4.278c0.037-30.927,0.074-61.854,0.112-92.78
				C78.133-0.081,77.519-0.091,77.112,0.606z"/>
		</g>
	</g>
</g>
</svg>
