<?xml version="1.0" encoding="utf-8"?>
<!-- Generator: Adobe Illustrator 16.0.3, SVG Export Plug-In . SVG Version: 6.00 Build 0)  -->
<!DOCTYPE svg PUBLIC "-//W3C//DTD SVG 1.1//EN" "http://www.w3.org/Graphics/SVG/1.1/DTD/svg11.dtd">
<svg version="1.1" id="Layer_1" xmlns="http://www.w3.org/2000/svg" xmlns:xlink="http://www.w3.org/1999/xlink" x="0px" y="0px"
	 width="508.247px" height="144.783px" viewBox="0 0 508.247 144.783" enable-background="new 0 0 508.247 144.783"
	 xml:space="preserve">
<g>
	<g>
		<g>
			<path fill-rule="evenodd" clip-rule="evenodd" fill="#4B4240" d="M228.863,101.913c-9.726-11.26-18.756-21.708-27.78-32.163
				c-5.868-6.8-11.747-13.591-17.567-20.433c-1.049-1.233-2.137-1.884-3.822-1.847c-4.495,0.099-8.997,0.112-13.491-0.002
				c-2.002-0.051-2.864,0.393-2.857,2.654c0.075,25.455,0.071,50.911,0.005,76.366c-0.005,2.105,0.821,2.463,2.651,2.418
				c4.37-0.104,8.754-0.207,13.114,0.031c2.713,0.148,3.266-0.783,3.247-3.338c-0.12-15.471-0.06-30.944-0.06-46.417
				c0-1.226,0-2.451,0-4.501c1.425,1.55,2.399,2.561,3.317,3.619c13.9,16.014,27.823,32.01,41.648,48.09
				c1.624,1.889,3.297,2.658,5.757,2.533c3.738-0.191,7.508-0.258,11.236,0.014c3.07,0.225,3.963-0.654,3.939-3.834
				c-0.15-21.834-0.078-43.672-0.078-65.508c0-3.12-0.117-6.245,0.039-9.356c0.109-2.163-0.703-2.825-2.795-2.771
				c-4.494,0.117-9,0.173-13.489-0.018c-2.568-0.109-3.079,0.875-3.064,3.238c0.096,15.722,0.05,31.444,0.05,47.167
				C228.863,98.834,228.863,99.814,228.863,101.913z"/>
			<path fill-rule="evenodd" clip-rule="evenodd" fill="#4B4240" d="M459.271,130.16c12.027-0.061,26.561-3.355,37.891-14.869
				c17.541-17.826,13.828-47.896-8.051-60.536c-20.801-12.017-42.568-11.88-63.506-0.197c-14.137,7.889-20.252,20.975-18.998,37.102
				c1.189,15.297,9.584,25.834,23.035,32.555C437.814,128.299,446.626,129.902,459.271,130.16z M457.269,59.888
				c3.941-0.13,7.771,0.479,11.467,1.677c10.227,3.318,16.906,10.135,18.629,20.823c1.771,10.986-0.561,20.921-9.99,28.05
				c-7.748,5.857-16.729,6.938-25.992,5.684c-23.861-3.233-29.48-26.453-21.6-41.481C435.576,63.593,445.736,60.37,457.269,59.888z"
				/>
			<path fill-rule="evenodd" clip-rule="evenodd" fill="#4C4341" d="M333.88,114.773c8.363-7.836,15.979-14.976,23.6-22.107
				c10.85-10.151,21.639-20.368,32.613-30.383c2.17-1.98,1.855-4.156,1.861-6.459c0.027-8.324,0.012-8.324-8.406-8.324
				c-21.873,0-43.746,0.055-65.617-0.065c-2.898-0.016-4.02,0.659-3.721,3.684c0.33,3.318-1.002,7.723,0.684,9.733
				c1.775,2.117,6.322,0.626,9.65,0.644c13.713,0.071,27.428,0.03,41.99,0.03c-2.139,2.131-3.705,3.78-5.363,5.333
				c-16.59,15.53-33.195,31.043-49.797,46.562c-2.305,2.155-4.166,11.899-2.764,14.61c0.777,1.5,2.227,0.813,3.355,0.814
				c20.123,0.045,40.244,0.033,60.367,0.033c6.25,0,12.5-0.082,18.746,0.045c2.092,0.041,2.898-0.506,2.752-2.691
				c-0.18-2.734-0.227-5.506,0.01-8.232c0.232-2.705-0.787-3.297-3.359-3.281c-17.871,0.109-35.746,0.057-53.617,0.057
				C336.242,114.773,335.621,114.773,333.88,114.773z"/>
			<path fill-rule="evenodd" clip-rule="evenodd" fill="#9E332B" d="M78.02,99.58c24.755,3.183,49.511,6.357,74.264,9.559
				c3.717,0.48,5.958-2.063,4.864-5.559c-0.383-1.227-1.38-0.882-2.147-0.99c-3.707-0.527-7.418-1.049-11.143-1.427
				c-1.807-0.183-3.283-0.442-2.889-2.769c0.284-1.677-0.764-2.458-2.004-3.192c-5.897-3.493-11.815-6.954-17.646-10.556
				c-2.156-1.332-2.766-0.896-2.669,1.532c0.115,2.866-0.092,5.746,0.064,8.608c0.122,2.237-0.401,2.987-2.89,2.769
				c-8.498-0.749-8.507-0.635-8.507-9.025c0-22.836-0.039-45.673,0.054-68.509c0.01-2.528-0.653-4-2.972-5.276
				C95.79,10.008,87.322,5.013,78.8,0.115c-0.038,30.926-0.075,61.853-0.112,92.78C78.465,95.123,78.243,97.352,78.02,99.58z"/>
			<path fill-rule="evenodd" clip-rule="evenodd" fill="#E5453B" d="M78.02,99.58c0.223-2.229,0.445-4.457,0.668-6.686
				c-1.225-1.268-0.648-2.851-0.65-4.278C78,60.801,78.021,32.985,77.98,5.169c-0.002-1.535,0.652-3.282-0.868-4.563
				c-8.508,4.946-16.974,9.966-25.556,14.779c-1.945,1.09-2.024,2.488-2.022,4.296c0.028,24.325-0.037,48.649,0.092,72.973
				c0.016,2.945-0.63,3.96-3.722,4.311c-8.475,0.963-8.453,1.157-8.453-7.437c0-1.743,0-3.485,0-5.523
				c-3.239,0.875-5.611,2.915-8.244,4.414c-3.792,2.159-7.469,4.517-11.253,6.688c-1.702,0.977-3.185,1.879-2.841,4.237
				c0.229,1.57-0.995,1.69-2.189,1.83c-3.469,0.406-6.917,1.08-10.396,1.276c-2.603,0.146-2.801,1.392-2.323,3.396
				c0.427,1.791-0.066,4.007,3.266,3.537c11.977-1.689,23.994-3.088,35.989-4.656C52.318,103.047,65.167,101.299,78.02,99.58z"/>
			<path fill-rule="evenodd" clip-rule="evenodd" fill="#999490" d="M70.059,144.783c23.963,0.002,39.923-3.117,54.253-12.365
				c7.323-4.725,12.885-10.934,16.063-19.167c0.829-2.146,0.688-2.999-1.946-3.271c-6.439-0.666-12.841-1.695-19.255-2.598
				c-1.055-0.148-1.945-0.023-2.703,0.831c-7.175,8.087-16.952,10.677-27.01,12.247c-13.711,2.143-27.122,0.893-39.873-5.02
				c-2.611-1.211-5.494-2.41-7.11-4.703c-2.412-3.423-5.47-3.165-8.801-2.719c-4.939,0.661-9.857,1.647-14.817,1.945
				c-3.679,0.222-3.398,1.752-2.358,4.26c3.327,8.016,9.004,14.01,16.208,18.596C46.282,141.459,61.348,144.711,70.059,144.783z"/>
			<path fill-rule="evenodd" clip-rule="evenodd" fill="#49403E" d="M293.291,88.071c0-12.595-0.063-25.191,0.055-37.785
				c0.021-2.394-0.545-3.226-3.057-3.115c-4.736,0.208-9.488,0.136-14.23,0.022c-1.814-0.043-2.307,0.55-2.303,2.326
				c0.051,25.689,0.063,51.379-0.014,77.066c-0.008,2.189,0.934,2.367,2.674,2.336c4.617-0.084,9.244-0.172,13.855,0.029
				c2.48,0.109,3.1-0.67,3.076-3.096C293.226,113.262,293.291,100.666,293.291,88.071z"/>
			<path fill-rule="evenodd" clip-rule="evenodd" fill="#E64940" d="M37.46,67.261c-7.405,4.431-14.213,8.518-21.039,12.575
				c-0.982,0.583-1.305,1.375-1.289,2.47c0.041,2.865,0.066,5.732-0.007,8.596c-0.046,1.777,0.449,2.325,2.107,1.324
				c6.289-3.8,12.578-7.6,18.904-11.337c1.167-0.69,1.353-1.606,1.338-2.797C37.433,74.731,37.46,71.37,37.46,67.261z"/>
			<path fill-rule="evenodd" clip-rule="evenodd" fill="#A03830" d="M140.974,92.343c0-3.451-0.072-6.908,0.033-10.36
				c0.046-1.521-0.754-2.198-1.891-2.872c-5.992-3.557-11.97-7.136-17.924-10.754c-1.65-1.003-2.48-1.321-2.579,1.271
				c-0.371,9.775-0.456,9.78,7.907,14.753c4.491,2.671,8.999,5.312,13.51,7.949C140.206,92.432,140.495,92.343,140.974,92.343z"/>
			<path fill-rule="evenodd" clip-rule="evenodd" fill="#E64A41" d="M37.457,54.514c-7.431,4.456-14.351,8.578-21.232,12.763
				c-0.968,0.589-1.661,8.163-0.892,8.871c0.69,0.636,1.371,0.174,2.021-0.217c6.195-3.716,12.39-7.433,18.596-11.13
				c0.912-0.543,1.549-1.151,1.523-2.334C37.419,60.027,37.457,57.585,37.457,54.514z"/>
			<path fill-rule="evenodd" clip-rule="evenodd" fill="#A13931" d="M140.974,76.808c0-2.974,0.003-5.291-0.001-7.608
				c-0.002-0.748-0.043-1.42-0.84-1.894c-6.999-4.158-13.977-8.352-21.467-12.838c0,2.984,0.006,5.301-0.003,7.617
				c-0.003,0.764,0.062,1.44,0.835,1.9C126.494,68.146,133.479,72.329,140.974,76.808z"/>
			<path fill-rule="evenodd" clip-rule="evenodd" fill="#A13931" d="M118.664,42.438c0,2.657,0.099,4.62-0.03,6.567
				c-0.107,1.612,0.621,2.463,1.932,3.233c6.004,3.526,11.977,7.106,17.922,10.73c1.721,1.05,2.323,1.178,2.584-1.288
				c0.443-4.198-0.788-6.798-4.729-8.806C130.498,49.896,125.004,46.229,118.664,42.438z"/>
			<path fill-rule="evenodd" clip-rule="evenodd" fill="#E64C43" d="M37.569,47.615c-0.414-1.426,0.661-3.223-0.651-3.929
				s-2.415,0.92-3.55,1.584c-5.267,3.079-10.476,6.255-15.715,9.382c-2.046,1.221-3.533,6.425-2.425,8.461
				c0.547,1.006,1.246,0.575,1.849,0.217c6.539-3.878,13.08-7.751,19.574-11.703C38.295,50.625,37,48.82,37.569,47.615z"/>
			<path fill-rule="evenodd" clip-rule="evenodd" fill="#A13A33" d="M140.596,42.755c1.414-4.96-0.299-7.703-4.531-9.792
				c-5.837-2.882-11.34-6.438-16.987-9.704c-1.503,4.673,0.223,7.123,4.114,9.149C129.101,35.484,134.678,39.194,140.596,42.755z"/>
			<path fill-rule="evenodd" clip-rule="evenodd" fill="#E64C43" d="M37.66,23.392c-7.695,4.506-14.606,8.413-21.355,12.58
				c-2.343,1.447-1.069,4.107-0.946,6.197c0.057,0.96,1.188,0.342,1.783-0.014c6.312-3.767,12.636-7.515,18.91-11.344
				C38.749,29.165,36.985,26.519,37.66,23.392z"/>
			<path fill-rule="evenodd" clip-rule="evenodd" fill="#E64D44" d="M14.951,52.878c7.679-4.582,14.557-8.566,21.297-12.771
				c2.362-1.474,0.897-3.987,1.202-6.748c-7.424,4.459-14.376,8.538-21.216,12.797C13.927,47.593,15.605,50.044,14.951,52.878z"/>
			<path fill-rule="evenodd" clip-rule="evenodd" fill="#A13A33" d="M140.55,52.121c1.385-4.406-0.263-6.529-3.624-8.286
				c-4.96-2.594-9.61-5.773-14.494-8.522c-1.043-0.587-2.537-2.802-3.519-0.895c-0.715,1.388-1.223,4.008,1.017,5.362
				C126.718,43.882,133.539,47.93,140.55,52.121z"/>
			<path fill-rule="evenodd" clip-rule="evenodd" fill="#D6766F" d="M77.112,0.606c1.521,1.281,0.866,3.028,0.868,4.563
				c0.041,27.816,0.02,55.632,0.058,83.447c0.001,1.428-0.575,3.011,0.65,4.278c0.037-30.927,0.074-61.854,0.112-92.78
				C78.133-0.081,77.519-0.091,77.112,0.606z"/>
		</g>
	</g>
</g>
</svg>
