<?xml version="1.0" encoding="utf-8"?>
<!-- Generator: Adobe Illustrator 16.0.3, SVG Export Plug-In . SVG Version: 6.00 Build 0)  -->
<!DOCTYPE svg PUBLIC "-//W3C//DTD SVG 1.1//EN" "http://www.w3.org/Graphics/SVG/1.1/DTD/svg11.dtd">
<svg version="1.1" id="Layer_1" xmlns="http://www.w3.org/2000/svg" xmlns:xlink="http://www.w3.org/1999/xlink" x="0px" y="0px"
	 width="41.884px" height="56.493px" viewBox="0 0 41.884 56.493" enable-background="new 0 0 41.884 56.493" xml:space="preserve">
<g>
	<g>
		<path fill-rule="evenodd" clip-rule="evenodd" fill="#94B413" d="M26.047,55.505C16.715,54.736,7.611,53.25,0,47.128
			c0-1.406,0-2.813,0-4.221c0.702,0.111,1.973-1.714,2.018,0.67c0.047,2.489,1.637,3.846,3.759,4.871
			c6.64,3.205,13.669,4.919,20.956,5.718C26.504,54.613,26.275,55.059,26.047,55.505z"/>
		<path fill-rule="evenodd" clip-rule="evenodd" fill="#F08E00" d="M20.398,0c1.922,2.446,5.406,2.752,7.256,5.295
			c-2.447,0.568-3.664-1.75-5.601-2.397c-1.106-0.37-2.509-1.251-2.813,0.504c-0.441,2.559-1.845,5.169-0.288,7.827
			c-0.469,3.602,0.82,7.11,0.568,10.7c-0.329-0.528-0.658-1.055-0.986-1.582c-0.188-0.879-0.376-1.758-0.563-2.638
			c0.118-0.513,0.261-1.029-0.202-1.462C17.175,10.808,17.188,5.386,18.289,0C18.992,0,19.695,0,20.398,0z"/>
		<path fill-rule="evenodd" clip-rule="evenodd" fill="#F9B900" d="M18.953,11.229c-1.557-2.657-0.153-5.268,0.288-7.827
			c0.304-1.756,1.706-0.874,2.813-0.504c1.937,0.647,3.153,2.965,5.601,2.397c0,0-0.029,0.064-0.03,0.065
			c0.165,0.336,0.333,0.671,0.499,1.006c0.346,0.573,0.885,0.675,1.491,0.612l-0.018-0.021c-0.03,1.452,0.688,2.157,2.132,2.138
			c0,0-0.028-0.02-0.027-0.02c0,0.669,0.068,1.284,0.977,1.232c0,0-0.096-0.013-0.098-0.011c-0.04,0.521,0.219,0.769,0.721,0.795
			c0,0-0.089-0.055-0.09-0.053c0.014,0.473,0.262,0.747,0.714,0.847c0,0-0.093-0.074-0.093-0.073c0.238,0.28,0.476,0.56,0.713,0.839
			c1.815,2.196,3.116,4.646,3.67,7.463c-1.964,0.795-3.928,1.591-5.891,2.386C28.531,17.955,25.163,12.907,18.953,11.229z"/>
		<path fill-rule="evenodd" clip-rule="evenodd" fill="#EEBDD6" d="M12.083,33.066c-1.919-1.118-3.12-2.775-3.683-4.91
			c0.248-0.006,0.494-0.012,0.742-0.018c0.099,0.053,0.197,0.106,0.297,0.159c-0.098-0.054-0.195-0.108-0.293-0.162
			c0.021-1.064-0.029-2.079-1.469-2.141c0.018-0.215,0.027-0.43,0.03-0.646c0.397-0.267,0.791-0.741,0.284-1.015
			c-0.777-0.422-0.826,0.34-0.922,0.871c-1.316-0.904-1.586-2.036-0.741-3.41c-0.354-3.189,1.018-4.621,4.255-4.265
			c0.896,0.099,1.816-0.014,2.725-0.03c0.473,0.068,0.944,0.137,1.416,0.206c-0.158,2.146-1.891,3.285-2.998,4.84
			c-0.619,0.869-1.946,1.801-1.43,2.887c0.564,1.188,2.051,0.406,3.131,0.512c2.348,0.273,4.695,0.547,7.042,0.82
			c0.149,0.212,0.299,0.424,0.448,0.636c-2.686,2.022-3.822,5.122-5.465,7.869C14.207,34.722,13.647,33.126,12.083,33.066z"/>
		<path fill-rule="evenodd" clip-rule="evenodd" fill="#E483B4" d="M12.083,33.066c1.564,0.06,2.124,1.656,3.37,2.202
			c0.479,0.448,0.955,0.897,1.432,1.346c1.528,1.283,1.994-0.312,2.57-1.076c1.158-1.536,2.141-3.205,3.196-4.819
			c0.386,0.347,0.771,0.693,1.156,1.04c0.188,0.282,0.374,0.565,0.562,0.848c0.326,0.637,0.653,1.274,0.98,1.912
			c-0.157,2.728-1.512,4.784-4.084,6.384c4.947,1.99,9.446,3.259,14.124,0.673c0.784,0.164,1.568,0.327,2.353,0.491
			c-5.379,3.548-13.126,2.802-19.728-2.102C15.56,38.141,12.737,36.497,12.083,33.066z"/>
		<path fill-rule="evenodd" clip-rule="evenodd" fill="#F9B900" d="M37.742,42.066c-0.784-0.164-1.568-0.327-2.354-0.491
			c-1.004-1.315-3.559-0.474-3.853-2.771c1.7-0.292,3.114,0.665,4.658,1.059c1.055,0.269,2.128,0.475,2.462-0.988
			c0.922-4.048,1.342-8.105,0.057-12.166c0.053-1.523,0.106-3.047,0.16-4.571c2.133,5.875,2.02,11.891,1.117,17.954
			C39.799,41.38,39.322,42.353,37.742,42.066z"/>
		<path fill-rule="evenodd" clip-rule="evenodd" fill="#94B413" d="M26.025,49.901c-4.971-0.05-9.629-1.542-14.088-3.493
			c-3.086-1.35-3.613-3.071-2.404-5.817c1.347,3.806,4.219,5.344,7.784,6.119c2.958,0.644,5.851,1.588,8.771,2.399
			C26.067,49.373,26.047,49.636,26.025,49.901z"/>
		<path fill-rule="evenodd" clip-rule="evenodd" fill="#97C228" d="M26.047,55.505c0.229-0.446,0.457-0.893,0.686-1.339
			c4.502,0.057,9.005,0.113,13.507,0.169c0.86,0.012,1.75,0.098,1.635,1.248c-0.091,0.908-0.923,0.932-1.616,0.902
			C35.513,56.283,30.734,56.556,26.047,55.505z"/>
		<path fill-rule="evenodd" clip-rule="evenodd" fill="#F39F00" d="M38.873,22.137c-0.054,1.524-0.107,3.047-0.161,4.571
			c-1.371,0.038-2.854-0.2-3.569,1.45c-0.455-0.242-0.911-0.483-1.367-0.725c0.25-1.86-1.297-3.192-1.451-4.933
			c1.963-0.795,3.927-1.591,5.891-2.386c0,0-0.029,0.073-0.029,0.075c0.137,0.303,0.275,0.604,0.414,0.906
			C38.69,21.442,38.781,21.79,38.873,22.137z"/>
		<path fill-rule="evenodd" clip-rule="evenodd" fill="#97C228" d="M26.025,49.901c0.021-0.265,0.042-0.528,0.063-0.792
			c5.248,0,10.497,0,15.745,0c-0.01,0.506-0.02,1.014-0.029,1.52C36.545,50.812,31.287,50.964,26.025,49.901z"/>
		<path fill-rule="evenodd" clip-rule="evenodd" fill="#D73F87" d="M13.309,17.499c-0.908,0.016-1.828,0.129-2.725,0.03
			c-3.237-0.356-4.609,1.075-4.255,4.265c-2.599-3.857-2.106-5.22,2.116-5.522c2.083-0.149,4.186-0.033,6.28-0.037
			C14.253,16.656,13.781,17.078,13.309,17.499z"/>
		<path fill-rule="evenodd" clip-rule="evenodd" fill="#E483B4" d="M13.309,17.499c0.473-0.421,0.944-0.843,1.417-1.265
			c1.015,0.004,2.03,0.009,3.044,0.014c0.463,0.434,0.32,0.95,0.202,1.462c-1.083-0.002-2.165-0.003-3.247-0.005
			C14.253,17.636,13.781,17.567,13.309,17.499z"/>
		<path fill-rule="evenodd" clip-rule="evenodd" fill="#F39F00" d="M31.729,9.095c-1.444,0.019-2.162-0.686-2.132-2.138
			C30.608,7.37,31.313,8.088,31.729,9.095z"/>
		<path fill-rule="evenodd" clip-rule="evenodd" fill="#EBACCC" d="M7.678,25.994c1.439,0.062,1.49,1.077,1.469,2.141l-0.004,0.003
			C8.895,28.144,8.648,28.15,8.4,28.156C7.803,27.555,7.091,26.991,7.678,25.994z"/>
		<path fill-rule="evenodd" clip-rule="evenodd" fill="#EBACCC" d="M7.07,25.204c0.096-0.53,0.145-1.292,0.922-0.871
			c0.507,0.274,0.113,0.749-0.284,1.015C7.494,25.305,7.281,25.256,7.07,25.204z"/>
		<path fill-rule="evenodd" clip-rule="evenodd" fill="#F39F00" d="M29.614,6.979c-0.606,0.063-1.146-0.039-1.491-0.612
			c0.01-0.234,0.019-0.468,0.027-0.703C28.845,5.872,29.342,6.3,29.614,6.979z"/>
		<path fill-rule="evenodd" clip-rule="evenodd" fill="#F39F00" d="M32.678,10.308c-0.908,0.052-0.977-0.563-0.977-1.232
			C32.281,9.284,32.605,9.695,32.678,10.308z"/>
		<path fill-rule="evenodd" clip-rule="evenodd" fill="#F08E00" d="M28.15,5.664c-0.009,0.234-0.018,0.468-0.027,0.703
			c-0.166-0.334-0.334-0.669-0.499-1.006C27.887,5.312,28.062,5.414,28.15,5.664z"/>
		<path fill-rule="evenodd" clip-rule="evenodd" fill="#F9B900" d="M38.6,21.095c-0.139-0.301-0.277-0.603-0.414-0.906
			C38.324,20.49,38.461,20.792,38.6,21.095z"/>
		<path fill-rule="evenodd" clip-rule="evenodd" fill="#F39F00" d="M33.301,11.092c-0.502-0.027-0.761-0.275-0.721-0.795
			C33.059,10.347,33.25,10.655,33.301,11.092z"/>
		<path fill-rule="evenodd" clip-rule="evenodd" fill="#F39F00" d="M34.545,12.651c-0.237-0.28-0.475-0.559-0.713-0.839
			C34.07,12.091,34.308,12.372,34.545,12.651z"/>
		<path fill-rule="evenodd" clip-rule="evenodd" fill="#F39F00" d="M33.925,11.885c-0.452-0.1-0.7-0.374-0.714-0.847
			C33.449,11.32,33.688,11.603,33.925,11.885z"/>
		<path fill-rule="evenodd" clip-rule="evenodd" fill="#FCC800" d="M32.324,22.5c0.154,1.741,1.701,3.073,1.451,4.933
			c-3.355-0.108-5.268,3.247-8.461,3.525c-0.229-0.008-0.458-0.017-0.687-0.026c-1.282-2.421-1.956-5.221-4.347-6.948l0.018,0.02
			c0.08-0.832,0.259-1.697-0.734-2.165l-0.043,0.091c0.252-3.591-1.037-7.099-0.568-10.701C25.163,12.907,28.531,17.955,32.324,22.5
			z"/>
		<path fill-rule="evenodd" clip-rule="evenodd" fill="#EBACCC" d="M14.725,17.705c1.082,0.001,2.164,0.002,3.247,0.005
			c0.188,0.88,0.375,1.76,0.562,2.639c-3.054,0.632-3.877,3.298-5.105,5.596c-1.08-0.106-2.566,0.675-3.131-0.512
			c-0.517-1.085,0.811-2.018,1.43-2.887C12.834,20.989,14.566,19.85,14.725,17.705z"/>
		<path fill-rule="evenodd" clip-rule="evenodd" fill="#E898BB" d="M13.428,25.944c1.229-2.297,2.052-4.964,5.105-5.596
			c0.33,0.527,0.659,1.054,0.988,1.582c0,0.001,0.043-0.09,0.045-0.09c-0.061,0.825-0.11,1.646,0.732,2.165l-0.018-0.02
			c0.063,0.926,0.126,1.853,0.188,2.78C18.123,26.491,15.775,26.217,13.428,25.944z"/>
		<path fill-rule="evenodd" clip-rule="evenodd" fill="#EBACCC" d="M16.885,36.614c-0.477-0.449-0.953-0.897-1.432-1.346
			c1.643-2.747,2.779-5.846,5.465-7.868c0.305,0.695,0.607,1.39,0.912,2.085C19.609,31.464,18.543,34.245,16.885,36.614z"/>
		<path fill-rule="evenodd" clip-rule="evenodd" fill="#F9B900" d="M21.83,29.485c-0.305-0.695-0.607-1.39-0.912-2.085
			c-0.149-0.213-0.299-0.425-0.448-0.637c-0.063-0.926-0.125-1.853-0.188-2.779c2.391,1.727,3.064,4.527,4.346,6.948
			c-0.224,0.234-0.447,0.467-0.672,0.701l-0.148,0.126c-0.385-0.347-0.77-0.693-1.155-1.039
			C22.377,30.309,22.104,29.897,21.83,29.485z"/>
		<path fill-rule="evenodd" clip-rule="evenodd" fill="#EBACCC" d="M9.146,28.135c0.098,0.054,0.195,0.108,0.293,0.162
			c-0.1-0.053-0.198-0.105-0.297-0.159L9.146,28.135z"/>
		<path fill-rule="evenodd" clip-rule="evenodd" fill="#D73F87" d="M31.536,38.803c0.294,2.299,2.849,1.457,3.853,2.772
			c-4.677,2.586-9.176,1.317-14.123-0.673c2.572-1.6,3.927-3.656,4.083-6.385c0.907,0.784,1.813,1.569,2.721,2.352
			c0.192,0.154,0.384,0.309,0.576,0.464c0.778,0.924,1.53,1.903,2.979,1.424L31.536,38.803z"/>
		<path fill-rule="evenodd" clip-rule="evenodd" fill="#E898BB" d="M21.83,29.485c0.273,0.412,0.547,0.823,0.821,1.235
			c-1.056,1.613-2.038,3.282-3.196,4.818c-0.576,0.764-1.042,2.359-2.57,1.076C18.543,34.245,19.609,31.464,21.83,29.485z"/>
		<path fill-rule="evenodd" clip-rule="evenodd" fill="#F9B900" d="M28.069,36.87c-0.907-0.784-1.813-1.569-2.721-2.353
			c-0.326-0.636-0.653-1.273-0.979-1.911c0.086-0.085,0.171-0.171,0.257-0.256c0.467,0.237,0.935,0.474,1.401,0.711l-0.002-0.003
			c0.233,0.234,0.468,0.469,0.702,0.703l0.004,0.004c0.233,0.233,0.466,0.465,0.698,0.698c0,0-0.008-0.004-0.007-0.004
			c0.235,0.251,0.47,0.502,0.706,0.754C28.109,35.766,28.089,36.318,28.069,36.87z"/>
		<path fill-rule="evenodd" clip-rule="evenodd" fill="#F9B900" d="M24.369,32.606c-0.188-0.283-0.374-0.565-0.562-0.848
			c-0.001,0,0.147-0.125,0.147-0.125c0.224,0.239,0.447,0.478,0.671,0.717C24.54,32.436,24.455,32.521,24.369,32.606z"/>
		<path fill-rule="evenodd" clip-rule="evenodd" fill="#F08E00" d="M35.143,28.158c0.716-1.65,2.198-1.412,3.569-1.45
			c1.286,4.061,0.866,8.118-0.056,12.166c-0.334,1.463-1.407,1.257-2.462,0.988c-1.544-0.394-2.958-1.351-4.658-1.059
			c0-0.001,0.089-0.046,0.089-0.046c-0.313-1.016-1.065-1.431-2.061-1.517c0.713-2.027,2.816-2.231,4.329-3.108
			c1.798-1.043,2.419-2.085,1.258-3.902C35.148,29.54,35.146,28.849,35.143,28.158z"/>
		<path fill-rule="evenodd" clip-rule="evenodd" fill="#F9B900" d="M35.143,28.158c0.003,0.691,0.006,1.382,0.009,2.073
			c-2.929,0.418-5.103,2.091-7.001,4.221c-0.242,0.003-0.484,0.005-0.729,0.009l0.008,0.004c-0.232-0.232-0.465-0.465-0.698-0.698
			l-0.004-0.004c-0.234-0.234-0.469-0.469-0.702-0.703l0.002,0.003c-0.238-0.701-0.476-1.402-0.713-2.103
			c3.193-0.278,5.105-3.633,8.461-3.525C34.231,27.675,34.688,27.916,35.143,28.158z"/>
		<path fill-rule="evenodd" clip-rule="evenodd" fill="#F39F00" d="M25.314,30.958c0.237,0.701,0.475,1.402,0.713,2.103
			c-0.467-0.237-0.935-0.474-1.401-0.711c-0.224-0.239-0.447-0.479-0.671-0.717c0.225-0.234,0.448-0.467,0.672-0.701
			C24.856,30.942,25.086,30.951,25.314,30.958z"/>
		<path fill-rule="evenodd" clip-rule="evenodd" fill="#F08E00" d="M20.299,24.004c-0.843-0.519-0.793-1.339-0.732-2.165
			C20.558,22.308,20.379,23.172,20.299,24.004z"/>
		<path fill-rule="evenodd" clip-rule="evenodd" fill="#F39F00" d="M28.15,34.451c1.898-2.13,4.072-3.803,7.001-4.221
			c1.161,1.817,0.54,2.858-1.258,3.902c-1.513,0.877-3.616,1.082-4.33,3.109c-0.306,0.031-0.612,0.062-0.918,0.092
			c-0.192-0.155-0.384-0.31-0.576-0.464c0.02-0.551,0.04-1.103,0.06-1.655C28.136,34.959,28.144,34.705,28.15,34.451z"/>
		<path fill-rule="evenodd" clip-rule="evenodd" fill="#F9B900" d="M28.646,37.333c0.306-0.03,0.612-0.061,0.918-0.092
			c0.996,0.085,1.749,0.5,2.062,1.516C30.176,39.236,29.424,38.257,28.646,37.333z"/>
		<path fill-rule="evenodd" clip-rule="evenodd" fill="#F39F00" d="M26.025,33.059c0.233,0.234,0.468,0.469,0.702,0.703
			C26.493,33.527,26.259,33.293,26.025,33.059z"/>
		<path fill-rule="evenodd" clip-rule="evenodd" fill="#F08E00" d="M28.15,34.451c-0.007,0.254-0.015,0.508-0.021,0.763
			c-0.236-0.251-0.471-0.502-0.706-0.754C27.666,34.457,27.908,34.454,28.15,34.451z"/>
		<path fill-rule="evenodd" clip-rule="evenodd" fill="#F39F00" d="M26.731,33.766c0.233,0.233,0.466,0.466,0.698,0.698
			C27.197,34.231,26.965,33.999,26.731,33.766z"/>
	</g>
</g>
</svg>
