<?xml version="1.0" encoding="utf-8"?>
<!-- Generator: Adobe Illustrator 16.0.3, SVG Export Plug-In . SVG Version: 6.00 Build 0)  -->
<!DOCTYPE svg PUBLIC "-//W3C//DTD SVG 1.1//EN" "http://www.w3.org/Graphics/SVG/1.1/DTD/svg11.dtd">
<svg version="1.1" id="Layer_1" xmlns="http://www.w3.org/2000/svg" xmlns:xlink="http://www.w3.org/1999/xlink" x="0px" y="0px"
	 width="290.333px" height="80.804px" viewBox="0 0 290.333 80.804" enable-background="new 0 0 290.333 80.804"
	 xml:space="preserve">
<g>
	<g>
		<path fill-rule="evenodd" clip-rule="evenodd" fill="#94B413" d="M26.047,55.505C16.715,54.736,7.611,53.25,0,47.128
			c0-1.406,0-2.813,0-4.221c0.702,0.111,1.973-1.714,2.018,0.67c0.047,2.489,1.637,3.846,3.759,4.871
			c6.64,3.205,13.669,4.919,20.956,5.718C26.504,54.613,26.275,55.059,26.047,55.505z"/>
		<path fill-rule="evenodd" clip-rule="evenodd" fill="#F08E00" d="M20.398,0c1.922,2.446,5.406,2.752,7.256,5.295
			c-2.447,0.568-3.664-1.75-5.601-2.397c-1.106-0.37-2.509-1.251-2.813,0.504c-0.441,2.559-1.845,5.169-0.288,7.827
			c-0.469,3.602,0.82,7.11,0.568,10.7c-0.329-0.528-0.658-1.055-0.986-1.582c-0.188-0.879-0.376-1.758-0.563-2.638
			c0.118-0.513,0.261-1.029-0.202-1.462C17.175,10.808,17.188,5.386,18.289,0C18.992,0,19.695,0,20.398,0z"/>
		<path fill-rule="evenodd" clip-rule="evenodd" fill="#97C228" d="M75.269,19.735c-1.675,4.814-6.683,7.645-11.302,6.595
			c-2.27-0.515-4.463-1.398-6.649-2.223c-4.79-1.808-6.687-1.563-8.765,1.273c-2.293,3.127-2.257,8.245,0.119,11.179
			c1.353,1.671,3.056,2.887,5.078,3.644c3.727,1.394,7.479,2.725,11.174,4.2C73.927,48,77.263,53.839,75.918,63.475
			c-1.679,12.04-12.721,19.737-23.875,16.644c-8.064-2.236-13.166-10.621-11.252-18.492c1.333-5.477,6.037-8.636,11.603-7.793
			c5.491,0.833,9.706,5.758,9.316,11.021c-0.226,3.048-1.499,5.567-4.778,6.108c-3.07,0.509-5.397-0.705-6.688-4.451
			c3.207,1.425,6.033,2.518,7.564-1.396c1.232-3.146-0.166-6.848-3.211-8.378c-3.072-1.545-6.549-0.541-8.619,2.488
			c-4.415,6.457-0.832,16,6.965,18.555c7.558,2.475,15.054-1.297,18.112-9.114c3.149-8.048,0.478-14.953-7.255-18.331
			c-3.856-1.686-7.894-2.959-11.749-4.646c-7.138-3.125-9.745-9.701-6.991-17.186c2.58-7.015,8.668-10.074,16.036-8.037
			c1.128,0.312,2.228,0.719,3.345,1.069C69.613,23.157,70.551,23.021,75.269,19.735z"/>
		<path fill-rule="evenodd" clip-rule="evenodd" fill="#95C125" d="M87.225,57.068c0,3.175-0.088,6.313,0.023,9.442
			c0.134,3.739-2.644,1.931-4.215,2.246c-1.682,0.338-2.886-0.001-2.725-2.319c0.73-10.504,0.873-21.01-0.639-31.475
			c-0.1-0.698-0.227-1.667,0.667-1.683c1.904-0.035,4.187-1.597,5.601,0.044c1.105,1.283,1.542,0.681,2.439,0.271
			c8.443-3.857,16.127,0.958,16.347,10.225C104.97,54.224,98.287,59.359,87.225,57.068z M97.827,44.95
			c0.024-2.298-0.519-4.415-2.106-6.15c-1.838-2.008-4.139-1.931-6.498-1.28c-2.41,0.665-2.272,2.566-2.175,4.521
			c0.136,2.688,0.214,5.385,0.135,8.072c-0.052,1.758,0.732,2.477,2.321,2.904C94.197,54.285,97.787,50.844,97.827,44.95z"/>
		<path fill-rule="evenodd" clip-rule="evenodd" fill="#DDDB08" d="M252.5,45.57c0.027-7.916,5.649-13.636,13.363-13.596
			c7.287,0.038,12.346,5.372,12.23,12.893c-0.119,7.783-5.643,13.387-13.213,13.406C257.494,58.292,252.475,53.141,252.5,45.57z
			 M259.309,44.708c0.021,1.525,0.07,3.049,0.684,4.482c1.035,2.418,2.598,4.26,5.455,4.227c2.887-0.033,4.404-1.981,5.285-4.424
			c1.131-3.141,0.84-6.271-0.813-9.158c-2.371-4.143-7.197-4.038-9.541,0.128C259.547,41.441,259.312,43.046,259.309,44.708z"/>
		<path fill-rule="evenodd" clip-rule="evenodd" fill="#DDDB08" d="M182.143,44.614c0.019,7.968-5.566,13.703-13.303,13.659
			c-7.193-0.041-12.264-5.151-12.35-12.447c-0.092-7.903,5.451-13.735,13.162-13.845C176.93,31.877,182.125,37.132,182.143,44.614z
			 M175.321,45.24c-0.02-1.535-0.212-3.025-0.849-4.453c-1.035-2.319-2.643-4.028-5.277-3.977c-2.791,0.055-4.42,1.909-5.311,4.421
			c-1.073,3.028-0.869,6.007,0.594,8.854c1.023,1.991,2.561,3.372,4.959,3.346c2.391-0.026,3.863-1.46,4.932-3.417
			C175.183,48.527,175.336,46.896,175.321,45.24z"/>
		<path fill-rule="evenodd" clip-rule="evenodd" fill="#DDDB08" d="M209.593,47.335c-0.001,2.574,0.019,5.148-0.006,7.723
			c-0.034,3.72-2.866,1.614-4.419,2.008c-1.697,0.43-2.477-0.314-2.33-2.288c0.296-3.96,0.499-7.946,0.385-11.912
			c-0.13-4.525-2.826-6.229-7.105-4.89c-1.872,0.585-2.931,1.535-2.838,3.75c0.18,4.322-0.012,8.66,0.159,12.984
			c0.144,3.65-2.495,2.119-4.13,2.388c-1.918,0.313-3.002-0.116-2.825-2.563c0.471-6.528,0.854-13.083-0.546-19.57
			c-0.195-0.898-0.134-1.888,0.97-1.764c1.839,0.207,4.143-1.817,5.407,0.448c0.833,1.491,1.209,1.169,2.187,0.508
			c2-1.353,4.244-1.887,6.649-1.863c5.744,0.056,8.361,2.629,8.439,8.373C209.619,42.89,209.594,45.113,209.593,47.335z"/>
		<path fill-rule="evenodd" clip-rule="evenodd" fill="#95C125" d="M129.363,46.951c0,2.225-0.099,4.454,0.023,6.672
			c0.186,3.354-2.436,5.217-5.385,3.348c-1.318-0.835-1.968-0.609-3.013-0.1c-1.618,0.79-3.364,0.93-5.14,0.915
			c-3.937-0.03-6.614-1.701-7.398-4.654c-0.863-3.255,0.734-6.804,3.916-8.647c2.402-1.392,5.122-1.543,7.771-2.006
			c0.992-0.173,2.66,0.572,2.739-1.276c0.068-1.606-0.587-3.013-2.347-3.498c-2.776-0.766-5.555-0.464-8.354-0.051
			c-0.865,0.127-2.426,1.128-2.56-0.411c-0.118-1.362-0.753-3.605,1.55-4.105c4.49-0.974,9.045-1.479,13.535-0.025
			c3.232,1.047,4.408,3.681,4.571,6.816c0.122,2.335,0.024,4.682,0.024,7.024C129.32,46.952,129.342,46.951,129.363,46.951z
			 M123.066,49.961c-0.234-2.046,0.47-3.954-2.367-3.777c-3.761,0.233-6.369,1.833-6.199,4.318c0.174,2.566,2.098,2.939,4.053,2.784
			C120.878,53.101,123.527,52.984,123.066,49.961z"/>
		<path fill-rule="evenodd" clip-rule="evenodd" fill="#DDDB0B" d="M216.684,45.017c0-1.641-0.003-3.281,0.001-4.922
			c0.003-0.898-0.168-1.74-1.308-1.596c-2.166,0.275-2.186-1.035-2.123-2.586c0.057-1.395,0.111-2.49,2.039-2.491
			c2.712-0.001,1.797-2.234,1.89-3.677c0.191-3.01,2.516-4.699,5.296-3.774c1.404,0.468,0.774,1.502,0.74,2.329
			c-0.189,4.65-0.211,4.745,4.354,5.004c1.783,0.101,1.82,1.038,1.713,2.294c-0.111,1.31,0.345,3.34-1.895,2.865
			c-4.926-1.046-4.711,1.988-4.512,5.208c0.107,1.752,0.033,3.521,0.23,5.263c0.289,2.567,1.625,4.073,4.434,3.849
			c1.094-0.088,2.508-0.586,2.326,1.464c-0.137,1.544-0.143,2.946-2.23,3.383c-6.094,1.274-10.211-1.54-10.826-7.694
			c-0.162-1.623-0.024-3.277-0.024-4.918C216.754,45.017,216.719,45.017,216.684,45.017z"/>
		<path fill-rule="evenodd" clip-rule="evenodd" fill="#DDDB08" d="M148.092,32.308c1.523,0.683,5.248-1.287,4.322,3.362
			c-0.365,1.84-0.885,2.558-2.971,1.969c-2.961-0.837-5.9-0.565-7.853,2.279c-1.962,2.858-2.02,5.927-0.419,8.966
			c1.611,3.059,4.336,4.086,7.64,3.885c0.583-0.036,1.172-0.207,1.744-0.156c1.022,0.089,2.68-1.698,2.942,0.568
			c0.195,1.697,0.414,3.924-2.289,4.359c-5.531,0.893-10.849,0.777-14.858-3.881c-3.591-4.171-3.835-9.023-1.681-13.823
			C137.147,34.32,141.815,32.053,148.092,32.308z"/>
		<path fill-rule="evenodd" clip-rule="evenodd" fill="#DDDB08" d="M290.242,39.363c0,5.023-0.197,10.058,0.079,15.066
			c0.151,2.732-1.177,2.848-3.116,2.689c-1.779-0.145-4.011,0.873-3.899-2.635c0.326-10.277,0.71-20.57-0.343-30.835
			c-0.154-1.505,0.358-2.007,1.842-2.231c5.284-0.797,5.465-0.627,5.325,4.625c-0.118,4.437-0.024,8.88-0.024,13.32
			C290.151,39.362,290.197,39.362,290.242,39.363z"/>
		<path fill-rule="evenodd" clip-rule="evenodd" fill="#DDDB0B" d="M240.258,35.592c2.255-2.831,4.897-3.715,8.019-3.146
			c1.375,0.25,2.751,0.719,1.882,2.441c-0.695,1.374,0.506,4.282-2.773,3.791c-0.691-0.104-1.397-0.224-2.09-0.192
			c-2.984,0.135-4.874,1.437-4.838,4.707c0.036,3.269-0.18,6.562,0.148,9.801c0.344,3.389-0.752,4.322-4.162,4.252
			c-3.789-0.079-2.617-2.369-2.512-4.235c0.324-5.724,0.419-11.431-0.5-17.119c-0.158-0.981-1.234-2.722,0.77-2.642
			c1.811,0.073,4.101-2.168,5.516,0.756C239.891,34.365,239.979,34.764,240.258,35.592z"/>
		<path fill-rule="evenodd" clip-rule="evenodd" fill="#F9B900" d="M18.953,11.229c-1.557-2.657-0.153-5.268,0.288-7.827
			c0.304-1.756,1.706-0.874,2.813-0.504c1.937,0.647,3.153,2.965,5.601,2.397c0,0-0.029,0.064-0.03,0.065
			c0.165,0.336,0.333,0.671,0.499,1.006c0.346,0.573,0.885,0.675,1.491,0.612l-0.018-0.021c-0.03,1.452,0.688,2.157,2.132,2.138
			c0,0-0.028-0.02-0.027-0.02c0,0.669,0.068,1.284,0.977,1.232c0,0-0.096-0.013-0.098-0.011c-0.04,0.521,0.219,0.769,0.721,0.795
			c0,0-0.089-0.055-0.09-0.053c0.014,0.473,0.262,0.747,0.714,0.847c0,0-0.093-0.074-0.093-0.073c0.238,0.28,0.476,0.56,0.713,0.839
			c1.815,2.196,3.116,4.646,3.67,7.463c-1.964,0.795-3.928,1.591-5.891,2.386C28.531,17.955,25.163,12.907,18.953,11.229z"/>
		<path fill-rule="evenodd" clip-rule="evenodd" fill="#EEBDD6" d="M12.083,33.066c-1.919-1.118-3.12-2.775-3.683-4.91
			c0.248-0.006,0.494-0.012,0.742-0.018c0.099,0.053,0.197,0.106,0.297,0.159c-0.098-0.054-0.195-0.108-0.293-0.162
			c0.021-1.064-0.029-2.079-1.469-2.141c0.018-0.215,0.027-0.43,0.03-0.646c0.397-0.267,0.791-0.741,0.284-1.015
			c-0.777-0.422-0.826,0.34-0.922,0.871c-1.316-0.904-1.586-2.036-0.741-3.41c-0.354-3.189,1.018-4.621,4.255-4.265
			c0.896,0.099,1.816-0.014,2.725-0.03c0.473,0.068,0.944,0.137,1.416,0.206c-0.158,2.146-1.891,3.285-2.998,4.84
			c-0.619,0.869-1.946,1.801-1.43,2.887c0.564,1.188,2.051,0.406,3.131,0.512c2.348,0.273,4.695,0.547,7.042,0.82
			c0.149,0.212,0.299,0.424,0.448,0.636c-2.686,2.022-3.822,5.122-5.465,7.869C14.207,34.722,13.647,33.126,12.083,33.066z"/>
		<path fill-rule="evenodd" clip-rule="evenodd" fill="#E483B4" d="M12.083,33.066c1.564,0.06,2.124,1.656,3.37,2.202
			c0.479,0.448,0.955,0.897,1.432,1.346c1.528,1.283,1.994-0.312,2.57-1.076c1.158-1.536,2.141-3.205,3.196-4.819
			c0.386,0.347,0.771,0.693,1.156,1.04c0.188,0.282,0.374,0.565,0.562,0.848c0.326,0.637,0.653,1.274,0.98,1.912
			c-0.157,2.728-1.512,4.784-4.084,6.384c4.947,1.99,9.446,3.259,14.124,0.673c0.784,0.164,1.568,0.327,2.353,0.491
			c-5.379,3.548-13.126,2.802-19.728-2.102C15.56,38.141,12.737,36.497,12.083,33.066z"/>
		<path fill-rule="evenodd" clip-rule="evenodd" fill="#F9B900" d="M37.742,42.066c-0.784-0.164-1.568-0.327-2.354-0.491
			c-1.004-1.315-3.559-0.474-3.853-2.771c1.7-0.292,3.114,0.665,4.658,1.059c1.055,0.269,2.128,0.475,2.462-0.988
			c0.922-4.048,1.342-8.105,0.057-12.166c0.053-1.523,0.106-3.047,0.16-4.571c2.133,5.875,2.02,11.891,1.117,17.954
			C39.799,41.38,39.322,42.353,37.742,42.066z"/>
		<path fill-rule="evenodd" clip-rule="evenodd" fill="#94B413" d="M26.025,49.901c-4.971-0.05-9.629-1.542-14.088-3.493
			c-3.086-1.35-3.613-3.071-2.404-5.817c1.347,3.806,4.219,5.344,7.784,6.119c2.958,0.644,5.851,1.588,8.771,2.399
			C26.067,49.373,26.047,49.636,26.025,49.901z"/>
		<path fill-rule="evenodd" clip-rule="evenodd" fill="#97C228" d="M26.047,55.505c0.229-0.446,0.457-0.893,0.686-1.339
			c4.502,0.057,9.005,0.113,13.507,0.169c0.86,0.012,1.75,0.098,1.635,1.248c-0.091,0.908-0.923,0.932-1.616,0.902
			C35.513,56.283,30.734,56.556,26.047,55.505z"/>
		<path fill-rule="evenodd" clip-rule="evenodd" fill="#F39F00" d="M38.873,22.137c-0.054,1.524-0.107,3.047-0.161,4.571
			c-1.371,0.038-2.854-0.2-3.569,1.45c-0.455-0.242-0.911-0.483-1.367-0.725c0.25-1.86-1.297-3.192-1.451-4.933
			c1.963-0.795,3.927-1.591,5.891-2.386c0,0-0.029,0.073-0.029,0.075c0.137,0.303,0.275,0.604,0.414,0.906
			C38.69,21.442,38.781,21.79,38.873,22.137z"/>
		<path fill-rule="evenodd" clip-rule="evenodd" fill="#97C228" d="M26.025,49.901c0.021-0.265,0.042-0.528,0.063-0.792
			c5.248,0,10.497,0,15.745,0c-0.01,0.506-0.02,1.014-0.029,1.52C36.545,50.812,31.287,50.964,26.025,49.901z"/>
		<path fill-rule="evenodd" clip-rule="evenodd" fill="#D73F87" d="M13.309,17.499c-0.908,0.016-1.828,0.129-2.725,0.03
			c-3.237-0.356-4.609,1.075-4.255,4.265c-2.599-3.857-2.106-5.22,2.116-5.522c2.083-0.149,4.186-0.033,6.28-0.037
			C14.253,16.656,13.781,17.078,13.309,17.499z"/>
		<path fill-rule="evenodd" clip-rule="evenodd" fill="#E483B4" d="M13.309,17.499c0.473-0.421,0.944-0.843,1.417-1.265
			c1.015,0.004,2.03,0.009,3.044,0.014c0.463,0.434,0.32,0.95,0.202,1.462c-1.083-0.002-2.165-0.003-3.247-0.005
			C14.253,17.636,13.781,17.567,13.309,17.499z"/>
		<path fill-rule="evenodd" clip-rule="evenodd" fill="#F39F00" d="M31.729,9.095c-1.444,0.019-2.162-0.686-2.132-2.138
			C30.608,7.37,31.313,8.088,31.729,9.095z"/>
		<path fill-rule="evenodd" clip-rule="evenodd" fill="#EBACCC" d="M7.678,25.994c1.439,0.062,1.49,1.077,1.469,2.141l-0.004,0.003
			C8.895,28.144,8.648,28.15,8.4,28.156C7.803,27.555,7.091,26.991,7.678,25.994z"/>
		<path fill-rule="evenodd" clip-rule="evenodd" fill="#EBACCC" d="M7.07,25.204c0.096-0.53,0.145-1.292,0.922-0.871
			c0.507,0.274,0.113,0.749-0.284,1.015C7.494,25.305,7.281,25.256,7.07,25.204z"/>
		<path fill-rule="evenodd" clip-rule="evenodd" fill="#F39F00" d="M29.614,6.979c-0.606,0.063-1.146-0.039-1.491-0.612
			c0.01-0.234,0.019-0.468,0.027-0.703C28.845,5.872,29.342,6.3,29.614,6.979z"/>
		<path fill-rule="evenodd" clip-rule="evenodd" fill="#F39F00" d="M32.678,10.308c-0.908,0.052-0.977-0.563-0.977-1.232
			C32.281,9.284,32.605,9.695,32.678,10.308z"/>
		<path fill-rule="evenodd" clip-rule="evenodd" fill="#F08E00" d="M28.15,5.664c-0.009,0.234-0.018,0.468-0.027,0.703
			c-0.166-0.334-0.334-0.669-0.499-1.006C27.887,5.312,28.062,5.414,28.15,5.664z"/>
		<path fill-rule="evenodd" clip-rule="evenodd" fill="#F9B900" d="M38.6,21.095c-0.139-0.301-0.277-0.603-0.414-0.906
			C38.324,20.49,38.461,20.792,38.6,21.095z"/>
		<path fill-rule="evenodd" clip-rule="evenodd" fill="#F39F00" d="M33.301,11.092c-0.502-0.027-0.761-0.275-0.721-0.795
			C33.059,10.347,33.25,10.655,33.301,11.092z"/>
		<path fill-rule="evenodd" clip-rule="evenodd" fill="#F39F00" d="M34.545,12.651c-0.237-0.28-0.475-0.559-0.713-0.839
			C34.07,12.091,34.308,12.372,34.545,12.651z"/>
		<path fill-rule="evenodd" clip-rule="evenodd" fill="#F39F00" d="M33.925,11.885c-0.452-0.1-0.7-0.374-0.714-0.847
			C33.449,11.32,33.688,11.603,33.925,11.885z"/>
		<path fill-rule="evenodd" clip-rule="evenodd" fill="#FCC800" d="M32.324,22.5c0.154,1.741,1.701,3.073,1.451,4.933
			c-3.355-0.108-5.268,3.247-8.461,3.525c-0.229-0.008-0.458-0.017-0.687-0.026c-1.282-2.421-1.956-5.221-4.347-6.948l0.018,0.02
			c0.08-0.832,0.259-1.697-0.734-2.165l-0.043,0.091c0.252-3.591-1.037-7.099-0.568-10.701C25.163,12.907,28.531,17.955,32.324,22.5
			z"/>
		<path fill-rule="evenodd" clip-rule="evenodd" fill="#EBACCC" d="M14.725,17.705c1.082,0.001,2.164,0.002,3.247,0.005
			c0.188,0.88,0.375,1.76,0.562,2.639c-3.054,0.632-3.877,3.298-5.105,5.596c-1.08-0.106-2.566,0.675-3.131-0.512
			c-0.517-1.085,0.811-2.018,1.43-2.887C12.834,20.989,14.566,19.85,14.725,17.705z"/>
		<path fill-rule="evenodd" clip-rule="evenodd" fill="#E898BB" d="M13.428,25.944c1.229-2.297,2.052-4.964,5.105-5.596
			c0.33,0.527,0.659,1.054,0.988,1.582c0,0.001,0.043-0.09,0.045-0.09c-0.061,0.825-0.11,1.646,0.732,2.165l-0.018-0.02
			c0.063,0.926,0.126,1.853,0.188,2.78C18.123,26.491,15.775,26.217,13.428,25.944z"/>
		<path fill-rule="evenodd" clip-rule="evenodd" fill="#EBACCC" d="M16.885,36.614c-0.477-0.449-0.953-0.897-1.432-1.346
			c1.643-2.747,2.779-5.846,5.465-7.868c0.305,0.695,0.607,1.39,0.912,2.085C19.609,31.464,18.543,34.245,16.885,36.614z"/>
		<path fill-rule="evenodd" clip-rule="evenodd" fill="#F9B900" d="M21.83,29.485c-0.305-0.695-0.607-1.39-0.912-2.085
			c-0.149-0.213-0.299-0.425-0.448-0.637c-0.063-0.926-0.125-1.853-0.188-2.779c2.391,1.727,3.064,4.527,4.346,6.948
			c-0.224,0.234-0.447,0.467-0.672,0.701l-0.148,0.126c-0.385-0.347-0.77-0.693-1.155-1.039
			C22.377,30.309,22.104,29.897,21.83,29.485z"/>
		<path fill-rule="evenodd" clip-rule="evenodd" fill="#EBACCC" d="M9.146,28.135c0.098,0.054,0.195,0.108,0.293,0.162
			c-0.1-0.053-0.198-0.105-0.297-0.159L9.146,28.135z"/>
		<path fill-rule="evenodd" clip-rule="evenodd" fill="#D73F87" d="M31.536,38.803c0.294,2.299,2.849,1.457,3.853,2.772
			c-4.677,2.586-9.176,1.317-14.123-0.673c2.572-1.6,3.927-3.656,4.083-6.385c0.907,0.784,1.813,1.569,2.721,2.352
			c0.192,0.154,0.384,0.309,0.576,0.464c0.778,0.924,1.53,1.903,2.979,1.424L31.536,38.803z"/>
		<path fill-rule="evenodd" clip-rule="evenodd" fill="#E898BB" d="M21.83,29.485c0.273,0.412,0.547,0.823,0.821,1.235
			c-1.056,1.613-2.038,3.282-3.196,4.818c-0.576,0.764-1.042,2.359-2.57,1.076C18.543,34.245,19.609,31.464,21.83,29.485z"/>
		<path fill-rule="evenodd" clip-rule="evenodd" fill="#F9B900" d="M28.069,36.87c-0.907-0.784-1.813-1.569-2.721-2.353
			c-0.326-0.636-0.653-1.273-0.979-1.911c0.086-0.085,0.171-0.171,0.257-0.256c0.467,0.237,0.935,0.474,1.401,0.711l-0.002-0.003
			c0.233,0.234,0.468,0.469,0.702,0.703l0.004,0.004c0.233,0.233,0.466,0.465,0.698,0.698c0,0-0.008-0.004-0.007-0.004
			c0.235,0.251,0.47,0.502,0.706,0.754C28.109,35.766,28.089,36.318,28.069,36.87z"/>
		<path fill-rule="evenodd" clip-rule="evenodd" fill="#F9B900" d="M24.369,32.606c-0.188-0.283-0.374-0.565-0.562-0.848
			c-0.001,0,0.147-0.125,0.147-0.125c0.224,0.239,0.447,0.478,0.671,0.717C24.54,32.436,24.455,32.521,24.369,32.606z"/>
		<path fill-rule="evenodd" clip-rule="evenodd" fill="#F08E00" d="M35.143,28.158c0.716-1.65,2.198-1.412,3.569-1.45
			c1.286,4.061,0.866,8.118-0.056,12.166c-0.334,1.463-1.407,1.257-2.462,0.988c-1.544-0.394-2.958-1.351-4.658-1.059
			c0-0.001,0.089-0.046,0.089-0.046c-0.313-1.016-1.065-1.431-2.061-1.517c0.713-2.027,2.816-2.231,4.329-3.108
			c1.798-1.043,2.419-2.085,1.258-3.902C35.148,29.54,35.146,28.849,35.143,28.158z"/>
		<path fill-rule="evenodd" clip-rule="evenodd" fill="#F9B900" d="M35.143,28.158c0.003,0.691,0.006,1.382,0.009,2.073
			c-2.929,0.418-5.103,2.091-7.001,4.221c-0.242,0.003-0.484,0.005-0.729,0.009l0.008,0.004c-0.232-0.232-0.465-0.465-0.698-0.698
			l-0.004-0.004c-0.234-0.234-0.469-0.469-0.702-0.703l0.002,0.003c-0.238-0.701-0.476-1.402-0.713-2.103
			c3.193-0.278,5.105-3.633,8.461-3.525C34.231,27.675,34.688,27.916,35.143,28.158z"/>
		<path fill-rule="evenodd" clip-rule="evenodd" fill="#F39F00" d="M25.314,30.958c0.237,0.701,0.475,1.402,0.713,2.103
			c-0.467-0.237-0.935-0.474-1.401-0.711c-0.224-0.239-0.447-0.479-0.671-0.717c0.225-0.234,0.448-0.467,0.672-0.701
			C24.856,30.942,25.086,30.951,25.314,30.958z"/>
		<path fill-rule="evenodd" clip-rule="evenodd" fill="#F08E00" d="M20.299,24.004c-0.843-0.519-0.793-1.339-0.732-2.165
			C20.558,22.308,20.379,23.172,20.299,24.004z"/>
		<path fill-rule="evenodd" clip-rule="evenodd" fill="#F39F00" d="M28.15,34.451c1.898-2.13,4.072-3.803,7.001-4.221
			c1.161,1.817,0.54,2.858-1.258,3.902c-1.513,0.877-3.616,1.082-4.33,3.109c-0.306,0.031-0.612,0.062-0.918,0.092
			c-0.192-0.155-0.384-0.31-0.576-0.464c0.02-0.551,0.04-1.103,0.06-1.655C28.136,34.959,28.144,34.705,28.15,34.451z"/>
		<path fill-rule="evenodd" clip-rule="evenodd" fill="#F9B900" d="M28.646,37.333c0.306-0.03,0.612-0.061,0.918-0.092
			c0.996,0.085,1.749,0.5,2.062,1.516C30.176,39.236,29.424,38.257,28.646,37.333z"/>
		<path fill-rule="evenodd" clip-rule="evenodd" fill="#F39F00" d="M26.025,33.059c0.233,0.234,0.468,0.469,0.702,0.703
			C26.493,33.527,26.259,33.293,26.025,33.059z"/>
		<path fill-rule="evenodd" clip-rule="evenodd" fill="#F08E00" d="M28.15,34.451c-0.007,0.254-0.015,0.508-0.021,0.763
			c-0.236-0.251-0.471-0.502-0.706-0.754C27.666,34.457,27.908,34.454,28.15,34.451z"/>
		<path fill-rule="evenodd" clip-rule="evenodd" fill="#F39F00" d="M26.731,33.766c0.233,0.233,0.466,0.466,0.698,0.698
			C27.197,34.231,26.965,33.999,26.731,33.766z"/>
	</g>
</g>
</svg>
